M48
; DRILL file {KiCad 7.0.9-7.0.9~ubuntu23.10.1} date Fri 22 Dec 2023 02:56:49 PM
; FORMAT={-:-/ absolute / metric / decimal}
; #@! TF.CreationDate,2023-12-22T14:56:49-05:00
; #@! TF.GenerationSoftware,Kicad,Pcbnew,7.0.9-7.0.9~ubuntu23.10.1
; #@! TF.FileFunction,Plated,1,2,PTH
FMAT,2
METRIC
; #@! TA.AperFunction,Plated,PTH,ViaDrill
T1C0.400
; #@! TA.AperFunction,Plated,PTH,ComponentDrill
T2C1.000
; #@! TA.AperFunction,Plated,PTH,ComponentDrill
T3C1.000
; #@! TA.AperFunction,Plated,PTH,ComponentDrill
T4C1.200
; #@! TA.AperFunction,Plated,PTH,ComponentDrill
T5C1.600
; #@! TA.AperFunction,Plated,PTH,ComponentDrill
T6C1.800
%
G90
G05
T1
X152.9Y-106.9
X156.0Y-99.9
T2
X108.3Y-107.75
X108.3Y-113.15
X110.8Y-107.75
X110.8Y-113.15
X113.3Y-107.75
X113.3Y-113.15
X158.25Y-107.75
X158.25Y-113.15
X160.75Y-107.75
X160.75Y-113.15
X163.25Y-107.75
X163.25Y-113.15
X170.25Y-107.75
X170.25Y-113.15
X172.75Y-107.75
X172.75Y-113.15
X175.25Y-107.75
X175.25Y-113.15
X184.25Y-107.75
X184.25Y-113.15
X186.75Y-107.75
X186.75Y-113.15
X189.25Y-107.75
X189.25Y-113.15
T3
X137.75Y-93.175
X140.29Y-93.175
X142.83Y-93.175
X145.37Y-93.175
X147.91Y-93.175
X150.45Y-93.175
X152.99Y-93.175
X155.53Y-93.175
X158.07Y-93.175
T4
X133.3Y-101.49
X135.8Y-101.49
X138.3Y-101.49
X144.53Y-107.72
X144.53Y-110.22
X144.53Y-112.72
T5
X132.28Y-116.01
X132.28Y-120.51
X139.28Y-116.01
X139.28Y-120.51
T6
X129.47Y-105.22
X129.47Y-115.22
X142.12Y-105.22
X142.12Y-115.22
T0
M30
