%TF.GenerationSoftware,KiCad,Pcbnew,7.0.9-7.0.9~ubuntu23.10.1*%
%TF.CreationDate,2023-12-22T14:56:40-05:00*%
%TF.ProjectId,buttons,62757474-6f6e-4732-9e6b-696361645f70,rev?*%
%TF.SameCoordinates,Original*%
%TF.FileFunction,Legend,Top*%
%TF.FilePolarity,Positive*%
%FSLAX46Y46*%
G04 Gerber Fmt 4.6, Leading zero omitted, Abs format (unit mm)*
G04 Created by KiCad (PCBNEW 7.0.9-7.0.9~ubuntu23.10.1) date 2023-12-22 14:56:40*
%MOMM*%
%LPD*%
G01*
G04 APERTURE LIST*
%ADD10C,0.200000*%
%ADD11C,0.150000*%
%ADD12C,0.400000*%
%ADD13C,0.250000*%
%ADD14C,0.120000*%
%ADD15C,1.448000*%
%ADD16C,1.600000*%
%ADD17R,1.600000X1.600000*%
%ADD18C,1.800000*%
%ADD19C,2.500000*%
%ADD20C,2.200000*%
%ADD21R,1.700000X1.700000*%
%ADD22O,1.700000X1.700000*%
G04 APERTURE END LIST*
D10*
G36*
X169969672Y-94709974D02*
G01*
X169969672Y-95157796D01*
X169950827Y-95167219D01*
X169807565Y-95167219D01*
X169747955Y-95137414D01*
X169723288Y-95112746D01*
X169693482Y-95053134D01*
X169693482Y-94814635D01*
X169723287Y-94755025D01*
X169747955Y-94730356D01*
X169807565Y-94700552D01*
X169950827Y-94700552D01*
X169969672Y-94709974D01*
G37*
G36*
X172634701Y-94878430D02*
G01*
X172654153Y-94897882D01*
X172683958Y-94957492D01*
X172683958Y-95053135D01*
X172654153Y-95112743D01*
X172629484Y-95137413D01*
X172569875Y-95167219D01*
X172312530Y-95167219D01*
X172312530Y-94843409D01*
X172529636Y-94843409D01*
X172634701Y-94878430D01*
G37*
G36*
X172581865Y-94397024D02*
G01*
X172606534Y-94421692D01*
X172636339Y-94481302D01*
X172636339Y-94529326D01*
X172606534Y-94588935D01*
X172581865Y-94613603D01*
X172522256Y-94643409D01*
X172312530Y-94643409D01*
X172312530Y-94367219D01*
X172522256Y-94367219D01*
X172581865Y-94397024D01*
G37*
G36*
X175581866Y-94730357D02*
G01*
X175606535Y-94755025D01*
X175636340Y-94814635D01*
X175636340Y-95053135D01*
X175606535Y-95112743D01*
X175581866Y-95137413D01*
X175522257Y-95167219D01*
X175426614Y-95167219D01*
X175367004Y-95137414D01*
X175342337Y-95112746D01*
X175312531Y-95053134D01*
X175312531Y-94814635D01*
X175342336Y-94755025D01*
X175367004Y-94730356D01*
X175426614Y-94700552D01*
X175522257Y-94700552D01*
X175581866Y-94730357D01*
G37*
G36*
X177693483Y-95843409D02*
G01*
X166826816Y-95843409D01*
X166826816Y-95267219D01*
X166969673Y-95267219D01*
X166988771Y-95325998D01*
X167038771Y-95362325D01*
X167100575Y-95362325D01*
X167150575Y-95325998D01*
X167169673Y-95267219D01*
X167169673Y-94717975D01*
X167312388Y-95023793D01*
X167325482Y-95037826D01*
X167334784Y-95054619D01*
X167346060Y-95059881D01*
X167354551Y-95068981D01*
X167373398Y-95072638D01*
X167390790Y-95080755D01*
X167403003Y-95078384D01*
X167415222Y-95080756D01*
X167432618Y-95072637D01*
X167451461Y-95068981D01*
X167459949Y-95059883D01*
X167471228Y-95054620D01*
X167480531Y-95037825D01*
X167493624Y-95023793D01*
X167636339Y-94717974D01*
X167636339Y-95267219D01*
X167655437Y-95325998D01*
X167705437Y-95362325D01*
X167767241Y-95362325D01*
X167817241Y-95325998D01*
X167836339Y-95267219D01*
X167836339Y-94552933D01*
X168064911Y-94552933D01*
X168072034Y-94574856D01*
X168075468Y-94597654D01*
X168123087Y-94692892D01*
X168134460Y-94704439D01*
X168141819Y-94718882D01*
X168189438Y-94766500D01*
X168203879Y-94773858D01*
X168215428Y-94785233D01*
X168310665Y-94832852D01*
X168321686Y-94834512D01*
X168331133Y-94840423D01*
X168510958Y-94885379D01*
X168581865Y-94920833D01*
X168606534Y-94945501D01*
X168636339Y-95005111D01*
X168636339Y-95053135D01*
X168606534Y-95112743D01*
X168581865Y-95137413D01*
X168522256Y-95167219D01*
X168323994Y-95167219D01*
X168196534Y-95124732D01*
X168134732Y-95124262D01*
X168084458Y-95160209D01*
X168064913Y-95218841D01*
X168083565Y-95277763D01*
X168133288Y-95314468D01*
X168276145Y-95362087D01*
X168292352Y-95362210D01*
X168307768Y-95367219D01*
X168545863Y-95367219D01*
X168567786Y-95360095D01*
X168590584Y-95356662D01*
X168685822Y-95309043D01*
X168697370Y-95297668D01*
X168711812Y-95290310D01*
X168734903Y-95267219D01*
X169064911Y-95267219D01*
X169084009Y-95325998D01*
X169134009Y-95362325D01*
X169195813Y-95362325D01*
X169245813Y-95325998D01*
X169264911Y-95267219D01*
X169264911Y-95076742D01*
X169493482Y-95076742D01*
X169500605Y-95098665D01*
X169504039Y-95121463D01*
X169551658Y-95216701D01*
X169563031Y-95228248D01*
X169570390Y-95242690D01*
X169618008Y-95290310D01*
X169632451Y-95297669D01*
X169643999Y-95309043D01*
X169739236Y-95356662D01*
X169762034Y-95360095D01*
X169783958Y-95367219D01*
X169969672Y-95367219D01*
X169969672Y-95386469D01*
X169939867Y-95446078D01*
X169915198Y-95470746D01*
X169855589Y-95500552D01*
X169759946Y-95500552D01*
X169685822Y-95463490D01*
X169624708Y-95454285D01*
X169569855Y-95482761D01*
X169542216Y-95538040D01*
X169552347Y-95599007D01*
X169596380Y-95642376D01*
X169691617Y-95689995D01*
X169714415Y-95693428D01*
X169736339Y-95700552D01*
X169879196Y-95700552D01*
X169901119Y-95693428D01*
X169923917Y-95689995D01*
X170019155Y-95642376D01*
X170030702Y-95631002D01*
X170045145Y-95623644D01*
X170092763Y-95576025D01*
X170100121Y-95561583D01*
X170111496Y-95550035D01*
X170159115Y-95454798D01*
X170162548Y-95431999D01*
X170169672Y-95410076D01*
X170169672Y-95267219D01*
X170445863Y-95267219D01*
X170464961Y-95325998D01*
X170514961Y-95362325D01*
X170576765Y-95362325D01*
X170626765Y-95325998D01*
X170645863Y-95267219D01*
X170645863Y-94737211D01*
X170652717Y-94730356D01*
X170712327Y-94700552D01*
X170807970Y-94700552D01*
X170852279Y-94722707D01*
X170874434Y-94767016D01*
X170874434Y-95267219D01*
X170893532Y-95325998D01*
X170943532Y-95362325D01*
X171005336Y-95362325D01*
X171055336Y-95325998D01*
X171074434Y-95267219D01*
X172112530Y-95267219D01*
X172117424Y-95282281D01*
X172117424Y-95298121D01*
X172126733Y-95310934D01*
X172131628Y-95325998D01*
X172144441Y-95335307D01*
X172153751Y-95348121D01*
X172168814Y-95353015D01*
X172181628Y-95362325D01*
X172197467Y-95362325D01*
X172212530Y-95367219D01*
X172593482Y-95367219D01*
X172615405Y-95360095D01*
X172638203Y-95356662D01*
X172733441Y-95309043D01*
X172744989Y-95297668D01*
X172759431Y-95290310D01*
X172807050Y-95242690D01*
X172814407Y-95228249D01*
X172825782Y-95216701D01*
X172871952Y-95124361D01*
X173112530Y-95124361D01*
X173119653Y-95146284D01*
X173123087Y-95169082D01*
X173170706Y-95264321D01*
X173171264Y-95264887D01*
X173171395Y-95265674D01*
X173192880Y-95286835D01*
X173214074Y-95308354D01*
X173214861Y-95308484D01*
X173215428Y-95309043D01*
X173310665Y-95356662D01*
X173333463Y-95360095D01*
X173355387Y-95367219D01*
X173498244Y-95367219D01*
X173520167Y-95360095D01*
X173542965Y-95356662D01*
X173578173Y-95339057D01*
X173610199Y-95362325D01*
X173672003Y-95362325D01*
X173722003Y-95325998D01*
X173741101Y-95267219D01*
X173741101Y-94631454D01*
X173879329Y-94631454D01*
X173915656Y-94681454D01*
X173974435Y-94700552D01*
X174017292Y-94700552D01*
X174017292Y-95124361D01*
X174024415Y-95146284D01*
X174027849Y-95169082D01*
X174075468Y-95264321D01*
X174076026Y-95264887D01*
X174076157Y-95265674D01*
X174097642Y-95286835D01*
X174118836Y-95308354D01*
X174119623Y-95308484D01*
X174120190Y-95309043D01*
X174215427Y-95356662D01*
X174238225Y-95360095D01*
X174260149Y-95367219D01*
X174355387Y-95367219D01*
X174414166Y-95348121D01*
X174450493Y-95298121D01*
X174450493Y-95236317D01*
X174414166Y-95186317D01*
X174355387Y-95167219D01*
X174283756Y-95167219D01*
X174239446Y-95145064D01*
X174217292Y-95100754D01*
X174217292Y-94700552D01*
X174355387Y-94700552D01*
X174414166Y-94681454D01*
X174450493Y-94631454D01*
X174450758Y-94631454D01*
X174487085Y-94681454D01*
X174545864Y-94700552D01*
X174588721Y-94700552D01*
X174588721Y-95124361D01*
X174595844Y-95146284D01*
X174599278Y-95169082D01*
X174646897Y-95264321D01*
X174647455Y-95264887D01*
X174647586Y-95265674D01*
X174669071Y-95286835D01*
X174690265Y-95308354D01*
X174691052Y-95308484D01*
X174691619Y-95309043D01*
X174786856Y-95356662D01*
X174809654Y-95360095D01*
X174831578Y-95367219D01*
X174926816Y-95367219D01*
X174985595Y-95348121D01*
X175021922Y-95298121D01*
X175021922Y-95236317D01*
X174985595Y-95186317D01*
X174926816Y-95167219D01*
X174855185Y-95167219D01*
X174810875Y-95145064D01*
X174788721Y-95100754D01*
X174788721Y-95076742D01*
X175112531Y-95076742D01*
X175119654Y-95098665D01*
X175123088Y-95121463D01*
X175170707Y-95216701D01*
X175182080Y-95228248D01*
X175189439Y-95242690D01*
X175237057Y-95290310D01*
X175251500Y-95297669D01*
X175263048Y-95309043D01*
X175358285Y-95356662D01*
X175381083Y-95360095D01*
X175403007Y-95367219D01*
X175545864Y-95367219D01*
X175567787Y-95360095D01*
X175590585Y-95356662D01*
X175685823Y-95309043D01*
X175697371Y-95297668D01*
X175711813Y-95290310D01*
X175734904Y-95267219D01*
X176064912Y-95267219D01*
X176084010Y-95325998D01*
X176134010Y-95362325D01*
X176195814Y-95362325D01*
X176245814Y-95325998D01*
X176264912Y-95267219D01*
X176264912Y-94737211D01*
X176271766Y-94730356D01*
X176331376Y-94700552D01*
X176427019Y-94700552D01*
X176471328Y-94722707D01*
X176493483Y-94767016D01*
X176493483Y-95267219D01*
X176512581Y-95325998D01*
X176562581Y-95362325D01*
X176624385Y-95362325D01*
X176674385Y-95325998D01*
X176693483Y-95267219D01*
X176693483Y-94791028D01*
X176922055Y-94791028D01*
X176929178Y-94812951D01*
X176932612Y-94835749D01*
X176980231Y-94930987D01*
X176980789Y-94931553D01*
X176980920Y-94932340D01*
X177002422Y-94953517D01*
X177023600Y-94975020D01*
X177024386Y-94975150D01*
X177024953Y-94975709D01*
X177120190Y-95023328D01*
X177142988Y-95026761D01*
X177164912Y-95033885D01*
X177284162Y-95033885D01*
X177328471Y-95056040D01*
X177350626Y-95100349D01*
X177350626Y-95100754D01*
X177328471Y-95145063D01*
X177284162Y-95167219D01*
X177140900Y-95167219D01*
X177066776Y-95130157D01*
X177005662Y-95120952D01*
X176950809Y-95149428D01*
X176923170Y-95204707D01*
X176933301Y-95265674D01*
X176977334Y-95309043D01*
X177072571Y-95356662D01*
X177095369Y-95360095D01*
X177117293Y-95367219D01*
X177307769Y-95367219D01*
X177329692Y-95360095D01*
X177352490Y-95356662D01*
X177447728Y-95309043D01*
X177448294Y-95308484D01*
X177449082Y-95308354D01*
X177470275Y-95286835D01*
X177491761Y-95265674D01*
X177491891Y-95264887D01*
X177492450Y-95264321D01*
X177540069Y-95169082D01*
X177543502Y-95146284D01*
X177550626Y-95124361D01*
X177550626Y-95076742D01*
X177543502Y-95054818D01*
X177540069Y-95032020D01*
X177492450Y-94936783D01*
X177491891Y-94936216D01*
X177491761Y-94935430D01*
X177470258Y-94914252D01*
X177449081Y-94892750D01*
X177448294Y-94892619D01*
X177447728Y-94892061D01*
X177352490Y-94844442D01*
X177329692Y-94841008D01*
X177307769Y-94833885D01*
X177188519Y-94833885D01*
X177144210Y-94811730D01*
X177122055Y-94767420D01*
X177122055Y-94767016D01*
X177144210Y-94722706D01*
X177188519Y-94700552D01*
X177284162Y-94700552D01*
X177358285Y-94737614D01*
X177419400Y-94746819D01*
X177474252Y-94718343D01*
X177501892Y-94663064D01*
X177491761Y-94602097D01*
X177447728Y-94558728D01*
X177352490Y-94511109D01*
X177329692Y-94507675D01*
X177307769Y-94500552D01*
X177164912Y-94500552D01*
X177142988Y-94507675D01*
X177120190Y-94511109D01*
X177024953Y-94558728D01*
X177024386Y-94559286D01*
X177023600Y-94559417D01*
X177002422Y-94580919D01*
X176980920Y-94602097D01*
X176980789Y-94602883D01*
X176980231Y-94603450D01*
X176932612Y-94698688D01*
X176929178Y-94721485D01*
X176922055Y-94743409D01*
X176922055Y-94791028D01*
X176693483Y-94791028D01*
X176693483Y-94743409D01*
X176686359Y-94721485D01*
X176682926Y-94698687D01*
X176635307Y-94603450D01*
X176634748Y-94602883D01*
X176634618Y-94602097D01*
X176613115Y-94580919D01*
X176591938Y-94559417D01*
X176591151Y-94559286D01*
X176590585Y-94558728D01*
X176495347Y-94511109D01*
X176472549Y-94507675D01*
X176450626Y-94500552D01*
X176307769Y-94500552D01*
X176285845Y-94507675D01*
X176263047Y-94511109D01*
X176227838Y-94528713D01*
X176195814Y-94505446D01*
X176134010Y-94505446D01*
X176084010Y-94541773D01*
X176064912Y-94600552D01*
X176064912Y-95267219D01*
X175734904Y-95267219D01*
X175759432Y-95242690D01*
X175766789Y-95228249D01*
X175778164Y-95216701D01*
X175825783Y-95121464D01*
X175829216Y-95098665D01*
X175836340Y-95076742D01*
X175836340Y-94791028D01*
X175829216Y-94769104D01*
X175825783Y-94746306D01*
X175778164Y-94651069D01*
X175766789Y-94639520D01*
X175759431Y-94625079D01*
X175711813Y-94577460D01*
X175697370Y-94570101D01*
X175685823Y-94558728D01*
X175590585Y-94511109D01*
X175567787Y-94507675D01*
X175545864Y-94500552D01*
X175403007Y-94500552D01*
X175381083Y-94507675D01*
X175358285Y-94511109D01*
X175263048Y-94558728D01*
X175251499Y-94570102D01*
X175237058Y-94577461D01*
X175189439Y-94625079D01*
X175182080Y-94639521D01*
X175170707Y-94651069D01*
X175123088Y-94746307D01*
X175119654Y-94769104D01*
X175112531Y-94791028D01*
X175112531Y-95076742D01*
X174788721Y-95076742D01*
X174788721Y-94700552D01*
X174926816Y-94700552D01*
X174985595Y-94681454D01*
X175021922Y-94631454D01*
X175021922Y-94569650D01*
X174985595Y-94519650D01*
X174926816Y-94500552D01*
X174788721Y-94500552D01*
X174788721Y-94267219D01*
X174769623Y-94208440D01*
X174719623Y-94172113D01*
X174657819Y-94172113D01*
X174607819Y-94208440D01*
X174588721Y-94267219D01*
X174588721Y-94500552D01*
X174545864Y-94500552D01*
X174487085Y-94519650D01*
X174450758Y-94569650D01*
X174450758Y-94631454D01*
X174450493Y-94631454D01*
X174450493Y-94569650D01*
X174414166Y-94519650D01*
X174355387Y-94500552D01*
X174217292Y-94500552D01*
X174217292Y-94267219D01*
X174198194Y-94208440D01*
X174148194Y-94172113D01*
X174086390Y-94172113D01*
X174036390Y-94208440D01*
X174017292Y-94267219D01*
X174017292Y-94500552D01*
X173974435Y-94500552D01*
X173915656Y-94519650D01*
X173879329Y-94569650D01*
X173879329Y-94631454D01*
X173741101Y-94631454D01*
X173741101Y-94600552D01*
X173722003Y-94541773D01*
X173672003Y-94505446D01*
X173610199Y-94505446D01*
X173560199Y-94541773D01*
X173541101Y-94600552D01*
X173541101Y-95130559D01*
X173534246Y-95137413D01*
X173474637Y-95167219D01*
X173378994Y-95167219D01*
X173334684Y-95145064D01*
X173312530Y-95100754D01*
X173312530Y-94600552D01*
X173293432Y-94541773D01*
X173243432Y-94505446D01*
X173181628Y-94505446D01*
X173131628Y-94541773D01*
X173112530Y-94600552D01*
X173112530Y-95124361D01*
X172871952Y-95124361D01*
X172873401Y-95121464D01*
X172876834Y-95098665D01*
X172883958Y-95076742D01*
X172883958Y-94933885D01*
X172876834Y-94911961D01*
X172873401Y-94889163D01*
X172825782Y-94793926D01*
X172814407Y-94782377D01*
X172807049Y-94767936D01*
X172759431Y-94720317D01*
X172758479Y-94719832D01*
X172759430Y-94718882D01*
X172766788Y-94704440D01*
X172778163Y-94692892D01*
X172825782Y-94597655D01*
X172829215Y-94574856D01*
X172836339Y-94552933D01*
X172836339Y-94457695D01*
X172829215Y-94435771D01*
X172825782Y-94412973D01*
X172778163Y-94317736D01*
X172766788Y-94306187D01*
X172759430Y-94291746D01*
X172711812Y-94244127D01*
X172697369Y-94236768D01*
X172685822Y-94225395D01*
X172590584Y-94177776D01*
X172567786Y-94174342D01*
X172545863Y-94167219D01*
X172212530Y-94167219D01*
X172197467Y-94172113D01*
X172181628Y-94172113D01*
X172168814Y-94181422D01*
X172153751Y-94186317D01*
X172144441Y-94199130D01*
X172131628Y-94208440D01*
X172126733Y-94223503D01*
X172117424Y-94236317D01*
X172117424Y-94252156D01*
X172112530Y-94267219D01*
X172112530Y-95267219D01*
X171074434Y-95267219D01*
X171074434Y-94743409D01*
X171067310Y-94721485D01*
X171063877Y-94698687D01*
X171016258Y-94603450D01*
X171015699Y-94602883D01*
X171015569Y-94602097D01*
X170994066Y-94580919D01*
X170972889Y-94559417D01*
X170972102Y-94559286D01*
X170971536Y-94558728D01*
X170876298Y-94511109D01*
X170853500Y-94507675D01*
X170831577Y-94500552D01*
X170688720Y-94500552D01*
X170666796Y-94507675D01*
X170643998Y-94511109D01*
X170608789Y-94528713D01*
X170576765Y-94505446D01*
X170514961Y-94505446D01*
X170464961Y-94541773D01*
X170445863Y-94600552D01*
X170445863Y-95267219D01*
X170169672Y-95267219D01*
X170169672Y-94600552D01*
X170150574Y-94541773D01*
X170100574Y-94505446D01*
X170038770Y-94505446D01*
X170026156Y-94514609D01*
X170019155Y-94511109D01*
X169996357Y-94507675D01*
X169974434Y-94500552D01*
X169783958Y-94500552D01*
X169762034Y-94507675D01*
X169739236Y-94511109D01*
X169643999Y-94558728D01*
X169632450Y-94570102D01*
X169618009Y-94577461D01*
X169570390Y-94625079D01*
X169563031Y-94639521D01*
X169551658Y-94651069D01*
X169504039Y-94746307D01*
X169500605Y-94769104D01*
X169493482Y-94791028D01*
X169493482Y-95076742D01*
X169264911Y-95076742D01*
X169264911Y-94600552D01*
X169245813Y-94541773D01*
X169195813Y-94505446D01*
X169134009Y-94505446D01*
X169084009Y-94541773D01*
X169064911Y-94600552D01*
X169064911Y-95267219D01*
X168734903Y-95267219D01*
X168759431Y-95242690D01*
X168766788Y-95228249D01*
X168778163Y-95216701D01*
X168825782Y-95121464D01*
X168829215Y-95098665D01*
X168836339Y-95076742D01*
X168836339Y-94981504D01*
X168829215Y-94959580D01*
X168825782Y-94936782D01*
X168778163Y-94841545D01*
X168766788Y-94829996D01*
X168759430Y-94815555D01*
X168711812Y-94767936D01*
X168697369Y-94760577D01*
X168685822Y-94749204D01*
X168590584Y-94701585D01*
X168579562Y-94699924D01*
X168570116Y-94694014D01*
X168390291Y-94649057D01*
X168319384Y-94613604D01*
X168294716Y-94588935D01*
X168264911Y-94529325D01*
X168264911Y-94481302D01*
X168294716Y-94421692D01*
X168319384Y-94397023D01*
X168378994Y-94367219D01*
X168577255Y-94367219D01*
X168704716Y-94409706D01*
X168766518Y-94410176D01*
X168816792Y-94374229D01*
X168831375Y-94330481D01*
X169018523Y-94330481D01*
X169025713Y-94344592D01*
X169028191Y-94360237D01*
X169039390Y-94371436D01*
X169046581Y-94385549D01*
X169094200Y-94433167D01*
X169108311Y-94440357D01*
X169119512Y-94451558D01*
X169127481Y-94452820D01*
X169134009Y-94457563D01*
X169142078Y-94457563D01*
X169149267Y-94461226D01*
X169164910Y-94458748D01*
X169180554Y-94461226D01*
X169187743Y-94457563D01*
X169195813Y-94457563D01*
X169202341Y-94452820D01*
X169210310Y-94451558D01*
X169221509Y-94440358D01*
X169235622Y-94433168D01*
X169283240Y-94385549D01*
X169290430Y-94371437D01*
X169301631Y-94360237D01*
X169304108Y-94344593D01*
X169311299Y-94330482D01*
X169308821Y-94314838D01*
X169311299Y-94299194D01*
X169304108Y-94285082D01*
X169301631Y-94269439D01*
X169290430Y-94258238D01*
X169283240Y-94244127D01*
X169235622Y-94196508D01*
X169221509Y-94189317D01*
X169210310Y-94178118D01*
X169202341Y-94176855D01*
X169195813Y-94172113D01*
X169187743Y-94172113D01*
X169180554Y-94168450D01*
X169164910Y-94170927D01*
X169149267Y-94168450D01*
X169142078Y-94172113D01*
X169134009Y-94172113D01*
X169127481Y-94176855D01*
X169119512Y-94178118D01*
X169108311Y-94189318D01*
X169094200Y-94196509D01*
X169046581Y-94244127D01*
X169039390Y-94258239D01*
X169028191Y-94269439D01*
X169025713Y-94285083D01*
X169018523Y-94299195D01*
X169021000Y-94314838D01*
X169018523Y-94330481D01*
X168831375Y-94330481D01*
X168836336Y-94315597D01*
X168817685Y-94256675D01*
X168767961Y-94219970D01*
X168625105Y-94172351D01*
X168608897Y-94172227D01*
X168593482Y-94167219D01*
X168355387Y-94167219D01*
X168333463Y-94174342D01*
X168310665Y-94177776D01*
X168215428Y-94225395D01*
X168203879Y-94236769D01*
X168189438Y-94244128D01*
X168141819Y-94291746D01*
X168134460Y-94306188D01*
X168123087Y-94317736D01*
X168075468Y-94412974D01*
X168072034Y-94435771D01*
X168064911Y-94457695D01*
X168064911Y-94552933D01*
X167836339Y-94552933D01*
X167836339Y-94267219D01*
X167833310Y-94257896D01*
X167834508Y-94248166D01*
X167823963Y-94229129D01*
X167817241Y-94208440D01*
X167809311Y-94202678D01*
X167804561Y-94194103D01*
X167784842Y-94184900D01*
X167767241Y-94172113D01*
X167757439Y-94172113D01*
X167748555Y-94167967D01*
X167727193Y-94172113D01*
X167705437Y-94172113D01*
X167697507Y-94177874D01*
X167687884Y-94179742D01*
X167673040Y-94195650D01*
X167655437Y-94208440D01*
X167652407Y-94217763D01*
X167645721Y-94224930D01*
X167403005Y-94745033D01*
X167160291Y-94224930D01*
X167153604Y-94217763D01*
X167150575Y-94208440D01*
X167132971Y-94195650D01*
X167118128Y-94179742D01*
X167108505Y-94177874D01*
X167100575Y-94172113D01*
X167078816Y-94172113D01*
X167057457Y-94167968D01*
X167048575Y-94172113D01*
X167038771Y-94172113D01*
X167021166Y-94184903D01*
X167001451Y-94194104D01*
X166996701Y-94202678D01*
X166988771Y-94208440D01*
X166982047Y-94229132D01*
X166971504Y-94248167D01*
X166972701Y-94257897D01*
X166969673Y-94267219D01*
X166969673Y-95267219D01*
X166826816Y-95267219D01*
X166826816Y-94024362D01*
X177693483Y-94024362D01*
X177693483Y-95843409D01*
G37*
D11*
G36*
X165934450Y-119108152D02*
G01*
X155118922Y-119108152D01*
X155118922Y-117318866D01*
X155404636Y-117318866D01*
X155406169Y-117323079D01*
X155405128Y-117327440D01*
X155412554Y-117352407D01*
X155507792Y-117542883D01*
X155508981Y-117544009D01*
X155521841Y-117562375D01*
X155617079Y-117657613D01*
X155618563Y-117658305D01*
X155636571Y-117671662D01*
X155827047Y-117766901D01*
X155830575Y-117767307D01*
X155842398Y-117772580D01*
X156215365Y-117865821D01*
X156387590Y-117951934D01*
X156465616Y-118029960D01*
X156547493Y-118193714D01*
X156547493Y-118348780D01*
X156465615Y-118512534D01*
X156387589Y-118590561D01*
X156223836Y-118672438D01*
X155777520Y-118672438D01*
X155503353Y-118581049D01*
X155452069Y-118582450D01*
X155413684Y-118616487D01*
X155406159Y-118667236D01*
X155433014Y-118710948D01*
X155455919Y-118723351D01*
X155741633Y-118818589D01*
X155743267Y-118818544D01*
X155765350Y-118822438D01*
X156241541Y-118822438D01*
X156245754Y-118820904D01*
X156250115Y-118821946D01*
X156275082Y-118814520D01*
X156409246Y-118747438D01*
X157404636Y-118747438D01*
X157411299Y-118765746D01*
X157414684Y-118784938D01*
X157419868Y-118789288D01*
X157422183Y-118795647D01*
X157439056Y-118805389D01*
X157453984Y-118817915D01*
X157463726Y-118819632D01*
X157466612Y-118821299D01*
X157469894Y-118820720D01*
X157479636Y-118822438D01*
X158432017Y-118822438D01*
X158480226Y-118804891D01*
X158505878Y-118760462D01*
X158503581Y-118747438D01*
X159214160Y-118747438D01*
X159220823Y-118765746D01*
X159224208Y-118784938D01*
X159229392Y-118789288D01*
X159231707Y-118795647D01*
X159248580Y-118805389D01*
X159263508Y-118817915D01*
X159273250Y-118819632D01*
X159276136Y-118821299D01*
X159279418Y-118820720D01*
X159289160Y-118822438D01*
X160241541Y-118822438D01*
X160289750Y-118804891D01*
X160315402Y-118760462D01*
X160313105Y-118747438D01*
X160833208Y-118747438D01*
X160839871Y-118765746D01*
X160843256Y-118784938D01*
X160848440Y-118789288D01*
X160850755Y-118795647D01*
X160867628Y-118805389D01*
X160882556Y-118817915D01*
X160892298Y-118819632D01*
X160895184Y-118821299D01*
X160898466Y-118820720D01*
X160908208Y-118822438D01*
X161860589Y-118822438D01*
X161908798Y-118804891D01*
X161934450Y-118760462D01*
X161925541Y-118709938D01*
X161886241Y-118676961D01*
X161860589Y-118672438D01*
X160983208Y-118672438D01*
X160983208Y-117890295D01*
X162547494Y-117890295D01*
X162548679Y-117893552D01*
X162549733Y-117908485D01*
X162644971Y-118289437D01*
X162646959Y-118292381D01*
X162650650Y-118304788D01*
X162745888Y-118495264D01*
X162747074Y-118496387D01*
X162759937Y-118514756D01*
X162950413Y-118705233D01*
X162954476Y-118707127D01*
X162956824Y-118710949D01*
X162979729Y-118723351D01*
X163265444Y-118818589D01*
X163267078Y-118818544D01*
X163289161Y-118822438D01*
X163479637Y-118822438D01*
X163481175Y-118821877D01*
X163503354Y-118818589D01*
X163789068Y-118723351D01*
X163792580Y-118720563D01*
X163797047Y-118720173D01*
X163818384Y-118705233D01*
X163913623Y-118609993D01*
X163935304Y-118563497D01*
X163922026Y-118513942D01*
X163880000Y-118484516D01*
X163828893Y-118488987D01*
X163807556Y-118503928D01*
X163724836Y-118586648D01*
X163467467Y-118672438D01*
X163301331Y-118672438D01*
X163043960Y-118586648D01*
X162874609Y-118417296D01*
X162788496Y-118245071D01*
X162697494Y-117881061D01*
X162697494Y-117613814D01*
X162788496Y-117249804D01*
X162874609Y-117077579D01*
X163043959Y-116908228D01*
X163301331Y-116822438D01*
X163467467Y-116822438D01*
X163724837Y-116908228D01*
X163807556Y-116990947D01*
X163854053Y-117012628D01*
X163903607Y-116999351D01*
X163933034Y-116957326D01*
X163928563Y-116906218D01*
X163913622Y-116884881D01*
X163818384Y-116789643D01*
X163814319Y-116787747D01*
X163811973Y-116783928D01*
X163789068Y-116771525D01*
X163677735Y-116734414D01*
X164358157Y-116734414D01*
X164367066Y-116784938D01*
X164406366Y-116817915D01*
X164432018Y-116822438D01*
X164928446Y-116822438D01*
X164928446Y-118747438D01*
X164945993Y-118795647D01*
X164990422Y-118821299D01*
X165040946Y-118812390D01*
X165073923Y-118773090D01*
X165078446Y-118747438D01*
X165078446Y-116822438D01*
X165574875Y-116822438D01*
X165623084Y-116804891D01*
X165648736Y-116760462D01*
X165639827Y-116709938D01*
X165600527Y-116676961D01*
X165574875Y-116672438D01*
X164432018Y-116672438D01*
X164383809Y-116689985D01*
X164358157Y-116734414D01*
X163677735Y-116734414D01*
X163503354Y-116676287D01*
X163501719Y-116676331D01*
X163479637Y-116672438D01*
X163289161Y-116672438D01*
X163287622Y-116672998D01*
X163265444Y-116676287D01*
X162979729Y-116771525D01*
X162976218Y-116774311D01*
X162971750Y-116774702D01*
X162950413Y-116789643D01*
X162759937Y-116980119D01*
X162759244Y-116981603D01*
X162745888Y-116999611D01*
X162650650Y-117190087D01*
X162650243Y-117193615D01*
X162644971Y-117205438D01*
X162549733Y-117586390D01*
X162550093Y-117589838D01*
X162547494Y-117604580D01*
X162547494Y-117890295D01*
X160983208Y-117890295D01*
X160983208Y-117774819D01*
X161574875Y-117774819D01*
X161623084Y-117757272D01*
X161648736Y-117712843D01*
X161639827Y-117662319D01*
X161600527Y-117629342D01*
X161574875Y-117624819D01*
X160983208Y-117624819D01*
X160983208Y-116822438D01*
X161860589Y-116822438D01*
X161908798Y-116804891D01*
X161934450Y-116760462D01*
X161925541Y-116709938D01*
X161886241Y-116676961D01*
X161860589Y-116672438D01*
X160908208Y-116672438D01*
X160889899Y-116679101D01*
X160870708Y-116682486D01*
X160866357Y-116687670D01*
X160859999Y-116689985D01*
X160850256Y-116706858D01*
X160837731Y-116721786D01*
X160836013Y-116731528D01*
X160834347Y-116734414D01*
X160834925Y-116737696D01*
X160833208Y-116747438D01*
X160833208Y-118747438D01*
X160313105Y-118747438D01*
X160306493Y-118709938D01*
X160267193Y-118676961D01*
X160241541Y-118672438D01*
X159364160Y-118672438D01*
X159364160Y-116747438D01*
X159346613Y-116699229D01*
X159302184Y-116673577D01*
X159251660Y-116682486D01*
X159218683Y-116721786D01*
X159214160Y-116747438D01*
X159214160Y-118747438D01*
X158503581Y-118747438D01*
X158496969Y-118709938D01*
X158457669Y-118676961D01*
X158432017Y-118672438D01*
X157554636Y-118672438D01*
X157554636Y-117774819D01*
X158146303Y-117774819D01*
X158194512Y-117757272D01*
X158220164Y-117712843D01*
X158211255Y-117662319D01*
X158171955Y-117629342D01*
X158146303Y-117624819D01*
X157554636Y-117624819D01*
X157554636Y-116822438D01*
X158432017Y-116822438D01*
X158480226Y-116804891D01*
X158505878Y-116760462D01*
X158496969Y-116709938D01*
X158457669Y-116676961D01*
X158432017Y-116672438D01*
X157479636Y-116672438D01*
X157461327Y-116679101D01*
X157442136Y-116682486D01*
X157437785Y-116687670D01*
X157431427Y-116689985D01*
X157421684Y-116706858D01*
X157409159Y-116721786D01*
X157407441Y-116731528D01*
X157405775Y-116734414D01*
X157406353Y-116737696D01*
X157404636Y-116747438D01*
X157404636Y-118747438D01*
X156409246Y-118747438D01*
X156465558Y-118719282D01*
X156466684Y-118718092D01*
X156485050Y-118705233D01*
X156580289Y-118609993D01*
X156580980Y-118608510D01*
X156594337Y-118590502D01*
X156689575Y-118400026D01*
X156690087Y-118395572D01*
X156692970Y-118392137D01*
X156697493Y-118366485D01*
X156697493Y-118176009D01*
X156695959Y-118171797D01*
X156697002Y-118167435D01*
X156689575Y-118142468D01*
X156594337Y-117951992D01*
X156593150Y-117950868D01*
X156580288Y-117932500D01*
X156485050Y-117837262D01*
X156483565Y-117836569D01*
X156465558Y-117823213D01*
X156275082Y-117727975D01*
X156271553Y-117727568D01*
X156259731Y-117722296D01*
X155886764Y-117629054D01*
X155714539Y-117542941D01*
X155636513Y-117464915D01*
X155554636Y-117301161D01*
X155554636Y-117146095D01*
X155636513Y-116982341D01*
X155714539Y-116904315D01*
X155878293Y-116822438D01*
X156324609Y-116822438D01*
X156598776Y-116913827D01*
X156650060Y-116912426D01*
X156688445Y-116878389D01*
X156695970Y-116827640D01*
X156669115Y-116783928D01*
X156646210Y-116771525D01*
X156360496Y-116676287D01*
X156358861Y-116676331D01*
X156336779Y-116672438D01*
X155860588Y-116672438D01*
X155856376Y-116673971D01*
X155852014Y-116672929D01*
X155827047Y-116680356D01*
X155636571Y-116775594D01*
X155635447Y-116776780D01*
X155617079Y-116789643D01*
X155521841Y-116884881D01*
X155521148Y-116886365D01*
X155507792Y-116904373D01*
X155412554Y-117094849D01*
X155412041Y-117099302D01*
X155409159Y-117102738D01*
X155404636Y-117128390D01*
X155404636Y-117318866D01*
X155118922Y-117318866D01*
X155118922Y-116386724D01*
X165934450Y-116386724D01*
X165934450Y-119108152D01*
G37*
G36*
X174724837Y-117860609D02*
G01*
X174798950Y-117934722D01*
X174880827Y-118098476D01*
X174880827Y-118348780D01*
X174798949Y-118512534D01*
X174720923Y-118590561D01*
X174557170Y-118672438D01*
X173887970Y-118672438D01*
X173887970Y-117774819D01*
X174467467Y-117774819D01*
X174724837Y-117860609D01*
G37*
G36*
X174625686Y-116904315D02*
G01*
X174703712Y-116982341D01*
X174785589Y-117146095D01*
X174785589Y-117301161D01*
X174703712Y-117464915D01*
X174625685Y-117542941D01*
X174461932Y-117624819D01*
X173887970Y-117624819D01*
X173887970Y-116822438D01*
X174461932Y-116822438D01*
X174625686Y-116904315D01*
G37*
G36*
X172851770Y-118101009D02*
G01*
X172107503Y-118101009D01*
X172479636Y-116984608D01*
X172851770Y-118101009D01*
G37*
G36*
X175316541Y-119108152D02*
G01*
X169929585Y-119108152D01*
X169929585Y-116734414D01*
X170215299Y-116734414D01*
X170224208Y-116784938D01*
X170263508Y-116817915D01*
X170289160Y-116822438D01*
X170785588Y-116822438D01*
X170785588Y-118747438D01*
X170803135Y-118795647D01*
X170847564Y-118821299D01*
X170898088Y-118812390D01*
X170931065Y-118773090D01*
X170935588Y-118747438D01*
X170935588Y-118723721D01*
X171741819Y-118723721D01*
X171743220Y-118775005D01*
X171777257Y-118813390D01*
X171828006Y-118820915D01*
X171871718Y-118794060D01*
X171884121Y-118771155D01*
X172057503Y-118251009D01*
X172901770Y-118251009D01*
X173075152Y-118771155D01*
X173107043Y-118811341D01*
X173157304Y-118821627D01*
X173202418Y-118797198D01*
X173221275Y-118749487D01*
X173220971Y-118747438D01*
X173737970Y-118747438D01*
X173744633Y-118765746D01*
X173748018Y-118784938D01*
X173753202Y-118789288D01*
X173755517Y-118795647D01*
X173772390Y-118805389D01*
X173787318Y-118817915D01*
X173797060Y-118819632D01*
X173799946Y-118821299D01*
X173803228Y-118820720D01*
X173812970Y-118822438D01*
X174574875Y-118822438D01*
X174579088Y-118820904D01*
X174583449Y-118821946D01*
X174608416Y-118814520D01*
X174798892Y-118719282D01*
X174800018Y-118718092D01*
X174818384Y-118705233D01*
X174913623Y-118609993D01*
X174914314Y-118608510D01*
X174927671Y-118590502D01*
X175022909Y-118400026D01*
X175023421Y-118395572D01*
X175026304Y-118392137D01*
X175030827Y-118366485D01*
X175030827Y-118080771D01*
X175029293Y-118076559D01*
X175030336Y-118072197D01*
X175022909Y-118047230D01*
X174927671Y-117856754D01*
X174926484Y-117855630D01*
X174913622Y-117837262D01*
X174818384Y-117742024D01*
X174814319Y-117740128D01*
X174811973Y-117736309D01*
X174789068Y-117723906D01*
X174675126Y-117685925D01*
X174703654Y-117671662D01*
X174704779Y-117670472D01*
X174723146Y-117657613D01*
X174818384Y-117562375D01*
X174819074Y-117560893D01*
X174832433Y-117542883D01*
X174927671Y-117352407D01*
X174928183Y-117347953D01*
X174931066Y-117344518D01*
X174935589Y-117318866D01*
X174935589Y-117128390D01*
X174934055Y-117124178D01*
X174935098Y-117119816D01*
X174927671Y-117094849D01*
X174832433Y-116904373D01*
X174831246Y-116903249D01*
X174818384Y-116884881D01*
X174723146Y-116789643D01*
X174721661Y-116788950D01*
X174703654Y-116775594D01*
X174513178Y-116680356D01*
X174508724Y-116679843D01*
X174505289Y-116676961D01*
X174479637Y-116672438D01*
X173812970Y-116672438D01*
X173794661Y-116679101D01*
X173775470Y-116682486D01*
X173771119Y-116687670D01*
X173764761Y-116689985D01*
X173755018Y-116706858D01*
X173742493Y-116721786D01*
X173740775Y-116731528D01*
X173739109Y-116734414D01*
X173739687Y-116737696D01*
X173737970Y-116747438D01*
X173737970Y-118747438D01*
X173220971Y-118747438D01*
X173217454Y-118723721D01*
X172550787Y-116723721D01*
X172549444Y-116722029D01*
X172549386Y-116719871D01*
X172533636Y-116702109D01*
X172518896Y-116683535D01*
X172516782Y-116683102D01*
X172515349Y-116681486D01*
X172491870Y-116678004D01*
X172468635Y-116673249D01*
X172466736Y-116674276D01*
X172464600Y-116673960D01*
X172444378Y-116686383D01*
X172423521Y-116697678D01*
X172422727Y-116699685D01*
X172420888Y-116700816D01*
X172408485Y-116723721D01*
X171741819Y-118723721D01*
X170935588Y-118723721D01*
X170935588Y-116822438D01*
X171432017Y-116822438D01*
X171480226Y-116804891D01*
X171505878Y-116760462D01*
X171496969Y-116709938D01*
X171457669Y-116676961D01*
X171432017Y-116672438D01*
X170289160Y-116672438D01*
X170240951Y-116689985D01*
X170215299Y-116734414D01*
X169929585Y-116734414D01*
X169929585Y-116386724D01*
X175316541Y-116386724D01*
X175316541Y-119108152D01*
G37*
X170008207Y-97169819D02*
X169674874Y-96693628D01*
X169436779Y-97169819D02*
X169436779Y-96169819D01*
X169436779Y-96169819D02*
X169817731Y-96169819D01*
X169817731Y-96169819D02*
X169912969Y-96217438D01*
X169912969Y-96217438D02*
X169960588Y-96265057D01*
X169960588Y-96265057D02*
X170008207Y-96360295D01*
X170008207Y-96360295D02*
X170008207Y-96503152D01*
X170008207Y-96503152D02*
X169960588Y-96598390D01*
X169960588Y-96598390D02*
X169912969Y-96646009D01*
X169912969Y-96646009D02*
X169817731Y-96693628D01*
X169817731Y-96693628D02*
X169436779Y-96693628D01*
X170436779Y-96646009D02*
X170770112Y-96646009D01*
X170912969Y-97169819D02*
X170436779Y-97169819D01*
X170436779Y-97169819D02*
X170436779Y-96169819D01*
X170436779Y-96169819D02*
X170912969Y-96169819D01*
X171198684Y-96169819D02*
X171532017Y-97169819D01*
X171532017Y-97169819D02*
X171865350Y-96169819D01*
X172912970Y-96265057D02*
X172960589Y-96217438D01*
X172960589Y-96217438D02*
X173055827Y-96169819D01*
X173055827Y-96169819D02*
X173293922Y-96169819D01*
X173293922Y-96169819D02*
X173389160Y-96217438D01*
X173389160Y-96217438D02*
X173436779Y-96265057D01*
X173436779Y-96265057D02*
X173484398Y-96360295D01*
X173484398Y-96360295D02*
X173484398Y-96455533D01*
X173484398Y-96455533D02*
X173436779Y-96598390D01*
X173436779Y-96598390D02*
X172865351Y-97169819D01*
X172865351Y-97169819D02*
X173484398Y-97169819D01*
X173865351Y-96884104D02*
X174341541Y-96884104D01*
X173770113Y-97169819D02*
X174103446Y-96169819D01*
X174103446Y-96169819D02*
X174436779Y-97169819D01*
G36*
X114676973Y-119108152D02*
G01*
X106622212Y-119108152D01*
X106622212Y-118747438D01*
X106907926Y-118747438D01*
X106925473Y-118795647D01*
X106969902Y-118821299D01*
X107020426Y-118812390D01*
X107053403Y-118773090D01*
X107057926Y-118747438D01*
X107057926Y-117085505D01*
X107581629Y-118207726D01*
X107595395Y-118221484D01*
X107606556Y-118237433D01*
X107613115Y-118239192D01*
X107617917Y-118243991D01*
X107637304Y-118245681D01*
X107656108Y-118250726D01*
X107662262Y-118247858D01*
X107669026Y-118248448D01*
X107684966Y-118237279D01*
X107702610Y-118229058D01*
X107708309Y-118220923D01*
X107711042Y-118219009D01*
X107711901Y-118215796D01*
X107717557Y-118207725D01*
X108241259Y-117085506D01*
X108241259Y-118747438D01*
X108258806Y-118795647D01*
X108303235Y-118821299D01*
X108353759Y-118812390D01*
X108386736Y-118773090D01*
X108391259Y-118747438D01*
X109193640Y-118747438D01*
X109200303Y-118765746D01*
X109203688Y-118784938D01*
X109208872Y-118789288D01*
X109211187Y-118795647D01*
X109228060Y-118805389D01*
X109242988Y-118817915D01*
X109252730Y-118819632D01*
X109255616Y-118821299D01*
X109258898Y-118820720D01*
X109268640Y-118822438D01*
X110221021Y-118822438D01*
X110269230Y-118804891D01*
X110294882Y-118760462D01*
X110292585Y-118747438D01*
X111003164Y-118747438D01*
X111020711Y-118795647D01*
X111065140Y-118821299D01*
X111115664Y-118812390D01*
X111148641Y-118773090D01*
X111153164Y-118747438D01*
X111153164Y-117029854D01*
X112155903Y-118784648D01*
X112161195Y-118789129D01*
X112163568Y-118795647D01*
X112180307Y-118805311D01*
X112195056Y-118817800D01*
X112201990Y-118817830D01*
X112207997Y-118821299D01*
X112227030Y-118817942D01*
X112246358Y-118818029D01*
X112251691Y-118813594D01*
X112258521Y-118812390D01*
X112270945Y-118797583D01*
X112285805Y-118785227D01*
X112287039Y-118778403D01*
X112291498Y-118773090D01*
X112296021Y-118747438D01*
X112296021Y-118366485D01*
X113098402Y-118366485D01*
X113099935Y-118370698D01*
X113098894Y-118375059D01*
X113106320Y-118400026D01*
X113201558Y-118590502D01*
X113202744Y-118591625D01*
X113215607Y-118609994D01*
X113310845Y-118705233D01*
X113312327Y-118705924D01*
X113330337Y-118719282D01*
X113520813Y-118814520D01*
X113525266Y-118815032D01*
X113528702Y-118817915D01*
X113554354Y-118822438D01*
X113935307Y-118822438D01*
X113939520Y-118820904D01*
X113943881Y-118821946D01*
X113968848Y-118814520D01*
X114159324Y-118719282D01*
X114160450Y-118718092D01*
X114178816Y-118705233D01*
X114274055Y-118609993D01*
X114274746Y-118608510D01*
X114288103Y-118590502D01*
X114383341Y-118400026D01*
X114383853Y-118395572D01*
X114386736Y-118392137D01*
X114391259Y-118366485D01*
X114391259Y-116747438D01*
X114373712Y-116699229D01*
X114329283Y-116673577D01*
X114278759Y-116682486D01*
X114245782Y-116721786D01*
X114241259Y-116747438D01*
X114241259Y-118348780D01*
X114159381Y-118512534D01*
X114081355Y-118590561D01*
X113917602Y-118672438D01*
X113572059Y-118672438D01*
X113408305Y-118590561D01*
X113330279Y-118512534D01*
X113248402Y-118348780D01*
X113248402Y-116747438D01*
X113230855Y-116699229D01*
X113186426Y-116673577D01*
X113135902Y-116682486D01*
X113102925Y-116721786D01*
X113098402Y-116747438D01*
X113098402Y-118366485D01*
X112296021Y-118366485D01*
X112296021Y-116747438D01*
X112278474Y-116699229D01*
X112234045Y-116673577D01*
X112183521Y-116682486D01*
X112150544Y-116721786D01*
X112146021Y-116747438D01*
X112146021Y-118465020D01*
X111143282Y-116710228D01*
X111137989Y-116705746D01*
X111135617Y-116699229D01*
X111118877Y-116689564D01*
X111104129Y-116677076D01*
X111097194Y-116677045D01*
X111091188Y-116673577D01*
X111072154Y-116676933D01*
X111052827Y-116676847D01*
X111047493Y-116681281D01*
X111040664Y-116682486D01*
X111028239Y-116697292D01*
X111013380Y-116709649D01*
X111012145Y-116716472D01*
X111007687Y-116721786D01*
X111003164Y-116747438D01*
X111003164Y-118747438D01*
X110292585Y-118747438D01*
X110285973Y-118709938D01*
X110246673Y-118676961D01*
X110221021Y-118672438D01*
X109343640Y-118672438D01*
X109343640Y-117774819D01*
X109935307Y-117774819D01*
X109983516Y-117757272D01*
X110009168Y-117712843D01*
X110000259Y-117662319D01*
X109960959Y-117629342D01*
X109935307Y-117624819D01*
X109343640Y-117624819D01*
X109343640Y-116822438D01*
X110221021Y-116822438D01*
X110269230Y-116804891D01*
X110294882Y-116760462D01*
X110285973Y-116709938D01*
X110246673Y-116676961D01*
X110221021Y-116672438D01*
X109268640Y-116672438D01*
X109250331Y-116679101D01*
X109231140Y-116682486D01*
X109226789Y-116687670D01*
X109220431Y-116689985D01*
X109210688Y-116706858D01*
X109198163Y-116721786D01*
X109196445Y-116731528D01*
X109194779Y-116734414D01*
X109195357Y-116737696D01*
X109193640Y-116747438D01*
X109193640Y-118747438D01*
X108391259Y-118747438D01*
X108391259Y-116747438D01*
X108387833Y-116738025D01*
X108388709Y-116728048D01*
X108379315Y-116714623D01*
X108373712Y-116699229D01*
X108365039Y-116694221D01*
X108359296Y-116686014D01*
X108343472Y-116681769D01*
X108329283Y-116673577D01*
X108319416Y-116675316D01*
X108309744Y-116672722D01*
X108294894Y-116679640D01*
X108278759Y-116682486D01*
X108272320Y-116690158D01*
X108263242Y-116694389D01*
X108248295Y-116715722D01*
X107649592Y-117998655D01*
X107050890Y-116715722D01*
X107043804Y-116708641D01*
X107040379Y-116699229D01*
X107026189Y-116691036D01*
X107014602Y-116679456D01*
X107004625Y-116678585D01*
X106995950Y-116673577D01*
X106979814Y-116676422D01*
X106963493Y-116674999D01*
X106955289Y-116680746D01*
X106945426Y-116682486D01*
X106934894Y-116695036D01*
X106921477Y-116704438D01*
X106918887Y-116714112D01*
X106912449Y-116721786D01*
X106907926Y-116747438D01*
X106907926Y-118747438D01*
X106622212Y-118747438D01*
X106622212Y-116386724D01*
X114676973Y-116386724D01*
X114676973Y-119108152D01*
G37*
G36*
X140459112Y-125108152D02*
G01*
X132118922Y-125108152D01*
X132118922Y-123318866D01*
X132404636Y-123318866D01*
X132406169Y-123323079D01*
X132405128Y-123327440D01*
X132412554Y-123352407D01*
X132507792Y-123542883D01*
X132508981Y-123544009D01*
X132521841Y-123562375D01*
X132617079Y-123657613D01*
X132618563Y-123658305D01*
X132636571Y-123671662D01*
X132827047Y-123766901D01*
X132830575Y-123767307D01*
X132842398Y-123772580D01*
X133215365Y-123865821D01*
X133387590Y-123951934D01*
X133465616Y-124029960D01*
X133547493Y-124193714D01*
X133547493Y-124348780D01*
X133465615Y-124512534D01*
X133387589Y-124590561D01*
X133223836Y-124672438D01*
X132777520Y-124672438D01*
X132503353Y-124581049D01*
X132452069Y-124582450D01*
X132413684Y-124616487D01*
X132406159Y-124667236D01*
X132433014Y-124710948D01*
X132455919Y-124723351D01*
X132741633Y-124818589D01*
X132743267Y-124818544D01*
X132765350Y-124822438D01*
X133241541Y-124822438D01*
X133245754Y-124820904D01*
X133250115Y-124821946D01*
X133275082Y-124814520D01*
X133465558Y-124719282D01*
X133466684Y-124718092D01*
X133485050Y-124705233D01*
X133580289Y-124609993D01*
X133580980Y-124608510D01*
X133594337Y-124590502D01*
X133689575Y-124400026D01*
X133690087Y-124395572D01*
X133692970Y-124392137D01*
X133697493Y-124366485D01*
X133697493Y-124176009D01*
X133695959Y-124171797D01*
X133697002Y-124167435D01*
X133689575Y-124142468D01*
X133594337Y-123951992D01*
X133593150Y-123950868D01*
X133580288Y-123932500D01*
X133485050Y-123837262D01*
X133483565Y-123836569D01*
X133465558Y-123823213D01*
X133275082Y-123727975D01*
X133271553Y-123727568D01*
X133259731Y-123722296D01*
X132886764Y-123629054D01*
X132714539Y-123542941D01*
X132636513Y-123464915D01*
X132554636Y-123301161D01*
X132554636Y-123146095D01*
X132636513Y-122982341D01*
X132714539Y-122904315D01*
X132878293Y-122822438D01*
X133324609Y-122822438D01*
X133598776Y-122913827D01*
X133650060Y-122912426D01*
X133688445Y-122878389D01*
X133695970Y-122827640D01*
X133669115Y-122783928D01*
X133646210Y-122771525D01*
X133534877Y-122734414D01*
X134120061Y-122734414D01*
X134128970Y-122784938D01*
X134168270Y-122817915D01*
X134193922Y-122822438D01*
X134690350Y-122822438D01*
X134690350Y-124747438D01*
X134707897Y-124795647D01*
X134752326Y-124821299D01*
X134802850Y-124812390D01*
X134835827Y-124773090D01*
X134840350Y-124747438D01*
X135928446Y-124747438D01*
X135945993Y-124795647D01*
X135990422Y-124821299D01*
X136040946Y-124812390D01*
X136073923Y-124773090D01*
X136078446Y-124747438D01*
X136078446Y-123890295D01*
X136785589Y-123890295D01*
X136786774Y-123893552D01*
X136787828Y-123908485D01*
X136883066Y-124289437D01*
X136885054Y-124292381D01*
X136888745Y-124304788D01*
X136983983Y-124495264D01*
X136985169Y-124496387D01*
X136998032Y-124514756D01*
X137188508Y-124705233D01*
X137192571Y-124707127D01*
X137194919Y-124710949D01*
X137217824Y-124723351D01*
X137503539Y-124818589D01*
X137505173Y-124818544D01*
X137527256Y-124822438D01*
X137717732Y-124822438D01*
X137719270Y-124821877D01*
X137741449Y-124818589D01*
X137954902Y-124747438D01*
X138880827Y-124747438D01*
X138898374Y-124795647D01*
X138942803Y-124821299D01*
X138993327Y-124812390D01*
X139026304Y-124773090D01*
X139030827Y-124747438D01*
X139030827Y-123921361D01*
X139233426Y-123718761D01*
X140038684Y-124792438D01*
X140081647Y-124820477D01*
X140132581Y-124814341D01*
X140167655Y-124776899D01*
X140170457Y-124725673D01*
X140158684Y-124702438D01*
X139340569Y-123611618D01*
X140151717Y-122800471D01*
X140173398Y-122753974D01*
X140160121Y-122704420D01*
X140118096Y-122674993D01*
X140066988Y-122679464D01*
X140045651Y-122694405D01*
X139030827Y-123709229D01*
X139030827Y-122747438D01*
X139013280Y-122699229D01*
X138968851Y-122673577D01*
X138918327Y-122682486D01*
X138885350Y-122721786D01*
X138880827Y-122747438D01*
X138880827Y-124747438D01*
X137954902Y-124747438D01*
X138027163Y-124723351D01*
X138030675Y-124720563D01*
X138035142Y-124720173D01*
X138056479Y-124705233D01*
X138151718Y-124609993D01*
X138173399Y-124563497D01*
X138160121Y-124513942D01*
X138118095Y-124484516D01*
X138066988Y-124488987D01*
X138045651Y-124503928D01*
X137962931Y-124586648D01*
X137705562Y-124672438D01*
X137539426Y-124672438D01*
X137282055Y-124586648D01*
X137112704Y-124417296D01*
X137026591Y-124245071D01*
X136935589Y-123881061D01*
X136935589Y-123613814D01*
X137026591Y-123249804D01*
X137112704Y-123077579D01*
X137282054Y-122908228D01*
X137539426Y-122822438D01*
X137705562Y-122822438D01*
X137962932Y-122908228D01*
X138045651Y-122990947D01*
X138092148Y-123012628D01*
X138141702Y-122999351D01*
X138171129Y-122957326D01*
X138166658Y-122906218D01*
X138151717Y-122884881D01*
X138056479Y-122789643D01*
X138052414Y-122787747D01*
X138050068Y-122783928D01*
X138027163Y-122771525D01*
X137741449Y-122676287D01*
X137739814Y-122676331D01*
X137717732Y-122672438D01*
X137527256Y-122672438D01*
X137525717Y-122672998D01*
X137503539Y-122676287D01*
X137217824Y-122771525D01*
X137214313Y-122774311D01*
X137209845Y-122774702D01*
X137188508Y-122789643D01*
X136998032Y-122980119D01*
X136997339Y-122981603D01*
X136983983Y-122999611D01*
X136888745Y-123190087D01*
X136888338Y-123193615D01*
X136883066Y-123205438D01*
X136787828Y-123586390D01*
X136788188Y-123589838D01*
X136785589Y-123604580D01*
X136785589Y-123890295D01*
X136078446Y-123890295D01*
X136078446Y-122747438D01*
X136060899Y-122699229D01*
X136016470Y-122673577D01*
X135965946Y-122682486D01*
X135932969Y-122721786D01*
X135928446Y-122747438D01*
X135928446Y-124747438D01*
X134840350Y-124747438D01*
X134840350Y-122822438D01*
X135336779Y-122822438D01*
X135384988Y-122804891D01*
X135410640Y-122760462D01*
X135401731Y-122709938D01*
X135362431Y-122676961D01*
X135336779Y-122672438D01*
X134193922Y-122672438D01*
X134145713Y-122689985D01*
X134120061Y-122734414D01*
X133534877Y-122734414D01*
X133360496Y-122676287D01*
X133358861Y-122676331D01*
X133336779Y-122672438D01*
X132860588Y-122672438D01*
X132856376Y-122673971D01*
X132852014Y-122672929D01*
X132827047Y-122680356D01*
X132636571Y-122775594D01*
X132635447Y-122776780D01*
X132617079Y-122789643D01*
X132521841Y-122884881D01*
X132521148Y-122886365D01*
X132507792Y-122904373D01*
X132412554Y-123094849D01*
X132412041Y-123099302D01*
X132409159Y-123102738D01*
X132404636Y-123128390D01*
X132404636Y-123318866D01*
X132118922Y-123318866D01*
X132118922Y-122386724D01*
X140459112Y-122386724D01*
X140459112Y-125108152D01*
G37*
G36*
X184482828Y-116904315D02*
G01*
X184650008Y-117071495D01*
X184737969Y-117423338D01*
X184737969Y-118071537D01*
X184650008Y-118423379D01*
X184482827Y-118590561D01*
X184319074Y-118672438D01*
X183973531Y-118672438D01*
X183809777Y-118590561D01*
X183642596Y-118423379D01*
X183554636Y-118071537D01*
X183554636Y-117423338D01*
X183642596Y-117071495D01*
X183809777Y-116904315D01*
X183973531Y-116822438D01*
X184319074Y-116822438D01*
X184482828Y-116904315D01*
G37*
G36*
X182482828Y-116904315D02*
G01*
X182560854Y-116982341D01*
X182642731Y-117146095D01*
X182642731Y-117396399D01*
X182560853Y-117560153D01*
X182482827Y-117638180D01*
X182319074Y-117720057D01*
X181649874Y-117720057D01*
X181649874Y-116822438D01*
X182319074Y-116822438D01*
X182482828Y-116904315D01*
G37*
G36*
X190673304Y-116904315D02*
G01*
X190751330Y-116982341D01*
X190833207Y-117146095D01*
X190833207Y-117396399D01*
X190751329Y-117560153D01*
X190673303Y-117638180D01*
X190509550Y-117720057D01*
X189840350Y-117720057D01*
X189840350Y-116822438D01*
X190509550Y-116822438D01*
X190673304Y-116904315D01*
G37*
G36*
X191268921Y-119108152D02*
G01*
X181214160Y-119108152D01*
X181214160Y-118747438D01*
X181499874Y-118747438D01*
X181517421Y-118795647D01*
X181561850Y-118821299D01*
X181612374Y-118812390D01*
X181645351Y-118773090D01*
X181649874Y-118747438D01*
X181649874Y-118080771D01*
X183404636Y-118080771D01*
X183405821Y-118084028D01*
X183406875Y-118098961D01*
X183502113Y-118479913D01*
X183506255Y-118486045D01*
X183506900Y-118493419D01*
X183521841Y-118514756D01*
X183712317Y-118705233D01*
X183713798Y-118705924D01*
X183731809Y-118719282D01*
X183922285Y-118814520D01*
X183926738Y-118815032D01*
X183930174Y-118817915D01*
X183955826Y-118822438D01*
X184336779Y-118822438D01*
X184340992Y-118820904D01*
X184345353Y-118821946D01*
X184370320Y-118814520D01*
X184560796Y-118719282D01*
X184561922Y-118718092D01*
X184580288Y-118705233D01*
X184770764Y-118514756D01*
X184773891Y-118508048D01*
X184779882Y-118503702D01*
X184790492Y-118479913D01*
X184885730Y-118098961D01*
X184885369Y-118095512D01*
X184887969Y-118080771D01*
X184887969Y-117414104D01*
X184886783Y-117410846D01*
X184885730Y-117395914D01*
X184790492Y-117014962D01*
X184786350Y-117008829D01*
X184785705Y-117001456D01*
X184770764Y-116980119D01*
X184580288Y-116789643D01*
X184578803Y-116788950D01*
X184560796Y-116775594D01*
X184487222Y-116738807D01*
X185405134Y-116738807D01*
X185406676Y-116764810D01*
X185882866Y-118764810D01*
X185887195Y-118771378D01*
X185887891Y-118779216D01*
X185900951Y-118792245D01*
X185911102Y-118807643D01*
X185918640Y-118809891D01*
X185924211Y-118815449D01*
X185942587Y-118817034D01*
X185960264Y-118822307D01*
X185967486Y-118819182D01*
X185975324Y-118819859D01*
X185990420Y-118809261D01*
X186007350Y-118801938D01*
X186010873Y-118794903D01*
X186017314Y-118790383D01*
X186028294Y-118766763D01*
X186336778Y-117609945D01*
X186645263Y-118766762D01*
X186649768Y-118773213D01*
X186650674Y-118781029D01*
X186664079Y-118793703D01*
X186674639Y-118808822D01*
X186682234Y-118810867D01*
X186687953Y-118816274D01*
X186706367Y-118817365D01*
X186724178Y-118822161D01*
X186731314Y-118818843D01*
X186739167Y-118819309D01*
X186753974Y-118808309D01*
X186770700Y-118800534D01*
X186774033Y-118793408D01*
X186780350Y-118788716D01*
X186790691Y-118764810D01*
X186794827Y-118747438D01*
X187880826Y-118747438D01*
X187887489Y-118765746D01*
X187890874Y-118784938D01*
X187896058Y-118789288D01*
X187898373Y-118795647D01*
X187915246Y-118805389D01*
X187930174Y-118817915D01*
X187939916Y-118819632D01*
X187942802Y-118821299D01*
X187946084Y-118820720D01*
X187955826Y-118822438D01*
X188908207Y-118822438D01*
X188956416Y-118804891D01*
X188982068Y-118760462D01*
X188979771Y-118747438D01*
X189690350Y-118747438D01*
X189707897Y-118795647D01*
X189752326Y-118821299D01*
X189802850Y-118812390D01*
X189835827Y-118773090D01*
X189840350Y-118747438D01*
X189840350Y-117870057D01*
X190202491Y-117870057D01*
X190846764Y-118790447D01*
X190888786Y-118819879D01*
X190939894Y-118815416D01*
X190976176Y-118779144D01*
X190980654Y-118728037D01*
X190969649Y-118704428D01*
X190385589Y-117870057D01*
X190527255Y-117870057D01*
X190531468Y-117868523D01*
X190535829Y-117869565D01*
X190560796Y-117862139D01*
X190751272Y-117766901D01*
X190752398Y-117765711D01*
X190770764Y-117752852D01*
X190866003Y-117657612D01*
X190866694Y-117656129D01*
X190880051Y-117638121D01*
X190975289Y-117447645D01*
X190975801Y-117443191D01*
X190978684Y-117439756D01*
X190983207Y-117414104D01*
X190983207Y-117128390D01*
X190981673Y-117124178D01*
X190982716Y-117119816D01*
X190975289Y-117094849D01*
X190880051Y-116904373D01*
X190878864Y-116903249D01*
X190866002Y-116884881D01*
X190770764Y-116789643D01*
X190769279Y-116788950D01*
X190751272Y-116775594D01*
X190560796Y-116680356D01*
X190556342Y-116679843D01*
X190552907Y-116676961D01*
X190527255Y-116672438D01*
X189765350Y-116672438D01*
X189747041Y-116679101D01*
X189727850Y-116682486D01*
X189723499Y-116687670D01*
X189717141Y-116689985D01*
X189707398Y-116706858D01*
X189694873Y-116721786D01*
X189693155Y-116731528D01*
X189691489Y-116734414D01*
X189692067Y-116737696D01*
X189690350Y-116747438D01*
X189690350Y-118747438D01*
X188979771Y-118747438D01*
X188973159Y-118709938D01*
X188933859Y-118676961D01*
X188908207Y-118672438D01*
X188030826Y-118672438D01*
X188030826Y-117774819D01*
X188622493Y-117774819D01*
X188670702Y-117757272D01*
X188696354Y-117712843D01*
X188687445Y-117662319D01*
X188648145Y-117629342D01*
X188622493Y-117624819D01*
X188030826Y-117624819D01*
X188030826Y-116822438D01*
X188908207Y-116822438D01*
X188956416Y-116804891D01*
X188982068Y-116760462D01*
X188973159Y-116709938D01*
X188933859Y-116676961D01*
X188908207Y-116672438D01*
X187955826Y-116672438D01*
X187937517Y-116679101D01*
X187918326Y-116682486D01*
X187913975Y-116687670D01*
X187907617Y-116689985D01*
X187897874Y-116706858D01*
X187885349Y-116721786D01*
X187883631Y-116731528D01*
X187881965Y-116734414D01*
X187882543Y-116737696D01*
X187880826Y-116747438D01*
X187880826Y-118747438D01*
X186794827Y-118747438D01*
X187266882Y-116764810D01*
X187260979Y-116713847D01*
X187223700Y-116678602D01*
X187172486Y-116675567D01*
X187131303Y-116706160D01*
X187120962Y-116730066D01*
X186713614Y-118440922D01*
X186409247Y-117299541D01*
X186405319Y-117293918D01*
X186404714Y-117287088D01*
X186390976Y-117273382D01*
X186379870Y-117257481D01*
X186373251Y-117255698D01*
X186368395Y-117250854D01*
X186349061Y-117249185D01*
X186330332Y-117244143D01*
X186324113Y-117247033D01*
X186317281Y-117246444D01*
X186301399Y-117257592D01*
X186283810Y-117265769D01*
X186280905Y-117271979D01*
X186275291Y-117275920D01*
X186264312Y-117299541D01*
X185959942Y-118440921D01*
X185552596Y-116730066D01*
X185524360Y-116687233D01*
X185475198Y-116672569D01*
X185428112Y-116692938D01*
X185405134Y-116738807D01*
X184487222Y-116738807D01*
X184370320Y-116680356D01*
X184365866Y-116679843D01*
X184362431Y-116676961D01*
X184336779Y-116672438D01*
X183955826Y-116672438D01*
X183951614Y-116673971D01*
X183947252Y-116672929D01*
X183922285Y-116680356D01*
X183731809Y-116775594D01*
X183730685Y-116776780D01*
X183712317Y-116789643D01*
X183521841Y-116980119D01*
X183518713Y-116986826D01*
X183512723Y-116991173D01*
X183502113Y-117014962D01*
X183406875Y-117395914D01*
X183407235Y-117399362D01*
X183404636Y-117414104D01*
X183404636Y-118080771D01*
X181649874Y-118080771D01*
X181649874Y-117870057D01*
X182336779Y-117870057D01*
X182340992Y-117868523D01*
X182345353Y-117869565D01*
X182370320Y-117862139D01*
X182560796Y-117766901D01*
X182561922Y-117765711D01*
X182580288Y-117752852D01*
X182675527Y-117657612D01*
X182676218Y-117656129D01*
X182689575Y-117638121D01*
X182784813Y-117447645D01*
X182785325Y-117443191D01*
X182788208Y-117439756D01*
X182792731Y-117414104D01*
X182792731Y-117128390D01*
X182791197Y-117124178D01*
X182792240Y-117119816D01*
X182784813Y-117094849D01*
X182689575Y-116904373D01*
X182688388Y-116903249D01*
X182675526Y-116884881D01*
X182580288Y-116789643D01*
X182578803Y-116788950D01*
X182560796Y-116775594D01*
X182370320Y-116680356D01*
X182365866Y-116679843D01*
X182362431Y-116676961D01*
X182336779Y-116672438D01*
X181574874Y-116672438D01*
X181556565Y-116679101D01*
X181537374Y-116682486D01*
X181533023Y-116687670D01*
X181526665Y-116689985D01*
X181516922Y-116706858D01*
X181504397Y-116721786D01*
X181502679Y-116731528D01*
X181501013Y-116734414D01*
X181501591Y-116737696D01*
X181499874Y-116747438D01*
X181499874Y-118747438D01*
X181214160Y-118747438D01*
X181214160Y-116386724D01*
X191268921Y-116386724D01*
X191268921Y-119108152D01*
G37*
X171416667Y-104157200D02*
X171559524Y-104204819D01*
X171559524Y-104204819D02*
X171797619Y-104204819D01*
X171797619Y-104204819D02*
X171892857Y-104157200D01*
X171892857Y-104157200D02*
X171940476Y-104109580D01*
X171940476Y-104109580D02*
X171988095Y-104014342D01*
X171988095Y-104014342D02*
X171988095Y-103919104D01*
X171988095Y-103919104D02*
X171940476Y-103823866D01*
X171940476Y-103823866D02*
X171892857Y-103776247D01*
X171892857Y-103776247D02*
X171797619Y-103728628D01*
X171797619Y-103728628D02*
X171607143Y-103681009D01*
X171607143Y-103681009D02*
X171511905Y-103633390D01*
X171511905Y-103633390D02*
X171464286Y-103585771D01*
X171464286Y-103585771D02*
X171416667Y-103490533D01*
X171416667Y-103490533D02*
X171416667Y-103395295D01*
X171416667Y-103395295D02*
X171464286Y-103300057D01*
X171464286Y-103300057D02*
X171511905Y-103252438D01*
X171511905Y-103252438D02*
X171607143Y-103204819D01*
X171607143Y-103204819D02*
X171845238Y-103204819D01*
X171845238Y-103204819D02*
X171988095Y-103252438D01*
X172321429Y-103204819D02*
X172559524Y-104204819D01*
X172559524Y-104204819D02*
X172750000Y-103490533D01*
X172750000Y-103490533D02*
X172940476Y-104204819D01*
X172940476Y-104204819D02*
X173178572Y-103204819D01*
X173464286Y-103204819D02*
X174083333Y-103204819D01*
X174083333Y-103204819D02*
X173750000Y-103585771D01*
X173750000Y-103585771D02*
X173892857Y-103585771D01*
X173892857Y-103585771D02*
X173988095Y-103633390D01*
X173988095Y-103633390D02*
X174035714Y-103681009D01*
X174035714Y-103681009D02*
X174083333Y-103776247D01*
X174083333Y-103776247D02*
X174083333Y-104014342D01*
X174083333Y-104014342D02*
X174035714Y-104109580D01*
X174035714Y-104109580D02*
X173988095Y-104157200D01*
X173988095Y-104157200D02*
X173892857Y-104204819D01*
X173892857Y-104204819D02*
X173607143Y-104204819D01*
X173607143Y-104204819D02*
X173511905Y-104157200D01*
X173511905Y-104157200D02*
X173464286Y-104109580D01*
X159416667Y-104157200D02*
X159559524Y-104204819D01*
X159559524Y-104204819D02*
X159797619Y-104204819D01*
X159797619Y-104204819D02*
X159892857Y-104157200D01*
X159892857Y-104157200D02*
X159940476Y-104109580D01*
X159940476Y-104109580D02*
X159988095Y-104014342D01*
X159988095Y-104014342D02*
X159988095Y-103919104D01*
X159988095Y-103919104D02*
X159940476Y-103823866D01*
X159940476Y-103823866D02*
X159892857Y-103776247D01*
X159892857Y-103776247D02*
X159797619Y-103728628D01*
X159797619Y-103728628D02*
X159607143Y-103681009D01*
X159607143Y-103681009D02*
X159511905Y-103633390D01*
X159511905Y-103633390D02*
X159464286Y-103585771D01*
X159464286Y-103585771D02*
X159416667Y-103490533D01*
X159416667Y-103490533D02*
X159416667Y-103395295D01*
X159416667Y-103395295D02*
X159464286Y-103300057D01*
X159464286Y-103300057D02*
X159511905Y-103252438D01*
X159511905Y-103252438D02*
X159607143Y-103204819D01*
X159607143Y-103204819D02*
X159845238Y-103204819D01*
X159845238Y-103204819D02*
X159988095Y-103252438D01*
X160321429Y-103204819D02*
X160559524Y-104204819D01*
X160559524Y-104204819D02*
X160750000Y-103490533D01*
X160750000Y-103490533D02*
X160940476Y-104204819D01*
X160940476Y-104204819D02*
X161178572Y-103204819D01*
X161511905Y-103300057D02*
X161559524Y-103252438D01*
X161559524Y-103252438D02*
X161654762Y-103204819D01*
X161654762Y-103204819D02*
X161892857Y-103204819D01*
X161892857Y-103204819D02*
X161988095Y-103252438D01*
X161988095Y-103252438D02*
X162035714Y-103300057D01*
X162035714Y-103300057D02*
X162083333Y-103395295D01*
X162083333Y-103395295D02*
X162083333Y-103490533D01*
X162083333Y-103490533D02*
X162035714Y-103633390D01*
X162035714Y-103633390D02*
X161464286Y-104204819D01*
X161464286Y-104204819D02*
X162083333Y-104204819D01*
X185416667Y-104157200D02*
X185559524Y-104204819D01*
X185559524Y-104204819D02*
X185797619Y-104204819D01*
X185797619Y-104204819D02*
X185892857Y-104157200D01*
X185892857Y-104157200D02*
X185940476Y-104109580D01*
X185940476Y-104109580D02*
X185988095Y-104014342D01*
X185988095Y-104014342D02*
X185988095Y-103919104D01*
X185988095Y-103919104D02*
X185940476Y-103823866D01*
X185940476Y-103823866D02*
X185892857Y-103776247D01*
X185892857Y-103776247D02*
X185797619Y-103728628D01*
X185797619Y-103728628D02*
X185607143Y-103681009D01*
X185607143Y-103681009D02*
X185511905Y-103633390D01*
X185511905Y-103633390D02*
X185464286Y-103585771D01*
X185464286Y-103585771D02*
X185416667Y-103490533D01*
X185416667Y-103490533D02*
X185416667Y-103395295D01*
X185416667Y-103395295D02*
X185464286Y-103300057D01*
X185464286Y-103300057D02*
X185511905Y-103252438D01*
X185511905Y-103252438D02*
X185607143Y-103204819D01*
X185607143Y-103204819D02*
X185845238Y-103204819D01*
X185845238Y-103204819D02*
X185988095Y-103252438D01*
X186321429Y-103204819D02*
X186559524Y-104204819D01*
X186559524Y-104204819D02*
X186750000Y-103490533D01*
X186750000Y-103490533D02*
X186940476Y-104204819D01*
X186940476Y-104204819D02*
X187178572Y-103204819D01*
X187988095Y-103538152D02*
X187988095Y-104204819D01*
X187750000Y-103157200D02*
X187511905Y-103871485D01*
X187511905Y-103871485D02*
X188130952Y-103871485D01*
X135666667Y-97897200D02*
X135809524Y-97944819D01*
X135809524Y-97944819D02*
X136047619Y-97944819D01*
X136047619Y-97944819D02*
X136142857Y-97897200D01*
X136142857Y-97897200D02*
X136190476Y-97849580D01*
X136190476Y-97849580D02*
X136238095Y-97754342D01*
X136238095Y-97754342D02*
X136238095Y-97659104D01*
X136238095Y-97659104D02*
X136190476Y-97563866D01*
X136190476Y-97563866D02*
X136142857Y-97516247D01*
X136142857Y-97516247D02*
X136047619Y-97468628D01*
X136047619Y-97468628D02*
X135857143Y-97421009D01*
X135857143Y-97421009D02*
X135761905Y-97373390D01*
X135761905Y-97373390D02*
X135714286Y-97325771D01*
X135714286Y-97325771D02*
X135666667Y-97230533D01*
X135666667Y-97230533D02*
X135666667Y-97135295D01*
X135666667Y-97135295D02*
X135714286Y-97040057D01*
X135714286Y-97040057D02*
X135761905Y-96992438D01*
X135761905Y-96992438D02*
X135857143Y-96944819D01*
X135857143Y-96944819D02*
X136095238Y-96944819D01*
X136095238Y-96944819D02*
X136238095Y-96992438D01*
X136571429Y-96944819D02*
X136809524Y-97944819D01*
X136809524Y-97944819D02*
X137000000Y-97230533D01*
X137000000Y-97230533D02*
X137190476Y-97944819D01*
X137190476Y-97944819D02*
X137428572Y-96944819D01*
X138285714Y-96944819D02*
X137809524Y-96944819D01*
X137809524Y-96944819D02*
X137761905Y-97421009D01*
X137761905Y-97421009D02*
X137809524Y-97373390D01*
X137809524Y-97373390D02*
X137904762Y-97325771D01*
X137904762Y-97325771D02*
X138142857Y-97325771D01*
X138142857Y-97325771D02*
X138238095Y-97373390D01*
X138238095Y-97373390D02*
X138285714Y-97421009D01*
X138285714Y-97421009D02*
X138333333Y-97516247D01*
X138333333Y-97516247D02*
X138333333Y-97754342D01*
X138333333Y-97754342D02*
X138285714Y-97849580D01*
X138285714Y-97849580D02*
X138238095Y-97897200D01*
X138238095Y-97897200D02*
X138142857Y-97944819D01*
X138142857Y-97944819D02*
X137904762Y-97944819D01*
X137904762Y-97944819D02*
X137809524Y-97897200D01*
X137809524Y-97897200D02*
X137761905Y-97849580D01*
X109466667Y-104157200D02*
X109609524Y-104204819D01*
X109609524Y-104204819D02*
X109847619Y-104204819D01*
X109847619Y-104204819D02*
X109942857Y-104157200D01*
X109942857Y-104157200D02*
X109990476Y-104109580D01*
X109990476Y-104109580D02*
X110038095Y-104014342D01*
X110038095Y-104014342D02*
X110038095Y-103919104D01*
X110038095Y-103919104D02*
X109990476Y-103823866D01*
X109990476Y-103823866D02*
X109942857Y-103776247D01*
X109942857Y-103776247D02*
X109847619Y-103728628D01*
X109847619Y-103728628D02*
X109657143Y-103681009D01*
X109657143Y-103681009D02*
X109561905Y-103633390D01*
X109561905Y-103633390D02*
X109514286Y-103585771D01*
X109514286Y-103585771D02*
X109466667Y-103490533D01*
X109466667Y-103490533D02*
X109466667Y-103395295D01*
X109466667Y-103395295D02*
X109514286Y-103300057D01*
X109514286Y-103300057D02*
X109561905Y-103252438D01*
X109561905Y-103252438D02*
X109657143Y-103204819D01*
X109657143Y-103204819D02*
X109895238Y-103204819D01*
X109895238Y-103204819D02*
X110038095Y-103252438D01*
X110371429Y-103204819D02*
X110609524Y-104204819D01*
X110609524Y-104204819D02*
X110800000Y-103490533D01*
X110800000Y-103490533D02*
X110990476Y-104204819D01*
X110990476Y-104204819D02*
X111228572Y-103204819D01*
X112133333Y-104204819D02*
X111561905Y-104204819D01*
X111847619Y-104204819D02*
X111847619Y-103204819D01*
X111847619Y-103204819D02*
X111752381Y-103347676D01*
X111752381Y-103347676D02*
X111657143Y-103442914D01*
X111657143Y-103442914D02*
X111561905Y-103490533D01*
X134864819Y-93508333D02*
X135579104Y-93508333D01*
X135579104Y-93508333D02*
X135721961Y-93555952D01*
X135721961Y-93555952D02*
X135817200Y-93651190D01*
X135817200Y-93651190D02*
X135864819Y-93794047D01*
X135864819Y-93794047D02*
X135864819Y-93889285D01*
X135864819Y-92508333D02*
X135864819Y-93079761D01*
X135864819Y-92794047D02*
X134864819Y-92794047D01*
X134864819Y-92794047D02*
X135007676Y-92889285D01*
X135007676Y-92889285D02*
X135102914Y-92984523D01*
X135102914Y-92984523D02*
X135150533Y-93079761D01*
D12*
%TO.C,SW3*%
X175110000Y-105620000D02*
G75*
G03*
X175110000Y-105620000I-200000J0D01*
G01*
%TO.C,SW2*%
X163110000Y-105620000D02*
G75*
G03*
X163110000Y-105620000I-200000J0D01*
G01*
%TO.C,SW4*%
X189110000Y-105620000D02*
G75*
G03*
X189110000Y-105620000I-200000J0D01*
G01*
D13*
%TO.C,SW5*%
X128150000Y-105880000D02*
X128150000Y-114550000D01*
X129250000Y-103650000D02*
X131050000Y-103650000D01*
X129250000Y-116750000D02*
X131170000Y-116750000D01*
X131050000Y-101350000D02*
X131600000Y-100800000D01*
X131050000Y-103650000D02*
X131050000Y-101350000D01*
X131500000Y-117090000D02*
X131500000Y-119430000D01*
X131600000Y-100800000D02*
X132400000Y-100800000D01*
X132300000Y-109220000D02*
X139300000Y-109220000D01*
X132300000Y-111220000D02*
X139300000Y-111220000D01*
X132840000Y-121720000D02*
X138720000Y-121720000D01*
X134100000Y-118420000D02*
X137400000Y-118420000D01*
X134100000Y-119620000D02*
X134100000Y-118420000D01*
X134200000Y-100800000D02*
X134900000Y-100800000D01*
X134550000Y-107970000D02*
X137050000Y-107970000D01*
X134550000Y-109220000D02*
X134550000Y-107970000D01*
X134550000Y-112470000D02*
X134550000Y-111220000D01*
X134800000Y-117420000D02*
X134800000Y-120320000D01*
X134800000Y-120320000D02*
X136800000Y-120320000D01*
X136700000Y-100800000D02*
X137400000Y-100800000D01*
X136800000Y-117420000D02*
X136700000Y-117420000D01*
X136800000Y-120320000D02*
X136800000Y-117420000D01*
X137050000Y-107970000D02*
X137050000Y-109220000D01*
X137050000Y-111220000D02*
X137050000Y-112470000D01*
X137050000Y-112470000D02*
X134550000Y-112470000D01*
X137400000Y-118420000D02*
X137400000Y-119620000D01*
X137400000Y-119620000D02*
X134100000Y-119620000D01*
X139200000Y-100800000D02*
X140050000Y-100800000D01*
X140050000Y-100800000D02*
X140550000Y-101300000D01*
X140100000Y-117200000D02*
X140100000Y-119460000D01*
X140550000Y-101300000D02*
X140550000Y-103650000D01*
X140550000Y-103650000D02*
X142350000Y-103650000D01*
X142350000Y-103650000D02*
X142350000Y-103750000D01*
X142350000Y-116800000D02*
X140350000Y-116800000D01*
X143000000Y-106410000D02*
X143000000Y-114020000D01*
X143010000Y-106400000D02*
X143000000Y-106410000D01*
X143010000Y-114030000D02*
X143000000Y-114020000D01*
X143590000Y-105450000D02*
X144600000Y-105450000D01*
X144600000Y-105450000D02*
X145150000Y-106000000D01*
X144650000Y-114950000D02*
X143580000Y-114950000D01*
X145150000Y-106000000D02*
X145150000Y-106770000D01*
X145150000Y-108660000D02*
X145150000Y-109270000D01*
X145150000Y-111160000D02*
X145150000Y-111770000D01*
X145150000Y-113660000D02*
X145150000Y-114450000D01*
X145150000Y-114450000D02*
X144650000Y-114950000D01*
X136780000Y-110220000D02*
G75*
G03*
X136780000Y-110220000I-980000J0D01*
G01*
X139430000Y-110220000D02*
G75*
G03*
X139430000Y-110220000I-3630000J0D01*
G01*
X141900000Y-110220000D02*
G75*
G03*
X141900000Y-110220000I-6100000J0D01*
G01*
D12*
%TO.C,SW1*%
X113160000Y-105620000D02*
G75*
G03*
X113160000Y-105620000I-200000J0D01*
G01*
D14*
%TO.C,J1*%
X136480000Y-94445000D02*
X136480000Y-93175000D01*
X137750000Y-94445000D02*
X136480000Y-94445000D01*
X139910000Y-92132071D02*
X139910000Y-91735000D01*
X140670000Y-92132071D02*
X140670000Y-91735000D01*
X142450000Y-92132071D02*
X142450000Y-91735000D01*
X143210000Y-92132071D02*
X143210000Y-91735000D01*
X144990000Y-92132071D02*
X144990000Y-91735000D01*
X145750000Y-92132071D02*
X145750000Y-91735000D01*
X147530000Y-92132071D02*
X147530000Y-91735000D01*
X148290000Y-92132071D02*
X148290000Y-91735000D01*
X150070000Y-92132071D02*
X150070000Y-91735000D01*
X150830000Y-92132071D02*
X150830000Y-91735000D01*
X152610000Y-92132071D02*
X152610000Y-91735000D01*
X153370000Y-92132071D02*
X153370000Y-91735000D01*
X155150000Y-92132071D02*
X155150000Y-91735000D01*
X155910000Y-92132071D02*
X155910000Y-91735000D01*
X157690000Y-92132071D02*
X157690000Y-91735000D01*
X158450000Y-92132071D02*
X158450000Y-91735000D01*
X137370000Y-92065000D02*
X137370000Y-91735000D01*
X138130000Y-92065000D02*
X138130000Y-91735000D01*
X136420000Y-91735000D02*
X159400000Y-91735000D01*
%TD*%
%LPC*%
D15*
%TO.C,*%
X106600000Y-92800000D03*
%TD*%
D16*
%TO.C,SW3*%
X175250000Y-107750000D03*
X172750000Y-107750000D03*
X170250000Y-107750000D03*
X175250000Y-113150000D03*
X172750000Y-113150000D03*
D17*
X170250000Y-113150000D03*
%TD*%
D16*
%TO.C,SW2*%
X163250000Y-107750000D03*
X160750000Y-107750000D03*
X158250000Y-107750000D03*
X163250000Y-113150000D03*
X160750000Y-113150000D03*
D17*
X158250000Y-113150000D03*
%TD*%
D16*
%TO.C,SW4*%
X189250000Y-107750000D03*
X186750000Y-107750000D03*
X184250000Y-107750000D03*
X189250000Y-113150000D03*
X186750000Y-113150000D03*
D17*
X184250000Y-113150000D03*
%TD*%
D18*
%TO.C,SW5*%
X131500000Y-110220000D03*
X140100000Y-110220000D03*
X144530000Y-112720000D03*
X144530000Y-110220000D03*
X144530000Y-107720000D03*
X138300000Y-101490000D03*
X135800000Y-101490000D03*
X133300000Y-101490000D03*
D19*
X129470000Y-105220000D03*
X129470000Y-115220000D03*
X142120000Y-115220000D03*
X142120000Y-105220000D03*
D20*
X132280000Y-116010000D03*
X132280000Y-120510000D03*
X139280000Y-116010000D03*
X139280000Y-120510000D03*
%TD*%
D16*
%TO.C,SW1*%
X113300000Y-107750000D03*
X110800000Y-107750000D03*
X108300000Y-107750000D03*
X113300000Y-113150000D03*
X110800000Y-113150000D03*
D17*
X108300000Y-113150000D03*
%TD*%
D15*
%TO.C,*%
X187000000Y-94000000D03*
%TD*%
D21*
%TO.C,J1*%
X137750000Y-93175000D03*
D22*
X140290000Y-93175000D03*
X142830000Y-93175000D03*
X145370000Y-93175000D03*
X147910000Y-93175000D03*
X150450000Y-93175000D03*
X152990000Y-93175000D03*
X155530000Y-93175000D03*
X158070000Y-93175000D03*
%TD*%
D15*
%TO.C,*%
X105100000Y-123700000D03*
%TD*%
%TO.C,*%
X189000000Y-123000000D03*
%TD*%
%LPD*%
M02*
