%TF.GenerationSoftware,KiCad,Pcbnew,7.0.9-7.0.9~ubuntu23.10.1*%
%TF.CreationDate,2023-12-22T14:56:40-05:00*%
%TF.ProjectId,buttons,62757474-6f6e-4732-9e6b-696361645f70,rev?*%
%TF.SameCoordinates,Original*%
%TF.FileFunction,Copper,L1,Top*%
%TF.FilePolarity,Positive*%
%FSLAX46Y46*%
G04 Gerber Fmt 4.6, Leading zero omitted, Abs format (unit mm)*
G04 Created by KiCad (PCBNEW 7.0.9-7.0.9~ubuntu23.10.1) date 2023-12-22 14:56:40*
%MOMM*%
%LPD*%
G01*
G04 APERTURE LIST*
%TA.AperFunction,ComponentPad*%
%ADD10C,1.600000*%
%TD*%
%TA.AperFunction,ComponentPad*%
%ADD11R,1.600000X1.600000*%
%TD*%
%TA.AperFunction,ComponentPad*%
%ADD12C,1.800000*%
%TD*%
%TA.AperFunction,ComponentPad*%
%ADD13C,2.500000*%
%TD*%
%TA.AperFunction,ComponentPad*%
%ADD14C,2.200000*%
%TD*%
%TA.AperFunction,ComponentPad*%
%ADD15R,1.700000X1.700000*%
%TD*%
%TA.AperFunction,ComponentPad*%
%ADD16O,1.700000X1.700000*%
%TD*%
%TA.AperFunction,ViaPad*%
%ADD17C,0.800000*%
%TD*%
%TA.AperFunction,Conductor*%
%ADD18C,0.250000*%
%TD*%
G04 APERTURE END LIST*
D10*
%TO.P,SW3,1*%
%TO.N,GND*%
X175250000Y-107750000D03*
%TO.P,SW3,2*%
%TO.N,/TABBTN*%
X172750000Y-107750000D03*
%TO.P,SW3,3*%
%TO.N,+3V3*%
X170250000Y-107750000D03*
%TO.P,SW3,4*%
%TO.N,unconnected-(SW3-Pad4)*%
X175250000Y-113150000D03*
%TO.P,SW3,5*%
%TO.N,unconnected-(SW3-Pad5)*%
X172750000Y-113150000D03*
D11*
%TO.P,SW3,6*%
%TO.N,unconnected-(SW3-Pad6)*%
X170250000Y-113150000D03*
%TD*%
D10*
%TO.P,SW2,1*%
%TO.N,GND*%
X163250000Y-107750000D03*
%TO.P,SW2,2*%
%TO.N,/SELBTN*%
X160750000Y-107750000D03*
%TO.P,SW2,3*%
%TO.N,+3V3*%
X158250000Y-107750000D03*
%TO.P,SW2,4*%
%TO.N,unconnected-(SW2-Pad4)*%
X163250000Y-113150000D03*
%TO.P,SW2,5*%
%TO.N,unconnected-(SW2-Pad5)*%
X160750000Y-113150000D03*
D11*
%TO.P,SW2,6*%
%TO.N,unconnected-(SW2-Pad6)*%
X158250000Y-113150000D03*
%TD*%
D10*
%TO.P,SW4,1*%
%TO.N,GND*%
X189250000Y-107750000D03*
%TO.P,SW4,2*%
%TO.N,/PWRBTN*%
X186750000Y-107750000D03*
%TO.P,SW4,3*%
%TO.N,+3V3*%
X184250000Y-107750000D03*
%TO.P,SW4,4*%
%TO.N,unconnected-(SW4-Pad4)*%
X189250000Y-113150000D03*
%TO.P,SW4,5*%
%TO.N,unconnected-(SW4-Pad5)*%
X186750000Y-113150000D03*
D11*
%TO.P,SW4,6*%
%TO.N,unconnected-(SW4-Pad6)*%
X184250000Y-113150000D03*
%TD*%
D12*
%TO.P,SW5,1,B*%
%TO.N,GND*%
X144530000Y-112720000D03*
%TO.P,SW5,2,DTA*%
%TO.N,/YADC*%
X144530000Y-110220000D03*
%TO.P,SW5,3,A*%
%TO.N,+3V3*%
X144530000Y-107720000D03*
%TO.P,SW5,4,A*%
X138300000Y-101490000D03*
%TO.P,SW5,5,DTA*%
%TO.N,/XADC*%
X135800000Y-101490000D03*
%TO.P,SW5,6,B*%
%TO.N,GND*%
X133300000Y-101490000D03*
D13*
%TO.P,SW5,7,GND*%
X129470000Y-105220000D03*
%TO.P,SW5,8,GND*%
X129470000Y-115220000D03*
%TO.P,SW5,9,GND*%
X142120000Y-115220000D03*
%TO.P,SW5,10,GND*%
X142120000Y-105220000D03*
D14*
%TO.P,SW5,a,a*%
%TO.N,+3V3*%
X132280000Y-116010000D03*
%TO.P,SW5,b,b*%
%TO.N,/ADCBTN*%
X132280000Y-120510000D03*
%TO.P,SW5,c,c*%
%TO.N,+3V3*%
X139280000Y-116010000D03*
%TO.P,SW5,d,d*%
%TO.N,/ADCBTN*%
X139280000Y-120510000D03*
%TD*%
D10*
%TO.P,SW1,1*%
%TO.N,GND*%
X113300000Y-107750000D03*
%TO.P,SW1,2*%
%TO.N,/MENBTN*%
X110800000Y-107750000D03*
%TO.P,SW1,3*%
%TO.N,+3V3*%
X108300000Y-107750000D03*
%TO.P,SW1,4*%
%TO.N,unconnected-(SW1-Pad4)*%
X113300000Y-113150000D03*
%TO.P,SW1,5*%
%TO.N,unconnected-(SW1-Pad5)*%
X110800000Y-113150000D03*
D11*
%TO.P,SW1,6*%
%TO.N,unconnected-(SW1-Pad6)*%
X108300000Y-113150000D03*
%TD*%
D15*
%TO.P,J1,1,Pin_1*%
%TO.N,GND*%
X137750000Y-93175000D03*
D16*
%TO.P,J1,2,Pin_2*%
%TO.N,/PWRBTN*%
X140290000Y-93175000D03*
%TO.P,J1,3,Pin_3*%
%TO.N,/SELBTN*%
X142830000Y-93175000D03*
%TO.P,J1,4,Pin_4*%
%TO.N,/XADC*%
X145370000Y-93175000D03*
%TO.P,J1,5,Pin_5*%
%TO.N,/YADC*%
X147910000Y-93175000D03*
%TO.P,J1,6,Pin_6*%
%TO.N,/MENBTN*%
X150450000Y-93175000D03*
%TO.P,J1,7,Pin_7*%
%TO.N,/ADCBTN*%
X152990000Y-93175000D03*
%TO.P,J1,8,Pin_8*%
%TO.N,/TABBTN*%
X155530000Y-93175000D03*
%TO.P,J1,9,Pin_9*%
%TO.N,+3V3*%
X158070000Y-93175000D03*
%TD*%
D17*
%TO.N,/ADCBTN*%
X152900000Y-106900000D03*
%TO.N,/PWRBTN*%
X156000000Y-99900000D03*
%TD*%
D18*
%TO.N,/ADCBTN*%
X148990000Y-120510000D02*
X139280000Y-120510000D01*
X152900000Y-106900000D02*
X152510000Y-107290000D01*
X152510000Y-107290000D02*
X152510000Y-116990000D01*
X152510000Y-116990000D02*
X148990000Y-120510000D01*
%TO.N,/SELBTN*%
X147600000Y-98900000D02*
X142830000Y-94130000D01*
X156725305Y-98900000D02*
X147600000Y-98900000D01*
X160750000Y-102924695D02*
X156725305Y-98900000D01*
X142830000Y-94130000D02*
X142830000Y-93175000D01*
X160750000Y-107750000D02*
X160750000Y-102924695D01*
%TO.N,/PWRBTN*%
X156000000Y-99900000D02*
X147015000Y-99900000D01*
X147015000Y-99900000D02*
X140290000Y-93175000D01*
%TD*%
%TA.AperFunction,Conductor*%
%TO.N,+3V3*%
G36*
X136342539Y-92219685D02*
G01*
X136388294Y-92272489D01*
X136399500Y-92324000D01*
X136399500Y-94072870D01*
X136399501Y-94072876D01*
X136405908Y-94132483D01*
X136456202Y-94267328D01*
X136456206Y-94267335D01*
X136542452Y-94382544D01*
X136542455Y-94382547D01*
X136657664Y-94468793D01*
X136657671Y-94468797D01*
X136792517Y-94519091D01*
X136792516Y-94519091D01*
X136799444Y-94519835D01*
X136852127Y-94525500D01*
X138647872Y-94525499D01*
X138707483Y-94519091D01*
X138842331Y-94468796D01*
X138957546Y-94382546D01*
X139043796Y-94267331D01*
X139092810Y-94135916D01*
X139134681Y-94079984D01*
X139200145Y-94055566D01*
X139268418Y-94070417D01*
X139296673Y-94091569D01*
X139418599Y-94213495D01*
X139515384Y-94281265D01*
X139612165Y-94349032D01*
X139612167Y-94349033D01*
X139612170Y-94349035D01*
X139826337Y-94448903D01*
X140054592Y-94510063D01*
X140231034Y-94525500D01*
X140289999Y-94530659D01*
X140290000Y-94530659D01*
X140290001Y-94530659D01*
X140348966Y-94525500D01*
X140525408Y-94510063D01*
X140625873Y-94483143D01*
X140695722Y-94484806D01*
X140745647Y-94515237D01*
X146514197Y-100283788D01*
X146524022Y-100296051D01*
X146524243Y-100295869D01*
X146529214Y-100301878D01*
X146541624Y-100313531D01*
X146579635Y-100349226D01*
X146600529Y-100370120D01*
X146606011Y-100374373D01*
X146610443Y-100378157D01*
X146644418Y-100410062D01*
X146661976Y-100419714D01*
X146678235Y-100430395D01*
X146694064Y-100442673D01*
X146736838Y-100461182D01*
X146742056Y-100463738D01*
X146782908Y-100486197D01*
X146802316Y-100491180D01*
X146820717Y-100497480D01*
X146839104Y-100505437D01*
X146882488Y-100512308D01*
X146885119Y-100512725D01*
X146890839Y-100513909D01*
X146935981Y-100525500D01*
X146956016Y-100525500D01*
X146975414Y-100527026D01*
X146995194Y-100530159D01*
X146995195Y-100530160D01*
X146995195Y-100530159D01*
X146995196Y-100530160D01*
X147041584Y-100525775D01*
X147047422Y-100525500D01*
X155296252Y-100525500D01*
X155363291Y-100545185D01*
X155388400Y-100566526D01*
X155394126Y-100572885D01*
X155394130Y-100572889D01*
X155547265Y-100684148D01*
X155547270Y-100684151D01*
X155720192Y-100761142D01*
X155720197Y-100761144D01*
X155905354Y-100800500D01*
X155905355Y-100800500D01*
X156094644Y-100800500D01*
X156094646Y-100800500D01*
X156279803Y-100761144D01*
X156452730Y-100684151D01*
X156605871Y-100572888D01*
X156732533Y-100432216D01*
X156827179Y-100268284D01*
X156858286Y-100172545D01*
X156897723Y-100114871D01*
X156962082Y-100087672D01*
X157030928Y-100099586D01*
X157063898Y-100123183D01*
X160088181Y-103147466D01*
X160121666Y-103208789D01*
X160124500Y-103235147D01*
X160124500Y-106535811D01*
X160104815Y-106602850D01*
X160071623Y-106637386D01*
X159910859Y-106749953D01*
X159749954Y-106910858D01*
X159619432Y-107097265D01*
X159619430Y-107097269D01*
X159612105Y-107112978D01*
X159565931Y-107165417D01*
X159498737Y-107184567D01*
X159431857Y-107164350D01*
X159387341Y-107112974D01*
X159380132Y-107097515D01*
X159380131Y-107097512D01*
X159329026Y-107024526D01*
X159329025Y-107024526D01*
X158733075Y-107620476D01*
X158709492Y-107540157D01*
X158631760Y-107419203D01*
X158523100Y-107325048D01*
X158392315Y-107265321D01*
X158382532Y-107263914D01*
X158975472Y-106670974D01*
X158975471Y-106670973D01*
X158902483Y-106619866D01*
X158902481Y-106619865D01*
X158696326Y-106523734D01*
X158696317Y-106523730D01*
X158476610Y-106464860D01*
X158476599Y-106464858D01*
X158250002Y-106445034D01*
X158249998Y-106445034D01*
X158023400Y-106464858D01*
X158023389Y-106464860D01*
X157803682Y-106523730D01*
X157803673Y-106523734D01*
X157597513Y-106619868D01*
X157524527Y-106670972D01*
X157524526Y-106670973D01*
X158117468Y-107263914D01*
X158107685Y-107265321D01*
X157976900Y-107325048D01*
X157868240Y-107419203D01*
X157790508Y-107540157D01*
X157766923Y-107620476D01*
X157170973Y-107024526D01*
X157170972Y-107024527D01*
X157119868Y-107097513D01*
X157023734Y-107303673D01*
X157023730Y-107303682D01*
X156964860Y-107523389D01*
X156964858Y-107523400D01*
X156945034Y-107749997D01*
X156945034Y-107750002D01*
X156964858Y-107976599D01*
X156964860Y-107976610D01*
X157023730Y-108196317D01*
X157023734Y-108196326D01*
X157119865Y-108402481D01*
X157119866Y-108402483D01*
X157170973Y-108475471D01*
X157170974Y-108475472D01*
X157766923Y-107879522D01*
X157790508Y-107959843D01*
X157868240Y-108080797D01*
X157976900Y-108174952D01*
X158107685Y-108234679D01*
X158117467Y-108236085D01*
X157524526Y-108829025D01*
X157524526Y-108829026D01*
X157597512Y-108880131D01*
X157597516Y-108880133D01*
X157803673Y-108976265D01*
X157803682Y-108976269D01*
X158023389Y-109035139D01*
X158023400Y-109035141D01*
X158249998Y-109054966D01*
X158250002Y-109054966D01*
X158476599Y-109035141D01*
X158476610Y-109035139D01*
X158696317Y-108976269D01*
X158696331Y-108976264D01*
X158902478Y-108880136D01*
X158975472Y-108829025D01*
X158382533Y-108236085D01*
X158392315Y-108234679D01*
X158523100Y-108174952D01*
X158631760Y-108080797D01*
X158709492Y-107959843D01*
X158733076Y-107879523D01*
X159329025Y-108475472D01*
X159380134Y-108402481D01*
X159387340Y-108387028D01*
X159433511Y-108334587D01*
X159500704Y-108315433D01*
X159567585Y-108335646D01*
X159612105Y-108387022D01*
X159619430Y-108402730D01*
X159619432Y-108402734D01*
X159749954Y-108589141D01*
X159910858Y-108750045D01*
X159910861Y-108750047D01*
X160097266Y-108880568D01*
X160303504Y-108976739D01*
X160523308Y-109035635D01*
X160685230Y-109049801D01*
X160749998Y-109055468D01*
X160750000Y-109055468D01*
X160750002Y-109055468D01*
X160806673Y-109050509D01*
X160976692Y-109035635D01*
X161196496Y-108976739D01*
X161402734Y-108880568D01*
X161589139Y-108750047D01*
X161750047Y-108589139D01*
X161880568Y-108402734D01*
X161887618Y-108387614D01*
X161933789Y-108335176D01*
X162000982Y-108316023D01*
X162067864Y-108336238D01*
X162112381Y-108387614D01*
X162119432Y-108402733D01*
X162119432Y-108402734D01*
X162249954Y-108589141D01*
X162410858Y-108750045D01*
X162410861Y-108750047D01*
X162597266Y-108880568D01*
X162803504Y-108976739D01*
X163023308Y-109035635D01*
X163185230Y-109049801D01*
X163249998Y-109055468D01*
X163250000Y-109055468D01*
X163250002Y-109055468D01*
X163306673Y-109050509D01*
X163476692Y-109035635D01*
X163696496Y-108976739D01*
X163902734Y-108880568D01*
X164089139Y-108750047D01*
X164250047Y-108589139D01*
X164380568Y-108402734D01*
X164476739Y-108196496D01*
X164535635Y-107976692D01*
X164555468Y-107750002D01*
X168945034Y-107750002D01*
X168964858Y-107976599D01*
X168964860Y-107976610D01*
X169023730Y-108196317D01*
X169023734Y-108196326D01*
X169119865Y-108402481D01*
X169119866Y-108402483D01*
X169170973Y-108475471D01*
X169170974Y-108475472D01*
X169766923Y-107879522D01*
X169790508Y-107959843D01*
X169868240Y-108080797D01*
X169976900Y-108174952D01*
X170107685Y-108234679D01*
X170117467Y-108236085D01*
X169524526Y-108829025D01*
X169524526Y-108829026D01*
X169597512Y-108880131D01*
X169597516Y-108880133D01*
X169803673Y-108976265D01*
X169803682Y-108976269D01*
X170023389Y-109035139D01*
X170023400Y-109035141D01*
X170249998Y-109054966D01*
X170250002Y-109054966D01*
X170476599Y-109035141D01*
X170476610Y-109035139D01*
X170696317Y-108976269D01*
X170696331Y-108976264D01*
X170902478Y-108880136D01*
X170975472Y-108829025D01*
X170382533Y-108236085D01*
X170392315Y-108234679D01*
X170523100Y-108174952D01*
X170631760Y-108080797D01*
X170709492Y-107959843D01*
X170733076Y-107879523D01*
X171329025Y-108475472D01*
X171380134Y-108402481D01*
X171387340Y-108387028D01*
X171433511Y-108334587D01*
X171500704Y-108315433D01*
X171567585Y-108335646D01*
X171612105Y-108387022D01*
X171619430Y-108402730D01*
X171619432Y-108402734D01*
X171749954Y-108589141D01*
X171910858Y-108750045D01*
X171910861Y-108750047D01*
X172097266Y-108880568D01*
X172303504Y-108976739D01*
X172523308Y-109035635D01*
X172685230Y-109049801D01*
X172749998Y-109055468D01*
X172750000Y-109055468D01*
X172750002Y-109055468D01*
X172806673Y-109050509D01*
X172976692Y-109035635D01*
X173196496Y-108976739D01*
X173402734Y-108880568D01*
X173589139Y-108750047D01*
X173750047Y-108589139D01*
X173880568Y-108402734D01*
X173887618Y-108387614D01*
X173933789Y-108335176D01*
X174000982Y-108316023D01*
X174067864Y-108336238D01*
X174112381Y-108387614D01*
X174119432Y-108402733D01*
X174119432Y-108402734D01*
X174249954Y-108589141D01*
X174410858Y-108750045D01*
X174410861Y-108750047D01*
X174597266Y-108880568D01*
X174803504Y-108976739D01*
X175023308Y-109035635D01*
X175185230Y-109049801D01*
X175249998Y-109055468D01*
X175250000Y-109055468D01*
X175250002Y-109055468D01*
X175306673Y-109050509D01*
X175476692Y-109035635D01*
X175696496Y-108976739D01*
X175902734Y-108880568D01*
X176089139Y-108750047D01*
X176250047Y-108589139D01*
X176380568Y-108402734D01*
X176476739Y-108196496D01*
X176535635Y-107976692D01*
X176555468Y-107750002D01*
X182945034Y-107750002D01*
X182964858Y-107976599D01*
X182964860Y-107976610D01*
X183023730Y-108196317D01*
X183023734Y-108196326D01*
X183119865Y-108402481D01*
X183119866Y-108402483D01*
X183170973Y-108475471D01*
X183170974Y-108475472D01*
X183766923Y-107879522D01*
X183790508Y-107959843D01*
X183868240Y-108080797D01*
X183976900Y-108174952D01*
X184107685Y-108234679D01*
X184117467Y-108236085D01*
X183524526Y-108829025D01*
X183524526Y-108829026D01*
X183597512Y-108880131D01*
X183597516Y-108880133D01*
X183803673Y-108976265D01*
X183803682Y-108976269D01*
X184023389Y-109035139D01*
X184023400Y-109035141D01*
X184249998Y-109054966D01*
X184250002Y-109054966D01*
X184476599Y-109035141D01*
X184476610Y-109035139D01*
X184696317Y-108976269D01*
X184696331Y-108976264D01*
X184902478Y-108880136D01*
X184975472Y-108829025D01*
X184382533Y-108236085D01*
X184392315Y-108234679D01*
X184523100Y-108174952D01*
X184631760Y-108080797D01*
X184709492Y-107959843D01*
X184733076Y-107879523D01*
X185329025Y-108475472D01*
X185380134Y-108402481D01*
X185387340Y-108387028D01*
X185433511Y-108334587D01*
X185500704Y-108315433D01*
X185567585Y-108335646D01*
X185612105Y-108387022D01*
X185619430Y-108402730D01*
X185619432Y-108402734D01*
X185749954Y-108589141D01*
X185910858Y-108750045D01*
X185910861Y-108750047D01*
X186097266Y-108880568D01*
X186303504Y-108976739D01*
X186523308Y-109035635D01*
X186685230Y-109049801D01*
X186749998Y-109055468D01*
X186750000Y-109055468D01*
X186750002Y-109055468D01*
X186806673Y-109050509D01*
X186976692Y-109035635D01*
X187196496Y-108976739D01*
X187402734Y-108880568D01*
X187589139Y-108750047D01*
X187750047Y-108589139D01*
X187880568Y-108402734D01*
X187887618Y-108387614D01*
X187933789Y-108335176D01*
X188000982Y-108316023D01*
X188067864Y-108336238D01*
X188112381Y-108387614D01*
X188119432Y-108402733D01*
X188119432Y-108402734D01*
X188249954Y-108589141D01*
X188410858Y-108750045D01*
X188410861Y-108750047D01*
X188597266Y-108880568D01*
X188803504Y-108976739D01*
X189023308Y-109035635D01*
X189185230Y-109049801D01*
X189249998Y-109055468D01*
X189250000Y-109055468D01*
X189250002Y-109055468D01*
X189306673Y-109050509D01*
X189476692Y-109035635D01*
X189696496Y-108976739D01*
X189902734Y-108880568D01*
X190089139Y-108750047D01*
X190250047Y-108589139D01*
X190380568Y-108402734D01*
X190476739Y-108196496D01*
X190535635Y-107976692D01*
X190555468Y-107750000D01*
X190552843Y-107720001D01*
X190549179Y-107678111D01*
X190535635Y-107523308D01*
X190481023Y-107319492D01*
X190476741Y-107303511D01*
X190476738Y-107303502D01*
X190461206Y-107270194D01*
X190380568Y-107097266D01*
X190250047Y-106910861D01*
X190250045Y-106910858D01*
X190089141Y-106749954D01*
X189902734Y-106619432D01*
X189902732Y-106619431D01*
X189696497Y-106523261D01*
X189696488Y-106523258D01*
X189476697Y-106464366D01*
X189476693Y-106464365D01*
X189476692Y-106464365D01*
X189476691Y-106464364D01*
X189476686Y-106464364D01*
X189250002Y-106444532D01*
X189249998Y-106444532D01*
X189023313Y-106464364D01*
X189023302Y-106464366D01*
X188803511Y-106523258D01*
X188803502Y-106523261D01*
X188597267Y-106619431D01*
X188597265Y-106619432D01*
X188410858Y-106749954D01*
X188249954Y-106910858D01*
X188119433Y-107097264D01*
X188119432Y-107097266D01*
X188112380Y-107112387D01*
X188066209Y-107164825D01*
X187999015Y-107183976D01*
X187932134Y-107163760D01*
X187887619Y-107112387D01*
X187880568Y-107097266D01*
X187750047Y-106910861D01*
X187750045Y-106910858D01*
X187589141Y-106749954D01*
X187402734Y-106619432D01*
X187402732Y-106619431D01*
X187196497Y-106523261D01*
X187196488Y-106523258D01*
X186976697Y-106464366D01*
X186976693Y-106464365D01*
X186976692Y-106464365D01*
X186976691Y-106464364D01*
X186976686Y-106464364D01*
X186750002Y-106444532D01*
X186749998Y-106444532D01*
X186523313Y-106464364D01*
X186523302Y-106464366D01*
X186303511Y-106523258D01*
X186303502Y-106523261D01*
X186097267Y-106619431D01*
X186097265Y-106619432D01*
X185910858Y-106749954D01*
X185749954Y-106910858D01*
X185619432Y-107097265D01*
X185619430Y-107097269D01*
X185612105Y-107112978D01*
X185565931Y-107165417D01*
X185498737Y-107184567D01*
X185431857Y-107164350D01*
X185387341Y-107112974D01*
X185380132Y-107097515D01*
X185380131Y-107097512D01*
X185329026Y-107024526D01*
X185329025Y-107024526D01*
X184733075Y-107620476D01*
X184709492Y-107540157D01*
X184631760Y-107419203D01*
X184523100Y-107325048D01*
X184392315Y-107265321D01*
X184382532Y-107263914D01*
X184975472Y-106670974D01*
X184975471Y-106670973D01*
X184902483Y-106619866D01*
X184902481Y-106619865D01*
X184696326Y-106523734D01*
X184696317Y-106523730D01*
X184476610Y-106464860D01*
X184476599Y-106464858D01*
X184250002Y-106445034D01*
X184249998Y-106445034D01*
X184023400Y-106464858D01*
X184023389Y-106464860D01*
X183803682Y-106523730D01*
X183803673Y-106523734D01*
X183597513Y-106619868D01*
X183524527Y-106670972D01*
X183524526Y-106670973D01*
X184117468Y-107263914D01*
X184107685Y-107265321D01*
X183976900Y-107325048D01*
X183868240Y-107419203D01*
X183790508Y-107540157D01*
X183766923Y-107620476D01*
X183170973Y-107024526D01*
X183170972Y-107024527D01*
X183119868Y-107097513D01*
X183023734Y-107303673D01*
X183023730Y-107303682D01*
X182964860Y-107523389D01*
X182964858Y-107523400D01*
X182945034Y-107749997D01*
X182945034Y-107750002D01*
X176555468Y-107750002D01*
X176555468Y-107750000D01*
X176552843Y-107720001D01*
X176549179Y-107678111D01*
X176535635Y-107523308D01*
X176481023Y-107319492D01*
X176476741Y-107303511D01*
X176476738Y-107303502D01*
X176461206Y-107270194D01*
X176380568Y-107097266D01*
X176250047Y-106910861D01*
X176250045Y-106910858D01*
X176089141Y-106749954D01*
X175902734Y-106619432D01*
X175902732Y-106619431D01*
X175696497Y-106523261D01*
X175696488Y-106523258D01*
X175476697Y-106464366D01*
X175476693Y-106464365D01*
X175476692Y-106464365D01*
X175476691Y-106464364D01*
X175476686Y-106464364D01*
X175250002Y-106444532D01*
X175249998Y-106444532D01*
X175023313Y-106464364D01*
X175023302Y-106464366D01*
X174803511Y-106523258D01*
X174803502Y-106523261D01*
X174597267Y-106619431D01*
X174597265Y-106619432D01*
X174410858Y-106749954D01*
X174249954Y-106910858D01*
X174119433Y-107097264D01*
X174119432Y-107097266D01*
X174112380Y-107112387D01*
X174066209Y-107164825D01*
X173999015Y-107183976D01*
X173932134Y-107163760D01*
X173887619Y-107112387D01*
X173880568Y-107097266D01*
X173750047Y-106910861D01*
X173750045Y-106910858D01*
X173589141Y-106749954D01*
X173402734Y-106619432D01*
X173402732Y-106619431D01*
X173196497Y-106523261D01*
X173196488Y-106523258D01*
X172976697Y-106464366D01*
X172976693Y-106464365D01*
X172976692Y-106464365D01*
X172976691Y-106464364D01*
X172976686Y-106464364D01*
X172750002Y-106444532D01*
X172749998Y-106444532D01*
X172523313Y-106464364D01*
X172523302Y-106464366D01*
X172303511Y-106523258D01*
X172303502Y-106523261D01*
X172097267Y-106619431D01*
X172097265Y-106619432D01*
X171910858Y-106749954D01*
X171749954Y-106910858D01*
X171619432Y-107097265D01*
X171619430Y-107097269D01*
X171612105Y-107112978D01*
X171565931Y-107165417D01*
X171498737Y-107184567D01*
X171431857Y-107164350D01*
X171387341Y-107112974D01*
X171380132Y-107097515D01*
X171380131Y-107097512D01*
X171329026Y-107024526D01*
X170733075Y-107620476D01*
X170709492Y-107540157D01*
X170631760Y-107419203D01*
X170523100Y-107325048D01*
X170392315Y-107265321D01*
X170382532Y-107263914D01*
X170975472Y-106670974D01*
X170975471Y-106670973D01*
X170902483Y-106619866D01*
X170902481Y-106619865D01*
X170696326Y-106523734D01*
X170696317Y-106523730D01*
X170476610Y-106464860D01*
X170476599Y-106464858D01*
X170250002Y-106445034D01*
X170249998Y-106445034D01*
X170023400Y-106464858D01*
X170023389Y-106464860D01*
X169803682Y-106523730D01*
X169803673Y-106523734D01*
X169597513Y-106619868D01*
X169524527Y-106670972D01*
X169524526Y-106670973D01*
X170117468Y-107263914D01*
X170107685Y-107265321D01*
X169976900Y-107325048D01*
X169868240Y-107419203D01*
X169790508Y-107540157D01*
X169766923Y-107620476D01*
X169170973Y-107024526D01*
X169170972Y-107024527D01*
X169119868Y-107097513D01*
X169023734Y-107303673D01*
X169023730Y-107303682D01*
X168964860Y-107523389D01*
X168964858Y-107523400D01*
X168945034Y-107749997D01*
X168945034Y-107750002D01*
X164555468Y-107750002D01*
X164555468Y-107750000D01*
X164552843Y-107720001D01*
X164549179Y-107678111D01*
X164535635Y-107523308D01*
X164481023Y-107319492D01*
X164476741Y-107303511D01*
X164476738Y-107303502D01*
X164461206Y-107270194D01*
X164380568Y-107097266D01*
X164250047Y-106910861D01*
X164250045Y-106910858D01*
X164089141Y-106749954D01*
X163902734Y-106619432D01*
X163902732Y-106619431D01*
X163696497Y-106523261D01*
X163696488Y-106523258D01*
X163476697Y-106464366D01*
X163476693Y-106464365D01*
X163476692Y-106464365D01*
X163476691Y-106464364D01*
X163476686Y-106464364D01*
X163250002Y-106444532D01*
X163249998Y-106444532D01*
X163023313Y-106464364D01*
X163023302Y-106464366D01*
X162803511Y-106523258D01*
X162803502Y-106523261D01*
X162597267Y-106619431D01*
X162597265Y-106619432D01*
X162410858Y-106749954D01*
X162249954Y-106910858D01*
X162119433Y-107097264D01*
X162119432Y-107097266D01*
X162112380Y-107112387D01*
X162066209Y-107164825D01*
X161999015Y-107183976D01*
X161932134Y-107163760D01*
X161887619Y-107112387D01*
X161880568Y-107097266D01*
X161750047Y-106910861D01*
X161750045Y-106910858D01*
X161589140Y-106749953D01*
X161428377Y-106637386D01*
X161384752Y-106582809D01*
X161375500Y-106535811D01*
X161375500Y-103007432D01*
X161377224Y-102991818D01*
X161376938Y-102991791D01*
X161377672Y-102984028D01*
X161375500Y-102914898D01*
X161375500Y-102885346D01*
X161375500Y-102885345D01*
X161374629Y-102878454D01*
X161374172Y-102872640D01*
X161372709Y-102826067D01*
X161367122Y-102806839D01*
X161363174Y-102787779D01*
X161361805Y-102776938D01*
X161360664Y-102767903D01*
X161343507Y-102724570D01*
X161341619Y-102719054D01*
X161328619Y-102674307D01*
X161318418Y-102657058D01*
X161309860Y-102639589D01*
X161302486Y-102620963D01*
X161302483Y-102620959D01*
X161302483Y-102620958D01*
X161275098Y-102583266D01*
X161271890Y-102578382D01*
X161248172Y-102538277D01*
X161248163Y-102538266D01*
X161234005Y-102524108D01*
X161221370Y-102509315D01*
X161209593Y-102493107D01*
X161173693Y-102463408D01*
X161169381Y-102459485D01*
X157226108Y-98516212D01*
X157216285Y-98503950D01*
X157216064Y-98504134D01*
X157211091Y-98498123D01*
X157160669Y-98450773D01*
X157150224Y-98440328D01*
X157139780Y-98429883D01*
X157134291Y-98425625D01*
X157129866Y-98421847D01*
X157095887Y-98389938D01*
X157095885Y-98389936D01*
X157095882Y-98389935D01*
X157078334Y-98380288D01*
X157062068Y-98369604D01*
X157046238Y-98357325D01*
X157003473Y-98338818D01*
X156998227Y-98336248D01*
X156957398Y-98313803D01*
X156957397Y-98313802D01*
X156937998Y-98308822D01*
X156919586Y-98302518D01*
X156901203Y-98294562D01*
X156901197Y-98294560D01*
X156855179Y-98287272D01*
X156849457Y-98286087D01*
X156804326Y-98274500D01*
X156804324Y-98274500D01*
X156784289Y-98274500D01*
X156764891Y-98272973D01*
X156757467Y-98271797D01*
X156745110Y-98269840D01*
X156745109Y-98269840D01*
X156698721Y-98274225D01*
X156692883Y-98274500D01*
X147910452Y-98274500D01*
X147843413Y-98254815D01*
X147822771Y-98238181D01*
X143837424Y-94252833D01*
X143803939Y-94191510D01*
X143808923Y-94121818D01*
X143837423Y-94077472D01*
X143868495Y-94046401D01*
X143998426Y-93860840D01*
X144053001Y-93817217D01*
X144122499Y-93810023D01*
X144184854Y-93841546D01*
X144201574Y-93860841D01*
X144331505Y-94046401D01*
X144498599Y-94213495D01*
X144595384Y-94281265D01*
X144692165Y-94349032D01*
X144692167Y-94349033D01*
X144692170Y-94349035D01*
X144906337Y-94448903D01*
X145134592Y-94510063D01*
X145311034Y-94525500D01*
X145369999Y-94530659D01*
X145370000Y-94530659D01*
X145370001Y-94530659D01*
X145428966Y-94525500D01*
X145605408Y-94510063D01*
X145833663Y-94448903D01*
X146047830Y-94349035D01*
X146241401Y-94213495D01*
X146408495Y-94046401D01*
X146538426Y-93860841D01*
X146593002Y-93817217D01*
X146662500Y-93810023D01*
X146724855Y-93841546D01*
X146741575Y-93860842D01*
X146871281Y-94046082D01*
X146871505Y-94046401D01*
X147038599Y-94213495D01*
X147135384Y-94281265D01*
X147232165Y-94349032D01*
X147232167Y-94349033D01*
X147232170Y-94349035D01*
X147446337Y-94448903D01*
X147674592Y-94510063D01*
X147851034Y-94525500D01*
X147909999Y-94530659D01*
X147910000Y-94530659D01*
X147910001Y-94530659D01*
X147968966Y-94525500D01*
X148145408Y-94510063D01*
X148373663Y-94448903D01*
X148587830Y-94349035D01*
X148781401Y-94213495D01*
X148948495Y-94046401D01*
X149078426Y-93860841D01*
X149133002Y-93817217D01*
X149202500Y-93810023D01*
X149264855Y-93841546D01*
X149281575Y-93860842D01*
X149411281Y-94046082D01*
X149411505Y-94046401D01*
X149578599Y-94213495D01*
X149675384Y-94281265D01*
X149772165Y-94349032D01*
X149772167Y-94349033D01*
X149772170Y-94349035D01*
X149986337Y-94448903D01*
X150214592Y-94510063D01*
X150391034Y-94525500D01*
X150449999Y-94530659D01*
X150450000Y-94530659D01*
X150450001Y-94530659D01*
X150508966Y-94525500D01*
X150685408Y-94510063D01*
X150913663Y-94448903D01*
X151127830Y-94349035D01*
X151321401Y-94213495D01*
X151488495Y-94046401D01*
X151618426Y-93860841D01*
X151673002Y-93817217D01*
X151742500Y-93810023D01*
X151804855Y-93841546D01*
X151821575Y-93860842D01*
X151951281Y-94046082D01*
X151951505Y-94046401D01*
X152118599Y-94213495D01*
X152215384Y-94281265D01*
X152312165Y-94349032D01*
X152312167Y-94349033D01*
X152312170Y-94349035D01*
X152526337Y-94448903D01*
X152754592Y-94510063D01*
X152931034Y-94525500D01*
X152989999Y-94530659D01*
X152990000Y-94530659D01*
X152990001Y-94530659D01*
X153048966Y-94525500D01*
X153225408Y-94510063D01*
X153453663Y-94448903D01*
X153667830Y-94349035D01*
X153861401Y-94213495D01*
X154028495Y-94046401D01*
X154158426Y-93860841D01*
X154213002Y-93817217D01*
X154282500Y-93810023D01*
X154344855Y-93841546D01*
X154361575Y-93860842D01*
X154491281Y-94046082D01*
X154491505Y-94046401D01*
X154658599Y-94213495D01*
X154755384Y-94281265D01*
X154852165Y-94349032D01*
X154852167Y-94349033D01*
X154852170Y-94349035D01*
X155066337Y-94448903D01*
X155294592Y-94510063D01*
X155471034Y-94525500D01*
X155529999Y-94530659D01*
X155530000Y-94530659D01*
X155530001Y-94530659D01*
X155588966Y-94525500D01*
X155765408Y-94510063D01*
X155993663Y-94448903D01*
X156207830Y-94349035D01*
X156401401Y-94213495D01*
X156568495Y-94046401D01*
X156698730Y-93860405D01*
X156753307Y-93816781D01*
X156822805Y-93809587D01*
X156885160Y-93841110D01*
X156901879Y-93860405D01*
X157031890Y-94046078D01*
X157198917Y-94213105D01*
X157392421Y-94348600D01*
X157606507Y-94448429D01*
X157606516Y-94448433D01*
X157820000Y-94505634D01*
X157820000Y-93610501D01*
X157927685Y-93659680D01*
X158034237Y-93675000D01*
X158105763Y-93675000D01*
X158212315Y-93659680D01*
X158320000Y-93610501D01*
X158320000Y-94505633D01*
X158533483Y-94448433D01*
X158533492Y-94448429D01*
X158747578Y-94348600D01*
X158941082Y-94213105D01*
X159108105Y-94046082D01*
X159243600Y-93852578D01*
X159343429Y-93638492D01*
X159343432Y-93638486D01*
X159400636Y-93425000D01*
X158503686Y-93425000D01*
X158529493Y-93384844D01*
X158570000Y-93246889D01*
X158570000Y-93103111D01*
X158529493Y-92965156D01*
X158503686Y-92925000D01*
X159400636Y-92925000D01*
X159400635Y-92924999D01*
X159343432Y-92711513D01*
X159343429Y-92711507D01*
X159243600Y-92497422D01*
X159243599Y-92497420D01*
X159171970Y-92395123D01*
X159149643Y-92328917D01*
X159166653Y-92261150D01*
X159217601Y-92213337D01*
X159273545Y-92200000D01*
X178352541Y-92200000D01*
X178419580Y-92219685D01*
X178435331Y-92231686D01*
X180251425Y-93860405D01*
X190958791Y-103463042D01*
X190995556Y-103522455D01*
X191000000Y-103555355D01*
X191000000Y-118876000D01*
X190980315Y-118943039D01*
X190927511Y-118988794D01*
X190876000Y-119000000D01*
X151683951Y-119000000D01*
X151616912Y-118980315D01*
X151571157Y-118927511D01*
X151561213Y-118858353D01*
X151590238Y-118794797D01*
X151596270Y-118788319D01*
X152893786Y-117490802D01*
X152906048Y-117480980D01*
X152905865Y-117480759D01*
X152911867Y-117475792D01*
X152911877Y-117475786D01*
X152959241Y-117425348D01*
X152980120Y-117404470D01*
X152984373Y-117398986D01*
X152988150Y-117394563D01*
X153020062Y-117360582D01*
X153029714Y-117343023D01*
X153040389Y-117326772D01*
X153052674Y-117310936D01*
X153071186Y-117268152D01*
X153073742Y-117262935D01*
X153096197Y-117222092D01*
X153101180Y-117202680D01*
X153107477Y-117184291D01*
X153115438Y-117165895D01*
X153122729Y-117119853D01*
X153123908Y-117114162D01*
X153135500Y-117069019D01*
X153135500Y-117048983D01*
X153137027Y-117029582D01*
X153140160Y-117009804D01*
X153135775Y-116963415D01*
X153135500Y-116957577D01*
X153135500Y-113997870D01*
X156949500Y-113997870D01*
X156949501Y-113997876D01*
X156955908Y-114057483D01*
X157006202Y-114192328D01*
X157006206Y-114192335D01*
X157092452Y-114307544D01*
X157092455Y-114307547D01*
X157207664Y-114393793D01*
X157207671Y-114393797D01*
X157342517Y-114444091D01*
X157342516Y-114444091D01*
X157349444Y-114444835D01*
X157402127Y-114450500D01*
X159097872Y-114450499D01*
X159157483Y-114444091D01*
X159292331Y-114393796D01*
X159407546Y-114307546D01*
X159493796Y-114192331D01*
X159544091Y-114057483D01*
X159544092Y-114057472D01*
X159545365Y-114052088D01*
X159579933Y-113991369D01*
X159641841Y-113958978D01*
X159711433Y-113965199D01*
X159753725Y-113992912D01*
X159910858Y-114150045D01*
X159910861Y-114150047D01*
X160097266Y-114280568D01*
X160303504Y-114376739D01*
X160303509Y-114376740D01*
X160303511Y-114376741D01*
X160356415Y-114390916D01*
X160523308Y-114435635D01*
X160685230Y-114449801D01*
X160749998Y-114455468D01*
X160750000Y-114455468D01*
X160750002Y-114455468D01*
X160806807Y-114450498D01*
X160976692Y-114435635D01*
X161196496Y-114376739D01*
X161402734Y-114280568D01*
X161589139Y-114150047D01*
X161750047Y-113989139D01*
X161880568Y-113802734D01*
X161887618Y-113787614D01*
X161933789Y-113735176D01*
X162000982Y-113716023D01*
X162067864Y-113736238D01*
X162112381Y-113787614D01*
X162119432Y-113802733D01*
X162119432Y-113802734D01*
X162249954Y-113989141D01*
X162410858Y-114150045D01*
X162410861Y-114150047D01*
X162597266Y-114280568D01*
X162803504Y-114376739D01*
X162803509Y-114376740D01*
X162803511Y-114376741D01*
X162856415Y-114390916D01*
X163023308Y-114435635D01*
X163185230Y-114449801D01*
X163249998Y-114455468D01*
X163250000Y-114455468D01*
X163250002Y-114455468D01*
X163306807Y-114450498D01*
X163476692Y-114435635D01*
X163696496Y-114376739D01*
X163902734Y-114280568D01*
X164089139Y-114150047D01*
X164241316Y-113997870D01*
X168949500Y-113997870D01*
X168949501Y-113997876D01*
X168955908Y-114057483D01*
X169006202Y-114192328D01*
X169006206Y-114192335D01*
X169092452Y-114307544D01*
X169092455Y-114307547D01*
X169207664Y-114393793D01*
X169207671Y-114393797D01*
X169342517Y-114444091D01*
X169342516Y-114444091D01*
X169349444Y-114444835D01*
X169402127Y-114450500D01*
X171097872Y-114450499D01*
X171157483Y-114444091D01*
X171292331Y-114393796D01*
X171407546Y-114307546D01*
X171493796Y-114192331D01*
X171544091Y-114057483D01*
X171544092Y-114057472D01*
X171545365Y-114052088D01*
X171579933Y-113991369D01*
X171641841Y-113958978D01*
X171711433Y-113965199D01*
X171753725Y-113992912D01*
X171910858Y-114150045D01*
X171910861Y-114150047D01*
X172097266Y-114280568D01*
X172303504Y-114376739D01*
X172303509Y-114376740D01*
X172303511Y-114376741D01*
X172356415Y-114390916D01*
X172523308Y-114435635D01*
X172685230Y-114449801D01*
X172749998Y-114455468D01*
X172750000Y-114455468D01*
X172750002Y-114455468D01*
X172806807Y-114450498D01*
X172976692Y-114435635D01*
X173196496Y-114376739D01*
X173402734Y-114280568D01*
X173589139Y-114150047D01*
X173750047Y-113989139D01*
X173880568Y-113802734D01*
X173887618Y-113787614D01*
X173933789Y-113735176D01*
X174000982Y-113716023D01*
X174067864Y-113736238D01*
X174112381Y-113787614D01*
X174119432Y-113802733D01*
X174119432Y-113802734D01*
X174249954Y-113989141D01*
X174410858Y-114150045D01*
X174410861Y-114150047D01*
X174597266Y-114280568D01*
X174803504Y-114376739D01*
X174803509Y-114376740D01*
X174803511Y-114376741D01*
X174856415Y-114390916D01*
X175023308Y-114435635D01*
X175185230Y-114449801D01*
X175249998Y-114455468D01*
X175250000Y-114455468D01*
X175250002Y-114455468D01*
X175306807Y-114450498D01*
X175476692Y-114435635D01*
X175696496Y-114376739D01*
X175902734Y-114280568D01*
X176089139Y-114150047D01*
X176241316Y-113997870D01*
X182949500Y-113997870D01*
X182949501Y-113997876D01*
X182955908Y-114057483D01*
X183006202Y-114192328D01*
X183006206Y-114192335D01*
X183092452Y-114307544D01*
X183092455Y-114307547D01*
X183207664Y-114393793D01*
X183207671Y-114393797D01*
X183342517Y-114444091D01*
X183342516Y-114444091D01*
X183349444Y-114444835D01*
X183402127Y-114450500D01*
X185097872Y-114450499D01*
X185157483Y-114444091D01*
X185292331Y-114393796D01*
X185407546Y-114307546D01*
X185493796Y-114192331D01*
X185544091Y-114057483D01*
X185544092Y-114057472D01*
X185545365Y-114052088D01*
X185579933Y-113991369D01*
X185641841Y-113958978D01*
X185711433Y-113965199D01*
X185753725Y-113992912D01*
X185910858Y-114150045D01*
X185910861Y-114150047D01*
X186097266Y-114280568D01*
X186303504Y-114376739D01*
X186303509Y-114376740D01*
X186303511Y-114376741D01*
X186356415Y-114390916D01*
X186523308Y-114435635D01*
X186685230Y-114449801D01*
X186749998Y-114455468D01*
X186750000Y-114455468D01*
X186750002Y-114455468D01*
X186806807Y-114450498D01*
X186976692Y-114435635D01*
X187196496Y-114376739D01*
X187402734Y-114280568D01*
X187589139Y-114150047D01*
X187750047Y-113989139D01*
X187880568Y-113802734D01*
X187887618Y-113787614D01*
X187933789Y-113735176D01*
X188000982Y-113716023D01*
X188067864Y-113736238D01*
X188112381Y-113787614D01*
X188119432Y-113802733D01*
X188119432Y-113802734D01*
X188249954Y-113989141D01*
X188410858Y-114150045D01*
X188410861Y-114150047D01*
X188597266Y-114280568D01*
X188803504Y-114376739D01*
X188803509Y-114376740D01*
X188803511Y-114376741D01*
X188856415Y-114390916D01*
X189023308Y-114435635D01*
X189185230Y-114449801D01*
X189249998Y-114455468D01*
X189250000Y-114455468D01*
X189250002Y-114455468D01*
X189306807Y-114450498D01*
X189476692Y-114435635D01*
X189696496Y-114376739D01*
X189902734Y-114280568D01*
X190089139Y-114150047D01*
X190250047Y-113989139D01*
X190380568Y-113802734D01*
X190476739Y-113596496D01*
X190535635Y-113376692D01*
X190555468Y-113150000D01*
X190535635Y-112923308D01*
X190476739Y-112703504D01*
X190380568Y-112497266D01*
X190250047Y-112310861D01*
X190250045Y-112310858D01*
X190089141Y-112149954D01*
X189902734Y-112019432D01*
X189902732Y-112019431D01*
X189696497Y-111923261D01*
X189696488Y-111923258D01*
X189476697Y-111864366D01*
X189476693Y-111864365D01*
X189476692Y-111864365D01*
X189476691Y-111864364D01*
X189476686Y-111864364D01*
X189250002Y-111844532D01*
X189249998Y-111844532D01*
X189023313Y-111864364D01*
X189023302Y-111864366D01*
X188803511Y-111923258D01*
X188803502Y-111923261D01*
X188597267Y-112019431D01*
X188597265Y-112019432D01*
X188410858Y-112149954D01*
X188249954Y-112310858D01*
X188119433Y-112497264D01*
X188119432Y-112497266D01*
X188112380Y-112512387D01*
X188066209Y-112564825D01*
X187999015Y-112583976D01*
X187932134Y-112563760D01*
X187887619Y-112512387D01*
X187880568Y-112497266D01*
X187750047Y-112310861D01*
X187750045Y-112310858D01*
X187589141Y-112149954D01*
X187402734Y-112019432D01*
X187402732Y-112019431D01*
X187196497Y-111923261D01*
X187196488Y-111923258D01*
X186976697Y-111864366D01*
X186976693Y-111864365D01*
X186976692Y-111864365D01*
X186976691Y-111864364D01*
X186976686Y-111864364D01*
X186750002Y-111844532D01*
X186749998Y-111844532D01*
X186523313Y-111864364D01*
X186523302Y-111864366D01*
X186303511Y-111923258D01*
X186303502Y-111923261D01*
X186097267Y-112019431D01*
X186097265Y-112019432D01*
X185910862Y-112149951D01*
X185753726Y-112307087D01*
X185692403Y-112340571D01*
X185622711Y-112335587D01*
X185566778Y-112293715D01*
X185545369Y-112247923D01*
X185544091Y-112242518D01*
X185493797Y-112107671D01*
X185493793Y-112107664D01*
X185407547Y-111992455D01*
X185407544Y-111992452D01*
X185292335Y-111906206D01*
X185292328Y-111906202D01*
X185157482Y-111855908D01*
X185157483Y-111855908D01*
X185097883Y-111849501D01*
X185097881Y-111849500D01*
X185097873Y-111849500D01*
X185097864Y-111849500D01*
X183402129Y-111849500D01*
X183402123Y-111849501D01*
X183342516Y-111855908D01*
X183207671Y-111906202D01*
X183207664Y-111906206D01*
X183092455Y-111992452D01*
X183092452Y-111992455D01*
X183006206Y-112107664D01*
X183006202Y-112107671D01*
X182955908Y-112242517D01*
X182949501Y-112302116D01*
X182949500Y-112302135D01*
X182949500Y-113997870D01*
X176241316Y-113997870D01*
X176250047Y-113989139D01*
X176380568Y-113802734D01*
X176476739Y-113596496D01*
X176535635Y-113376692D01*
X176555468Y-113150000D01*
X176535635Y-112923308D01*
X176476739Y-112703504D01*
X176380568Y-112497266D01*
X176250047Y-112310861D01*
X176250045Y-112310858D01*
X176089141Y-112149954D01*
X175902734Y-112019432D01*
X175902732Y-112019431D01*
X175696497Y-111923261D01*
X175696488Y-111923258D01*
X175476697Y-111864366D01*
X175476693Y-111864365D01*
X175476692Y-111864365D01*
X175476691Y-111864364D01*
X175476686Y-111864364D01*
X175250002Y-111844532D01*
X175249998Y-111844532D01*
X175023313Y-111864364D01*
X175023302Y-111864366D01*
X174803511Y-111923258D01*
X174803502Y-111923261D01*
X174597267Y-112019431D01*
X174597265Y-112019432D01*
X174410858Y-112149954D01*
X174249954Y-112310858D01*
X174119433Y-112497264D01*
X174119432Y-112497266D01*
X174112380Y-112512387D01*
X174066209Y-112564825D01*
X173999015Y-112583976D01*
X173932134Y-112563760D01*
X173887619Y-112512387D01*
X173880568Y-112497266D01*
X173750047Y-112310861D01*
X173750045Y-112310858D01*
X173589141Y-112149954D01*
X173402734Y-112019432D01*
X173402732Y-112019431D01*
X173196497Y-111923261D01*
X173196488Y-111923258D01*
X172976697Y-111864366D01*
X172976693Y-111864365D01*
X172976692Y-111864365D01*
X172976691Y-111864364D01*
X172976686Y-111864364D01*
X172750002Y-111844532D01*
X172749998Y-111844532D01*
X172523313Y-111864364D01*
X172523302Y-111864366D01*
X172303511Y-111923258D01*
X172303502Y-111923261D01*
X172097267Y-112019431D01*
X172097265Y-112019432D01*
X171910862Y-112149951D01*
X171753726Y-112307087D01*
X171692403Y-112340571D01*
X171622711Y-112335587D01*
X171566778Y-112293715D01*
X171545369Y-112247923D01*
X171544091Y-112242518D01*
X171493797Y-112107671D01*
X171493793Y-112107664D01*
X171407547Y-111992455D01*
X171407544Y-111992452D01*
X171292335Y-111906206D01*
X171292328Y-111906202D01*
X171157482Y-111855908D01*
X171157483Y-111855908D01*
X171097883Y-111849501D01*
X171097881Y-111849500D01*
X171097873Y-111849500D01*
X171097864Y-111849500D01*
X169402129Y-111849500D01*
X169402123Y-111849501D01*
X169342516Y-111855908D01*
X169207671Y-111906202D01*
X169207664Y-111906206D01*
X169092455Y-111992452D01*
X169092452Y-111992455D01*
X169006206Y-112107664D01*
X169006202Y-112107671D01*
X168955908Y-112242517D01*
X168949501Y-112302116D01*
X168949500Y-112302135D01*
X168949500Y-113997870D01*
X164241316Y-113997870D01*
X164250047Y-113989139D01*
X164380568Y-113802734D01*
X164476739Y-113596496D01*
X164535635Y-113376692D01*
X164555468Y-113150000D01*
X164535635Y-112923308D01*
X164476739Y-112703504D01*
X164380568Y-112497266D01*
X164250047Y-112310861D01*
X164250045Y-112310858D01*
X164089141Y-112149954D01*
X163902734Y-112019432D01*
X163902732Y-112019431D01*
X163696497Y-111923261D01*
X163696488Y-111923258D01*
X163476697Y-111864366D01*
X163476693Y-111864365D01*
X163476692Y-111864365D01*
X163476691Y-111864364D01*
X163476686Y-111864364D01*
X163250002Y-111844532D01*
X163249998Y-111844532D01*
X163023313Y-111864364D01*
X163023302Y-111864366D01*
X162803511Y-111923258D01*
X162803502Y-111923261D01*
X162597267Y-112019431D01*
X162597265Y-112019432D01*
X162410858Y-112149954D01*
X162249954Y-112310858D01*
X162119433Y-112497264D01*
X162119432Y-112497266D01*
X162112380Y-112512387D01*
X162066209Y-112564825D01*
X161999015Y-112583976D01*
X161932134Y-112563760D01*
X161887619Y-112512387D01*
X161880568Y-112497266D01*
X161750047Y-112310861D01*
X161750045Y-112310858D01*
X161589141Y-112149954D01*
X161402734Y-112019432D01*
X161402732Y-112019431D01*
X161196497Y-111923261D01*
X161196488Y-111923258D01*
X160976697Y-111864366D01*
X160976693Y-111864365D01*
X160976692Y-111864365D01*
X160976691Y-111864364D01*
X160976686Y-111864364D01*
X160750002Y-111844532D01*
X160749998Y-111844532D01*
X160523313Y-111864364D01*
X160523302Y-111864366D01*
X160303511Y-111923258D01*
X160303502Y-111923261D01*
X160097267Y-112019431D01*
X160097265Y-112019432D01*
X159910862Y-112149951D01*
X159753726Y-112307087D01*
X159692403Y-112340571D01*
X159622711Y-112335587D01*
X159566778Y-112293715D01*
X159545369Y-112247923D01*
X159544091Y-112242518D01*
X159493797Y-112107671D01*
X159493793Y-112107664D01*
X159407547Y-111992455D01*
X159407544Y-111992452D01*
X159292335Y-111906206D01*
X159292328Y-111906202D01*
X159157482Y-111855908D01*
X159157483Y-111855908D01*
X159097883Y-111849501D01*
X159097881Y-111849500D01*
X159097873Y-111849500D01*
X159097864Y-111849500D01*
X157402129Y-111849500D01*
X157402123Y-111849501D01*
X157342516Y-111855908D01*
X157207671Y-111906202D01*
X157207664Y-111906206D01*
X157092455Y-111992452D01*
X157092452Y-111992455D01*
X157006206Y-112107664D01*
X157006202Y-112107671D01*
X156955908Y-112242517D01*
X156949501Y-112302116D01*
X156949500Y-112302135D01*
X156949500Y-113997870D01*
X153135500Y-113997870D01*
X153135500Y-107861395D01*
X153155185Y-107794356D01*
X153207989Y-107748601D01*
X153209064Y-107748116D01*
X153352730Y-107684151D01*
X153505871Y-107572888D01*
X153632533Y-107432216D01*
X153727179Y-107268284D01*
X153785674Y-107088256D01*
X153805460Y-106900000D01*
X153785674Y-106711744D01*
X153727179Y-106531716D01*
X153632533Y-106367784D01*
X153505871Y-106227112D01*
X153505870Y-106227111D01*
X153352734Y-106115851D01*
X153352729Y-106115848D01*
X153179807Y-106038857D01*
X153179802Y-106038855D01*
X153034001Y-106007865D01*
X152994646Y-105999500D01*
X152805354Y-105999500D01*
X152772897Y-106006398D01*
X152620197Y-106038855D01*
X152620192Y-106038857D01*
X152447270Y-106115848D01*
X152447265Y-106115851D01*
X152294129Y-106227111D01*
X152167466Y-106367785D01*
X152072821Y-106531715D01*
X152072818Y-106531722D01*
X152027573Y-106670973D01*
X152014326Y-106711744D01*
X151999368Y-106854062D01*
X151994101Y-106904179D01*
X151970828Y-106962077D01*
X151971296Y-106962354D01*
X151969487Y-106965410D01*
X151968764Y-106967212D01*
X151967326Y-106969065D01*
X151967324Y-106969068D01*
X151948815Y-107011838D01*
X151946245Y-107017084D01*
X151923803Y-107057906D01*
X151918822Y-107077307D01*
X151912521Y-107095710D01*
X151904562Y-107114102D01*
X151904561Y-107114105D01*
X151897271Y-107160127D01*
X151896087Y-107165846D01*
X151884501Y-107210972D01*
X151884500Y-107210982D01*
X151884500Y-107231016D01*
X151882973Y-107250415D01*
X151879840Y-107270194D01*
X151879840Y-107270195D01*
X151884225Y-107316583D01*
X151884500Y-107322421D01*
X151884500Y-116679547D01*
X151864815Y-116746586D01*
X151848181Y-116767228D01*
X149651728Y-118963681D01*
X149590405Y-118997166D01*
X149564047Y-119000000D01*
X139841511Y-119000000D01*
X139794062Y-118990562D01*
X139776111Y-118983127D01*
X139776107Y-118983126D01*
X139776101Y-118983124D01*
X139531151Y-118924317D01*
X139280000Y-118904551D01*
X139028848Y-118924317D01*
X138783898Y-118983124D01*
X138783892Y-118983126D01*
X138783890Y-118983126D01*
X138783889Y-118983127D01*
X138765937Y-118990562D01*
X138718489Y-119000000D01*
X137524000Y-119000000D01*
X137456961Y-118980315D01*
X137411206Y-118927511D01*
X137400000Y-118876000D01*
X137400000Y-115289374D01*
X137419685Y-115222335D01*
X137472489Y-115176580D01*
X137484782Y-115171739D01*
X137705522Y-115098158D01*
X137775345Y-115095634D01*
X137835450Y-115131259D01*
X137866753Y-115193724D01*
X137859316Y-115263197D01*
X137850464Y-115280580D01*
X137849980Y-115281368D01*
X137753603Y-115514043D01*
X137694812Y-115758927D01*
X137675052Y-116010000D01*
X137694812Y-116261072D01*
X137753603Y-116505956D01*
X137849980Y-116738631D01*
X137981566Y-116953358D01*
X137981577Y-116953374D01*
X137982264Y-116954178D01*
X137982266Y-116954178D01*
X138563338Y-116373106D01*
X138650578Y-116511947D01*
X138778053Y-116639422D01*
X138916891Y-116726660D01*
X138335819Y-117307732D01*
X138336636Y-117308430D01*
X138336638Y-117308432D01*
X138551368Y-117440019D01*
X138784043Y-117536396D01*
X139028927Y-117595187D01*
X139280000Y-117614947D01*
X139531072Y-117595187D01*
X139775956Y-117536396D01*
X140008631Y-117440019D01*
X140223360Y-117308432D01*
X140223371Y-117308424D01*
X140224179Y-117307732D01*
X139643108Y-116726660D01*
X139781947Y-116639422D01*
X139909422Y-116511947D01*
X139996660Y-116373107D01*
X140577732Y-116954179D01*
X140578424Y-116953371D01*
X140578432Y-116953360D01*
X140710019Y-116738630D01*
X140710020Y-116738628D01*
X140773135Y-116586254D01*
X140816975Y-116531850D01*
X140883269Y-116509785D01*
X140950969Y-116527064D01*
X140972035Y-116542806D01*
X141025521Y-116592433D01*
X141242296Y-116740228D01*
X141242301Y-116740230D01*
X141242302Y-116740231D01*
X141242303Y-116740232D01*
X141355774Y-116794876D01*
X141478673Y-116854061D01*
X141478674Y-116854061D01*
X141478677Y-116854063D01*
X141729385Y-116931396D01*
X141988818Y-116970500D01*
X142251182Y-116970500D01*
X142510615Y-116931396D01*
X142761323Y-116854063D01*
X142948111Y-116764110D01*
X142997696Y-116740232D01*
X142997696Y-116740231D01*
X142997704Y-116740228D01*
X143214479Y-116592433D01*
X143406805Y-116413981D01*
X143570386Y-116208857D01*
X143701568Y-115981643D01*
X143797420Y-115737416D01*
X143855802Y-115481630D01*
X143869993Y-115292259D01*
X143875408Y-115220004D01*
X143875408Y-115219995D01*
X143855803Y-114958379D01*
X143855802Y-114958374D01*
X143855802Y-114958370D01*
X143797420Y-114702584D01*
X143701568Y-114458357D01*
X143570386Y-114231143D01*
X143406805Y-114026019D01*
X143406804Y-114026018D01*
X143406801Y-114026014D01*
X143214479Y-113847567D01*
X143148721Y-113802734D01*
X142997704Y-113699772D01*
X142997700Y-113699770D01*
X142997697Y-113699768D01*
X142997696Y-113699767D01*
X142761325Y-113585938D01*
X142761327Y-113585938D01*
X142510623Y-113508606D01*
X142510619Y-113508605D01*
X142510615Y-113508604D01*
X142385823Y-113489794D01*
X142251187Y-113469500D01*
X142251182Y-113469500D01*
X142024000Y-113469500D01*
X141956961Y-113449815D01*
X141911206Y-113397011D01*
X141900000Y-113345500D01*
X141900000Y-112720006D01*
X143124700Y-112720006D01*
X143143864Y-112951297D01*
X143143866Y-112951308D01*
X143200842Y-113176300D01*
X143294075Y-113388848D01*
X143421016Y-113583147D01*
X143421019Y-113583151D01*
X143421021Y-113583153D01*
X143578216Y-113753913D01*
X143578219Y-113753915D01*
X143578222Y-113753918D01*
X143761365Y-113896464D01*
X143761371Y-113896468D01*
X143761374Y-113896470D01*
X143876879Y-113958978D01*
X143948744Y-113997870D01*
X143965497Y-114006936D01*
X144021084Y-114026019D01*
X144185015Y-114082297D01*
X144185017Y-114082297D01*
X144185019Y-114082298D01*
X144413951Y-114120500D01*
X144413952Y-114120500D01*
X144646048Y-114120500D01*
X144646049Y-114120500D01*
X144874981Y-114082298D01*
X145094503Y-114006936D01*
X145298626Y-113896470D01*
X145481784Y-113753913D01*
X145638979Y-113583153D01*
X145765924Y-113388849D01*
X145859157Y-113176300D01*
X145916134Y-112951305D01*
X145916135Y-112951297D01*
X145935300Y-112720006D01*
X145935300Y-112719993D01*
X145916135Y-112488702D01*
X145916133Y-112488691D01*
X145859157Y-112263699D01*
X145765924Y-112051151D01*
X145638983Y-111856852D01*
X145638980Y-111856849D01*
X145638979Y-111856847D01*
X145481784Y-111686087D01*
X145329876Y-111567852D01*
X145289064Y-111511143D01*
X145285389Y-111441370D01*
X145320020Y-111380687D01*
X145329876Y-111372147D01*
X145481784Y-111253913D01*
X145638979Y-111083153D01*
X145765924Y-110888849D01*
X145859157Y-110676300D01*
X145916134Y-110451305D01*
X145935300Y-110220000D01*
X145935300Y-110219993D01*
X145916135Y-109988702D01*
X145916133Y-109988691D01*
X145859157Y-109763699D01*
X145765924Y-109551151D01*
X145638983Y-109356852D01*
X145638980Y-109356849D01*
X145638979Y-109356847D01*
X145481784Y-109186087D01*
X145442699Y-109155666D01*
X145329469Y-109067535D01*
X145288656Y-109010825D01*
X145284982Y-108941052D01*
X145319614Y-108880369D01*
X145328794Y-108872413D01*
X145328798Y-108872351D01*
X144739219Y-108282772D01*
X144832588Y-108244098D01*
X144957924Y-108147924D01*
X145054098Y-108022588D01*
X145092772Y-107929220D01*
X145681186Y-108517634D01*
X145765484Y-108388606D01*
X145858682Y-108176135D01*
X145915638Y-107951218D01*
X145934798Y-107720005D01*
X145934798Y-107719994D01*
X145915638Y-107488781D01*
X145858682Y-107263864D01*
X145765483Y-107051390D01*
X145681186Y-106922364D01*
X145092771Y-107510779D01*
X145054098Y-107417412D01*
X144957924Y-107292076D01*
X144832588Y-107195902D01*
X144739219Y-107157227D01*
X145328799Y-106567648D01*
X145328799Y-106567647D01*
X145298349Y-106543949D01*
X145094302Y-106433523D01*
X145094293Y-106433520D01*
X144874860Y-106358188D01*
X144646007Y-106320000D01*
X144413993Y-106320000D01*
X144185139Y-106358188D01*
X143965706Y-106433520D01*
X143965698Y-106433523D01*
X143761644Y-106543952D01*
X143731200Y-106567646D01*
X143731200Y-106567647D01*
X144320780Y-107157227D01*
X144227412Y-107195902D01*
X144102076Y-107292076D01*
X144005902Y-107417412D01*
X143967227Y-107510780D01*
X143378812Y-106922365D01*
X143294516Y-107051391D01*
X143294514Y-107051395D01*
X143201317Y-107263864D01*
X143144361Y-107488781D01*
X143125202Y-107719994D01*
X143125202Y-107720005D01*
X143144361Y-107951218D01*
X143201317Y-108176135D01*
X143294516Y-108388609D01*
X143378811Y-108517633D01*
X143967227Y-107929218D01*
X144005902Y-108022588D01*
X144102076Y-108147924D01*
X144227412Y-108244098D01*
X144320780Y-108282772D01*
X143731199Y-108872351D01*
X143731227Y-108872801D01*
X143771341Y-108928537D01*
X143775017Y-108998310D01*
X143740387Y-109058994D01*
X143730530Y-109067536D01*
X143578218Y-109186085D01*
X143421016Y-109356852D01*
X143294075Y-109551151D01*
X143200842Y-109763699D01*
X143143866Y-109988691D01*
X143143864Y-109988702D01*
X143124700Y-110219993D01*
X143124700Y-110220006D01*
X143143864Y-110451297D01*
X143143866Y-110451308D01*
X143200842Y-110676300D01*
X143294075Y-110888848D01*
X143421016Y-111083147D01*
X143421019Y-111083151D01*
X143421021Y-111083153D01*
X143578216Y-111253913D01*
X143578219Y-111253915D01*
X143578222Y-111253918D01*
X143730122Y-111372147D01*
X143770935Y-111428857D01*
X143774610Y-111498630D01*
X143739978Y-111559313D01*
X143730122Y-111567853D01*
X143578222Y-111686081D01*
X143578219Y-111686084D01*
X143421016Y-111856852D01*
X143294075Y-112051151D01*
X143200842Y-112263699D01*
X143143866Y-112488691D01*
X143143864Y-112488702D01*
X143124700Y-112719993D01*
X143124700Y-112720006D01*
X141900000Y-112720006D01*
X141900000Y-107700000D01*
X141175685Y-106975685D01*
X141142200Y-106914362D01*
X141147184Y-106844670D01*
X141189056Y-106788737D01*
X141254520Y-106764320D01*
X141317166Y-106776283D01*
X141478677Y-106854063D01*
X141729385Y-106931396D01*
X141988818Y-106970500D01*
X142251182Y-106970500D01*
X142510615Y-106931396D01*
X142761323Y-106854063D01*
X142997704Y-106740228D01*
X143214479Y-106592433D01*
X143406805Y-106413981D01*
X143570386Y-106208857D01*
X143701568Y-105981643D01*
X143797420Y-105737416D01*
X143855802Y-105481630D01*
X143875408Y-105220000D01*
X143855802Y-104958370D01*
X143797420Y-104702584D01*
X143701568Y-104458357D01*
X143570386Y-104231143D01*
X143406805Y-104026019D01*
X143406804Y-104026018D01*
X143406801Y-104026014D01*
X143214479Y-103847567D01*
X142997704Y-103699772D01*
X142997700Y-103699770D01*
X142997697Y-103699768D01*
X142997696Y-103699767D01*
X142761325Y-103585938D01*
X142761327Y-103585938D01*
X142510623Y-103508606D01*
X142510619Y-103508605D01*
X142510615Y-103508604D01*
X142385823Y-103489794D01*
X142251187Y-103469500D01*
X142251182Y-103469500D01*
X141988818Y-103469500D01*
X141988812Y-103469500D01*
X141827247Y-103493853D01*
X141729385Y-103508604D01*
X141729382Y-103508605D01*
X141729376Y-103508606D01*
X141478673Y-103585938D01*
X141242303Y-103699767D01*
X141242302Y-103699768D01*
X141025520Y-103847567D01*
X140833198Y-104026014D01*
X140669614Y-104231143D01*
X140538432Y-104458356D01*
X140442582Y-104702578D01*
X140442576Y-104702597D01*
X140384197Y-104958374D01*
X140384196Y-104958379D01*
X140364592Y-105219995D01*
X140364592Y-105220004D01*
X140384196Y-105481620D01*
X140384197Y-105481625D01*
X140442576Y-105737402D01*
X140442582Y-105737421D01*
X140538432Y-105981643D01*
X140554878Y-106010129D01*
X140571351Y-106078030D01*
X140548498Y-106144057D01*
X140493577Y-106187247D01*
X140424023Y-106193888D01*
X140361921Y-106161872D01*
X140359810Y-106159810D01*
X138400000Y-104200000D01*
X133400000Y-104200000D01*
X131429691Y-105924020D01*
X131271265Y-106062643D01*
X131207850Y-106091974D01*
X131138644Y-106082365D01*
X131085620Y-106036866D01*
X131065611Y-105969922D01*
X131074180Y-105924026D01*
X131147420Y-105737416D01*
X131205802Y-105481630D01*
X131225408Y-105220000D01*
X131205802Y-104958370D01*
X131147420Y-104702584D01*
X131051568Y-104458357D01*
X130920386Y-104231143D01*
X130756805Y-104026019D01*
X130756804Y-104026018D01*
X130756801Y-104026014D01*
X130564479Y-103847567D01*
X130347704Y-103699772D01*
X130347700Y-103699770D01*
X130347697Y-103699768D01*
X130347696Y-103699767D01*
X130111325Y-103585938D01*
X130111327Y-103585938D01*
X129860623Y-103508606D01*
X129860619Y-103508605D01*
X129860615Y-103508604D01*
X129735823Y-103489794D01*
X129601187Y-103469500D01*
X129601182Y-103469500D01*
X129338818Y-103469500D01*
X129338812Y-103469500D01*
X129177247Y-103493853D01*
X129079385Y-103508604D01*
X129079382Y-103508605D01*
X129079376Y-103508606D01*
X128828673Y-103585938D01*
X128592303Y-103699767D01*
X128592302Y-103699768D01*
X128375520Y-103847567D01*
X128183198Y-104026014D01*
X128019614Y-104231143D01*
X127888432Y-104458356D01*
X127792582Y-104702578D01*
X127792576Y-104702597D01*
X127734197Y-104958374D01*
X127734196Y-104958379D01*
X127714592Y-105219995D01*
X127714592Y-105220004D01*
X127734196Y-105481620D01*
X127734197Y-105481625D01*
X127792576Y-105737402D01*
X127792578Y-105737411D01*
X127792580Y-105737416D01*
X127888432Y-105981643D01*
X128019614Y-106208857D01*
X128108248Y-106320000D01*
X128183198Y-106413985D01*
X128348807Y-106567646D01*
X128375521Y-106592433D01*
X128592296Y-106740228D01*
X128592301Y-106740230D01*
X128592302Y-106740231D01*
X128592303Y-106740232D01*
X128667167Y-106776284D01*
X128828673Y-106854061D01*
X128828674Y-106854061D01*
X128828677Y-106854063D01*
X129079385Y-106931396D01*
X129338818Y-106970500D01*
X129601182Y-106970500D01*
X129860615Y-106931396D01*
X129949447Y-106903994D01*
X130019308Y-106903044D01*
X130078594Y-106940016D01*
X130108481Y-107003170D01*
X130099480Y-107072458D01*
X130067650Y-107115805D01*
X129400000Y-107699999D01*
X129400000Y-113353567D01*
X129380315Y-113420606D01*
X129327511Y-113466361D01*
X129294482Y-113476182D01*
X129079382Y-113508604D01*
X129079376Y-113508606D01*
X128828673Y-113585938D01*
X128592303Y-113699767D01*
X128592302Y-113699768D01*
X128375520Y-113847567D01*
X128183198Y-114026014D01*
X128019614Y-114231143D01*
X127888432Y-114458356D01*
X127792582Y-114702578D01*
X127792576Y-114702597D01*
X127734197Y-114958374D01*
X127734196Y-114958379D01*
X127714592Y-115219995D01*
X127714592Y-115220004D01*
X127734196Y-115481620D01*
X127734197Y-115481625D01*
X127792576Y-115737402D01*
X127792578Y-115737411D01*
X127792580Y-115737416D01*
X127888432Y-115981643D01*
X128019614Y-116208857D01*
X128139591Y-116359303D01*
X128183198Y-116413985D01*
X128343709Y-116562916D01*
X128375521Y-116592433D01*
X128592296Y-116740228D01*
X128592301Y-116740230D01*
X128592302Y-116740231D01*
X128592303Y-116740232D01*
X128705774Y-116794876D01*
X128828673Y-116854061D01*
X128828674Y-116854061D01*
X128828677Y-116854063D01*
X129079385Y-116931396D01*
X129338818Y-116970500D01*
X129601182Y-116970500D01*
X129860615Y-116931396D01*
X130111323Y-116854063D01*
X130298111Y-116764110D01*
X130347696Y-116740232D01*
X130347696Y-116740231D01*
X130347704Y-116740228D01*
X130564479Y-116592433D01*
X130596292Y-116562914D01*
X130658821Y-116531746D01*
X130728277Y-116539332D01*
X130782607Y-116583265D01*
X130795193Y-116606361D01*
X130849978Y-116738627D01*
X130849980Y-116738630D01*
X130981566Y-116953358D01*
X130981577Y-116953374D01*
X130982264Y-116954178D01*
X130982266Y-116954178D01*
X131563338Y-116373106D01*
X131650578Y-116511947D01*
X131778053Y-116639422D01*
X131916891Y-116726660D01*
X131335819Y-117307732D01*
X131336636Y-117308430D01*
X131336638Y-117308432D01*
X131551368Y-117440019D01*
X131784043Y-117536396D01*
X132028927Y-117595187D01*
X132280000Y-117614947D01*
X132531072Y-117595187D01*
X132775956Y-117536396D01*
X133008631Y-117440019D01*
X133223360Y-117308432D01*
X133223371Y-117308424D01*
X133224179Y-117307732D01*
X132643108Y-116726660D01*
X132781947Y-116639422D01*
X132909422Y-116511947D01*
X132996660Y-116373107D01*
X133577732Y-116954179D01*
X133578424Y-116953371D01*
X133578432Y-116953360D01*
X133710019Y-116738631D01*
X133806396Y-116505956D01*
X133865187Y-116261072D01*
X133884947Y-116010000D01*
X133865187Y-115758927D01*
X133806396Y-115514043D01*
X133710019Y-115281368D01*
X133663170Y-115204918D01*
X133644925Y-115137472D01*
X133666041Y-115070870D01*
X133719813Y-115026256D01*
X133789169Y-115017796D01*
X133804522Y-115021356D01*
X134311631Y-115173489D01*
X134370187Y-115211607D01*
X134398839Y-115275331D01*
X134400000Y-115292259D01*
X134400000Y-118876000D01*
X134380315Y-118943039D01*
X134327511Y-118988794D01*
X134276000Y-119000000D01*
X132841511Y-119000000D01*
X132794062Y-118990562D01*
X132776111Y-118983127D01*
X132776107Y-118983126D01*
X132776101Y-118983124D01*
X132531151Y-118924317D01*
X132280000Y-118904551D01*
X132028848Y-118924317D01*
X131783898Y-118983124D01*
X131783892Y-118983126D01*
X131783890Y-118983126D01*
X131783889Y-118983127D01*
X131765937Y-118990562D01*
X131718489Y-119000000D01*
X104624000Y-119000000D01*
X104556961Y-118980315D01*
X104511206Y-118927511D01*
X104500000Y-118876000D01*
X104500000Y-113997870D01*
X106999500Y-113997870D01*
X106999501Y-113997876D01*
X107005908Y-114057483D01*
X107056202Y-114192328D01*
X107056206Y-114192335D01*
X107142452Y-114307544D01*
X107142455Y-114307547D01*
X107257664Y-114393793D01*
X107257671Y-114393797D01*
X107392517Y-114444091D01*
X107392516Y-114444091D01*
X107399444Y-114444835D01*
X107452127Y-114450500D01*
X109147872Y-114450499D01*
X109207483Y-114444091D01*
X109342331Y-114393796D01*
X109457546Y-114307546D01*
X109543796Y-114192331D01*
X109594091Y-114057483D01*
X109594092Y-114057472D01*
X109595365Y-114052088D01*
X109629933Y-113991369D01*
X109691841Y-113958978D01*
X109761433Y-113965199D01*
X109803725Y-113992912D01*
X109960858Y-114150045D01*
X109960861Y-114150047D01*
X110147266Y-114280568D01*
X110353504Y-114376739D01*
X110353509Y-114376740D01*
X110353511Y-114376741D01*
X110406415Y-114390916D01*
X110573308Y-114435635D01*
X110735230Y-114449801D01*
X110799998Y-114455468D01*
X110800000Y-114455468D01*
X110800002Y-114455468D01*
X110856807Y-114450498D01*
X111026692Y-114435635D01*
X111246496Y-114376739D01*
X111452734Y-114280568D01*
X111639139Y-114150047D01*
X111800047Y-113989139D01*
X111930568Y-113802734D01*
X111937618Y-113787614D01*
X111983789Y-113735176D01*
X112050982Y-113716023D01*
X112117864Y-113736238D01*
X112162381Y-113787614D01*
X112169432Y-113802733D01*
X112169432Y-113802734D01*
X112299954Y-113989141D01*
X112460858Y-114150045D01*
X112460861Y-114150047D01*
X112647266Y-114280568D01*
X112853504Y-114376739D01*
X112853509Y-114376740D01*
X112853511Y-114376741D01*
X112906415Y-114390916D01*
X113073308Y-114435635D01*
X113235230Y-114449801D01*
X113299998Y-114455468D01*
X113300000Y-114455468D01*
X113300002Y-114455468D01*
X113356807Y-114450498D01*
X113526692Y-114435635D01*
X113746496Y-114376739D01*
X113952734Y-114280568D01*
X114139139Y-114150047D01*
X114300047Y-113989139D01*
X114430568Y-113802734D01*
X114526739Y-113596496D01*
X114585635Y-113376692D01*
X114605468Y-113150000D01*
X114585635Y-112923308D01*
X114526739Y-112703504D01*
X114430568Y-112497266D01*
X114300047Y-112310861D01*
X114300045Y-112310858D01*
X114139141Y-112149954D01*
X113952734Y-112019432D01*
X113952732Y-112019431D01*
X113746497Y-111923261D01*
X113746488Y-111923258D01*
X113526697Y-111864366D01*
X113526693Y-111864365D01*
X113526692Y-111864365D01*
X113526691Y-111864364D01*
X113526686Y-111864364D01*
X113300002Y-111844532D01*
X113299998Y-111844532D01*
X113073313Y-111864364D01*
X113073302Y-111864366D01*
X112853511Y-111923258D01*
X112853502Y-111923261D01*
X112647267Y-112019431D01*
X112647265Y-112019432D01*
X112460858Y-112149954D01*
X112299954Y-112310858D01*
X112169433Y-112497264D01*
X112169432Y-112497266D01*
X112162380Y-112512387D01*
X112116209Y-112564825D01*
X112049015Y-112583976D01*
X111982134Y-112563760D01*
X111937619Y-112512387D01*
X111930568Y-112497266D01*
X111800047Y-112310861D01*
X111800045Y-112310858D01*
X111639141Y-112149954D01*
X111452734Y-112019432D01*
X111452732Y-112019431D01*
X111246497Y-111923261D01*
X111246488Y-111923258D01*
X111026697Y-111864366D01*
X111026693Y-111864365D01*
X111026692Y-111864365D01*
X111026691Y-111864364D01*
X111026686Y-111864364D01*
X110800002Y-111844532D01*
X110799998Y-111844532D01*
X110573313Y-111864364D01*
X110573302Y-111864366D01*
X110353511Y-111923258D01*
X110353502Y-111923261D01*
X110147267Y-112019431D01*
X110147265Y-112019432D01*
X109960862Y-112149951D01*
X109803726Y-112307087D01*
X109742403Y-112340571D01*
X109672711Y-112335587D01*
X109616778Y-112293715D01*
X109595369Y-112247923D01*
X109594091Y-112242518D01*
X109543797Y-112107671D01*
X109543793Y-112107664D01*
X109457547Y-111992455D01*
X109457544Y-111992452D01*
X109342335Y-111906206D01*
X109342328Y-111906202D01*
X109207482Y-111855908D01*
X109207483Y-111855908D01*
X109147883Y-111849501D01*
X109147881Y-111849500D01*
X109147873Y-111849500D01*
X109147864Y-111849500D01*
X107452129Y-111849500D01*
X107452123Y-111849501D01*
X107392516Y-111855908D01*
X107257671Y-111906202D01*
X107257664Y-111906206D01*
X107142455Y-111992452D01*
X107142452Y-111992455D01*
X107056206Y-112107664D01*
X107056202Y-112107671D01*
X107005908Y-112242517D01*
X106999501Y-112302116D01*
X106999500Y-112302135D01*
X106999500Y-113997870D01*
X104500000Y-113997870D01*
X104500000Y-107750002D01*
X106995034Y-107750002D01*
X107014858Y-107976599D01*
X107014860Y-107976610D01*
X107073730Y-108196317D01*
X107073734Y-108196326D01*
X107169865Y-108402481D01*
X107169866Y-108402483D01*
X107220973Y-108475471D01*
X107220974Y-108475472D01*
X107816923Y-107879522D01*
X107840508Y-107959843D01*
X107918240Y-108080797D01*
X108026900Y-108174952D01*
X108157685Y-108234679D01*
X108167467Y-108236085D01*
X107574526Y-108829025D01*
X107574526Y-108829026D01*
X107647512Y-108880131D01*
X107647516Y-108880133D01*
X107853673Y-108976265D01*
X107853682Y-108976269D01*
X108073389Y-109035139D01*
X108073400Y-109035141D01*
X108299998Y-109054966D01*
X108300002Y-109054966D01*
X108526599Y-109035141D01*
X108526610Y-109035139D01*
X108746317Y-108976269D01*
X108746331Y-108976264D01*
X108952478Y-108880136D01*
X109025472Y-108829025D01*
X108432533Y-108236085D01*
X108442315Y-108234679D01*
X108573100Y-108174952D01*
X108681760Y-108080797D01*
X108759492Y-107959843D01*
X108783076Y-107879523D01*
X109379025Y-108475472D01*
X109430134Y-108402481D01*
X109437340Y-108387028D01*
X109483511Y-108334587D01*
X109550704Y-108315433D01*
X109617585Y-108335646D01*
X109662105Y-108387022D01*
X109669430Y-108402730D01*
X109669432Y-108402734D01*
X109799954Y-108589141D01*
X109960858Y-108750045D01*
X109960861Y-108750047D01*
X110147266Y-108880568D01*
X110353504Y-108976739D01*
X110573308Y-109035635D01*
X110735230Y-109049801D01*
X110799998Y-109055468D01*
X110800000Y-109055468D01*
X110800002Y-109055468D01*
X110856673Y-109050509D01*
X111026692Y-109035635D01*
X111246496Y-108976739D01*
X111452734Y-108880568D01*
X111639139Y-108750047D01*
X111800047Y-108589139D01*
X111930568Y-108402734D01*
X111937618Y-108387614D01*
X111983789Y-108335176D01*
X112050982Y-108316023D01*
X112117864Y-108336238D01*
X112162381Y-108387614D01*
X112169432Y-108402733D01*
X112169432Y-108402734D01*
X112299954Y-108589141D01*
X112460858Y-108750045D01*
X112460861Y-108750047D01*
X112647266Y-108880568D01*
X112853504Y-108976739D01*
X113073308Y-109035635D01*
X113235230Y-109049801D01*
X113299998Y-109055468D01*
X113300000Y-109055468D01*
X113300002Y-109055468D01*
X113356673Y-109050509D01*
X113526692Y-109035635D01*
X113746496Y-108976739D01*
X113952734Y-108880568D01*
X114139139Y-108750047D01*
X114300047Y-108589139D01*
X114430568Y-108402734D01*
X114526739Y-108196496D01*
X114585635Y-107976692D01*
X114605468Y-107750000D01*
X114602843Y-107720001D01*
X114599179Y-107678111D01*
X114585635Y-107523308D01*
X114531023Y-107319492D01*
X114526741Y-107303511D01*
X114526738Y-107303502D01*
X114511206Y-107270194D01*
X114430568Y-107097266D01*
X114300047Y-106910861D01*
X114300045Y-106910858D01*
X114139141Y-106749954D01*
X113952734Y-106619432D01*
X113952732Y-106619431D01*
X113746497Y-106523261D01*
X113746488Y-106523258D01*
X113526697Y-106464366D01*
X113526693Y-106464365D01*
X113526692Y-106464365D01*
X113526691Y-106464364D01*
X113526686Y-106464364D01*
X113300002Y-106444532D01*
X113299998Y-106444532D01*
X113073313Y-106464364D01*
X113073302Y-106464366D01*
X112853511Y-106523258D01*
X112853502Y-106523261D01*
X112647267Y-106619431D01*
X112647265Y-106619432D01*
X112460858Y-106749954D01*
X112299954Y-106910858D01*
X112169433Y-107097264D01*
X112169432Y-107097266D01*
X112162380Y-107112387D01*
X112116209Y-107164825D01*
X112049015Y-107183976D01*
X111982134Y-107163760D01*
X111937619Y-107112387D01*
X111930568Y-107097266D01*
X111800047Y-106910861D01*
X111800045Y-106910858D01*
X111639141Y-106749954D01*
X111452734Y-106619432D01*
X111452732Y-106619431D01*
X111246497Y-106523261D01*
X111246488Y-106523258D01*
X111026697Y-106464366D01*
X111026693Y-106464365D01*
X111026692Y-106464365D01*
X111026691Y-106464364D01*
X111026686Y-106464364D01*
X110800002Y-106444532D01*
X110799998Y-106444532D01*
X110573313Y-106464364D01*
X110573302Y-106464366D01*
X110353511Y-106523258D01*
X110353502Y-106523261D01*
X110147267Y-106619431D01*
X110147265Y-106619432D01*
X109960858Y-106749954D01*
X109799954Y-106910858D01*
X109669432Y-107097265D01*
X109669430Y-107097269D01*
X109662105Y-107112978D01*
X109615931Y-107165417D01*
X109548737Y-107184567D01*
X109481857Y-107164350D01*
X109437341Y-107112974D01*
X109430132Y-107097515D01*
X109430131Y-107097512D01*
X109379026Y-107024526D01*
X109379025Y-107024526D01*
X108783075Y-107620476D01*
X108759492Y-107540157D01*
X108681760Y-107419203D01*
X108573100Y-107325048D01*
X108442315Y-107265321D01*
X108432532Y-107263914D01*
X109025472Y-106670974D01*
X109025471Y-106670973D01*
X108952483Y-106619866D01*
X108952481Y-106619865D01*
X108746326Y-106523734D01*
X108746317Y-106523730D01*
X108526610Y-106464860D01*
X108526599Y-106464858D01*
X108300002Y-106445034D01*
X108299998Y-106445034D01*
X108073400Y-106464858D01*
X108073389Y-106464860D01*
X107853682Y-106523730D01*
X107853673Y-106523734D01*
X107647513Y-106619868D01*
X107574527Y-106670972D01*
X107574526Y-106670973D01*
X108167468Y-107263914D01*
X108157685Y-107265321D01*
X108026900Y-107325048D01*
X107918240Y-107419203D01*
X107840508Y-107540157D01*
X107816923Y-107620476D01*
X107220973Y-107024526D01*
X107220972Y-107024527D01*
X107169868Y-107097513D01*
X107073734Y-107303673D01*
X107073730Y-107303682D01*
X107014860Y-107523389D01*
X107014858Y-107523400D01*
X106995034Y-107749997D01*
X106995034Y-107750002D01*
X104500000Y-107750002D01*
X104500000Y-104060960D01*
X104519685Y-103993921D01*
X104548270Y-103962772D01*
X107754483Y-101490006D01*
X131894700Y-101490006D01*
X131913864Y-101721297D01*
X131913866Y-101721308D01*
X131970842Y-101946300D01*
X132064075Y-102158848D01*
X132191016Y-102353147D01*
X132191019Y-102353151D01*
X132191021Y-102353153D01*
X132348216Y-102523913D01*
X132348219Y-102523915D01*
X132348222Y-102523918D01*
X132531365Y-102666464D01*
X132531371Y-102666468D01*
X132531374Y-102666470D01*
X132628541Y-102719054D01*
X132734652Y-102776479D01*
X132735497Y-102776936D01*
X132849487Y-102816068D01*
X132955015Y-102852297D01*
X132955017Y-102852297D01*
X132955019Y-102852298D01*
X133183951Y-102890500D01*
X133183952Y-102890500D01*
X133416048Y-102890500D01*
X133416049Y-102890500D01*
X133644981Y-102852298D01*
X133864503Y-102776936D01*
X134068626Y-102666470D01*
X134251784Y-102523913D01*
X134408979Y-102353153D01*
X134446191Y-102296196D01*
X134499337Y-102250839D01*
X134568569Y-102241415D01*
X134631904Y-102270917D01*
X134653809Y-102296196D01*
X134691016Y-102353147D01*
X134691019Y-102353151D01*
X134691021Y-102353153D01*
X134848216Y-102523913D01*
X134848219Y-102523915D01*
X134848222Y-102523918D01*
X135031365Y-102666464D01*
X135031371Y-102666468D01*
X135031374Y-102666470D01*
X135128541Y-102719054D01*
X135234652Y-102776479D01*
X135235497Y-102776936D01*
X135349487Y-102816068D01*
X135455015Y-102852297D01*
X135455017Y-102852297D01*
X135455019Y-102852298D01*
X135683951Y-102890500D01*
X135683952Y-102890500D01*
X135916048Y-102890500D01*
X135916049Y-102890500D01*
X136144981Y-102852298D01*
X136364503Y-102776936D01*
X136568626Y-102666470D01*
X136751784Y-102523913D01*
X136908979Y-102353153D01*
X136946489Y-102295738D01*
X136999635Y-102250382D01*
X137068866Y-102240958D01*
X137132202Y-102270459D01*
X137146914Y-102287437D01*
X137148811Y-102287634D01*
X137737227Y-101699218D01*
X137775902Y-101792588D01*
X137872076Y-101917924D01*
X137997412Y-102014098D01*
X138090780Y-102052772D01*
X137501199Y-102642351D01*
X137531650Y-102666050D01*
X137735697Y-102776476D01*
X137735706Y-102776479D01*
X137955139Y-102851811D01*
X138183993Y-102890000D01*
X138416007Y-102890000D01*
X138644860Y-102851811D01*
X138864293Y-102776479D01*
X138864302Y-102776476D01*
X139068350Y-102666050D01*
X139098798Y-102642351D01*
X138509219Y-102052772D01*
X138602588Y-102014098D01*
X138727924Y-101917924D01*
X138824098Y-101792588D01*
X138862772Y-101699219D01*
X139451186Y-102287634D01*
X139535484Y-102158606D01*
X139628682Y-101946135D01*
X139685638Y-101721218D01*
X139704798Y-101490005D01*
X139704798Y-101489994D01*
X139685638Y-101258781D01*
X139628682Y-101033864D01*
X139535483Y-100821390D01*
X139451186Y-100692364D01*
X138862771Y-101280779D01*
X138824098Y-101187412D01*
X138727924Y-101062076D01*
X138602588Y-100965902D01*
X138509219Y-100927227D01*
X139098799Y-100337648D01*
X139098799Y-100337647D01*
X139068349Y-100313949D01*
X138864302Y-100203523D01*
X138864293Y-100203520D01*
X138644860Y-100128188D01*
X138416007Y-100090000D01*
X138183993Y-100090000D01*
X137955139Y-100128188D01*
X137735706Y-100203520D01*
X137735698Y-100203523D01*
X137531644Y-100313952D01*
X137501200Y-100337646D01*
X137501200Y-100337647D01*
X138090780Y-100927227D01*
X137997412Y-100965902D01*
X137872076Y-101062076D01*
X137775902Y-101187412D01*
X137737227Y-101280780D01*
X137148811Y-100692364D01*
X137144030Y-100692860D01*
X137100960Y-100729617D01*
X137031729Y-100739041D01*
X136968393Y-100709539D01*
X136946489Y-100684260D01*
X136908983Y-100626852D01*
X136908980Y-100626849D01*
X136908979Y-100626847D01*
X136751784Y-100456087D01*
X136751779Y-100456083D01*
X136751777Y-100456081D01*
X136568634Y-100313535D01*
X136568628Y-100313531D01*
X136364504Y-100203064D01*
X136364495Y-100203061D01*
X136144984Y-100127702D01*
X135973282Y-100099050D01*
X135916049Y-100089500D01*
X135683951Y-100089500D01*
X135638164Y-100097140D01*
X135455015Y-100127702D01*
X135235504Y-100203061D01*
X135235495Y-100203064D01*
X135031371Y-100313531D01*
X135031365Y-100313535D01*
X134848222Y-100456081D01*
X134848219Y-100456084D01*
X134848216Y-100456086D01*
X134848216Y-100456087D01*
X134740697Y-100572885D01*
X134691015Y-100626854D01*
X134653808Y-100683804D01*
X134600662Y-100729161D01*
X134531430Y-100738584D01*
X134468095Y-100709082D01*
X134446192Y-100683804D01*
X134408984Y-100626854D01*
X134408982Y-100626852D01*
X134408979Y-100626847D01*
X134251784Y-100456087D01*
X134251779Y-100456083D01*
X134251777Y-100456081D01*
X134068634Y-100313535D01*
X134068628Y-100313531D01*
X133864504Y-100203064D01*
X133864495Y-100203061D01*
X133644984Y-100127702D01*
X133473282Y-100099050D01*
X133416049Y-100089500D01*
X133183951Y-100089500D01*
X133138164Y-100097140D01*
X132955015Y-100127702D01*
X132735504Y-100203061D01*
X132735495Y-100203064D01*
X132531371Y-100313531D01*
X132531365Y-100313535D01*
X132348222Y-100456081D01*
X132348219Y-100456084D01*
X132348216Y-100456086D01*
X132348216Y-100456087D01*
X132310110Y-100497481D01*
X132191016Y-100626852D01*
X132064075Y-100821151D01*
X131970842Y-101033699D01*
X131913866Y-101258691D01*
X131913864Y-101258702D01*
X131894700Y-101489993D01*
X131894700Y-101490006D01*
X107754483Y-101490006D01*
X119766534Y-92225809D01*
X119831641Y-92200456D01*
X119842262Y-92200000D01*
X136275500Y-92200000D01*
X136342539Y-92219685D01*
G37*
%TD.AperFunction*%
%TD*%
M02*
