%TF.GenerationSoftware,KiCad,Pcbnew,7.0.9-7.0.9~ubuntu23.10.1*%
%TF.CreationDate,2023-12-22T14:56:41-05:00*%
%TF.ProjectId,buttons,62757474-6f6e-4732-9e6b-696361645f70,rev?*%
%TF.SameCoordinates,Original*%
%TF.FileFunction,Soldermask,Top*%
%TF.FilePolarity,Negative*%
%FSLAX46Y46*%
G04 Gerber Fmt 4.6, Leading zero omitted, Abs format (unit mm)*
G04 Created by KiCad (PCBNEW 7.0.9-7.0.9~ubuntu23.10.1) date 2023-12-22 14:56:41*
%MOMM*%
%LPD*%
G01*
G04 APERTURE LIST*
%ADD10C,1.448000*%
%ADD11C,1.600000*%
%ADD12R,1.600000X1.600000*%
%ADD13C,1.800000*%
%ADD14C,2.500000*%
%ADD15C,2.200000*%
%ADD16R,1.700000X1.700000*%
%ADD17O,1.700000X1.700000*%
G04 APERTURE END LIST*
D10*
%TO.C,*%
X106600000Y-92800000D03*
%TD*%
D11*
%TO.C,SW3*%
X175250000Y-107750000D03*
X172750000Y-107750000D03*
X170250000Y-107750000D03*
X175250000Y-113150000D03*
X172750000Y-113150000D03*
D12*
X170250000Y-113150000D03*
%TD*%
D11*
%TO.C,SW2*%
X163250000Y-107750000D03*
X160750000Y-107750000D03*
X158250000Y-107750000D03*
X163250000Y-113150000D03*
X160750000Y-113150000D03*
D12*
X158250000Y-113150000D03*
%TD*%
D11*
%TO.C,SW4*%
X189250000Y-107750000D03*
X186750000Y-107750000D03*
X184250000Y-107750000D03*
X189250000Y-113150000D03*
X186750000Y-113150000D03*
D12*
X184250000Y-113150000D03*
%TD*%
D13*
%TO.C,SW5*%
X131500000Y-110220000D03*
X140100000Y-110220000D03*
X144530000Y-112720000D03*
X144530000Y-110220000D03*
X144530000Y-107720000D03*
X138300000Y-101490000D03*
X135800000Y-101490000D03*
X133300000Y-101490000D03*
D14*
X129470000Y-105220000D03*
X129470000Y-115220000D03*
X142120000Y-115220000D03*
X142120000Y-105220000D03*
D15*
X132280000Y-116010000D03*
X132280000Y-120510000D03*
X139280000Y-116010000D03*
X139280000Y-120510000D03*
%TD*%
D11*
%TO.C,SW1*%
X113300000Y-107750000D03*
X110800000Y-107750000D03*
X108300000Y-107750000D03*
X113300000Y-113150000D03*
X110800000Y-113150000D03*
D12*
X108300000Y-113150000D03*
%TD*%
D10*
%TO.C,*%
X187000000Y-94000000D03*
%TD*%
D16*
%TO.C,J1*%
X137750000Y-93175000D03*
D17*
X140290000Y-93175000D03*
X142830000Y-93175000D03*
X145370000Y-93175000D03*
X147910000Y-93175000D03*
X150450000Y-93175000D03*
X152990000Y-93175000D03*
X155530000Y-93175000D03*
X158070000Y-93175000D03*
%TD*%
D10*
%TO.C,*%
X105100000Y-123700000D03*
%TD*%
%TO.C,*%
X189000000Y-123000000D03*
%TD*%
M02*
