%TF.GenerationSoftware,KiCad,Pcbnew,7.0.9-7.0.9~ubuntu23.10.1*%
%TF.CreationDate,2023-12-22T14:56:41-05:00*%
%TF.ProjectId,buttons,62757474-6f6e-4732-9e6b-696361645f70,rev?*%
%TF.SameCoordinates,Original*%
%TF.FileFunction,Soldermask,Bot*%
%TF.FilePolarity,Negative*%
%FSLAX46Y46*%
G04 Gerber Fmt 4.6, Leading zero omitted, Abs format (unit mm)*
G04 Created by KiCad (PCBNEW 7.0.9-7.0.9~ubuntu23.10.1) date 2023-12-22 14:56:41*
%MOMM*%
%LPD*%
G01*
G04 APERTURE LIST*
G04 Aperture macros list*
%AMRoundRect*
0 Rectangle with rounded corners*
0 $1 Rounding radius*
0 $2 $3 $4 $5 $6 $7 $8 $9 X,Y pos of 4 corners*
0 Add a 4 corners polygon primitive as box body*
4,1,4,$2,$3,$4,$5,$6,$7,$8,$9,$2,$3,0*
0 Add four circle primitives for the rounded corners*
1,1,$1+$1,$2,$3*
1,1,$1+$1,$4,$5*
1,1,$1+$1,$6,$7*
1,1,$1+$1,$8,$9*
0 Add four rect primitives between the rounded corners*
20,1,$1+$1,$2,$3,$4,$5,0*
20,1,$1+$1,$4,$5,$6,$7,0*
20,1,$1+$1,$6,$7,$8,$9,0*
20,1,$1+$1,$8,$9,$2,$3,0*%
G04 Aperture macros list end*
%ADD10C,1.448000*%
%ADD11C,1.600000*%
%ADD12R,1.600000X1.600000*%
%ADD13C,1.800000*%
%ADD14C,2.500000*%
%ADD15C,2.200000*%
%ADD16R,1.700000X1.700000*%
%ADD17O,1.700000X1.700000*%
%ADD18RoundRect,0.225000X0.225000X0.250000X-0.225000X0.250000X-0.225000X-0.250000X0.225000X-0.250000X0*%
%ADD19RoundRect,0.135000X0.135000X0.185000X-0.135000X0.185000X-0.135000X-0.185000X0.135000X-0.185000X0*%
%ADD20RoundRect,0.135000X0.185000X-0.135000X0.185000X0.135000X-0.185000X0.135000X-0.185000X-0.135000X0*%
G04 APERTURE END LIST*
D10*
%TO.C,*%
X106600000Y-92800000D03*
%TD*%
D11*
%TO.C,SW3*%
X175250000Y-107750000D03*
X172750000Y-107750000D03*
X170250000Y-107750000D03*
X175250000Y-113150000D03*
X172750000Y-113150000D03*
D12*
X170250000Y-113150000D03*
%TD*%
D11*
%TO.C,SW2*%
X163250000Y-107750000D03*
X160750000Y-107750000D03*
X158250000Y-107750000D03*
X163250000Y-113150000D03*
X160750000Y-113150000D03*
D12*
X158250000Y-113150000D03*
%TD*%
D11*
%TO.C,SW4*%
X189250000Y-107750000D03*
X186750000Y-107750000D03*
X184250000Y-107750000D03*
X189250000Y-113150000D03*
X186750000Y-113150000D03*
D12*
X184250000Y-113150000D03*
%TD*%
D13*
%TO.C,SW5*%
X131500000Y-110220000D03*
X140100000Y-110220000D03*
X144530000Y-112720000D03*
X144530000Y-110220000D03*
X144530000Y-107720000D03*
X138300000Y-101490000D03*
X135800000Y-101490000D03*
X133300000Y-101490000D03*
D14*
X129470000Y-105220000D03*
X129470000Y-115220000D03*
X142120000Y-115220000D03*
X142120000Y-105220000D03*
D15*
X132280000Y-116010000D03*
X132280000Y-120510000D03*
X139280000Y-116010000D03*
X139280000Y-120510000D03*
%TD*%
D11*
%TO.C,SW1*%
X113300000Y-107750000D03*
X110800000Y-107750000D03*
X108300000Y-107750000D03*
X113300000Y-113150000D03*
X110800000Y-113150000D03*
D12*
X108300000Y-113150000D03*
%TD*%
D10*
%TO.C,*%
X187000000Y-94000000D03*
%TD*%
D16*
%TO.C,J1*%
X137750000Y-93175000D03*
D17*
X140290000Y-93175000D03*
X142830000Y-93175000D03*
X145370000Y-93175000D03*
X147910000Y-93175000D03*
X150450000Y-93175000D03*
X152990000Y-93175000D03*
X155530000Y-93175000D03*
X158070000Y-93175000D03*
%TD*%
D10*
%TO.C,*%
X105100000Y-123700000D03*
%TD*%
%TO.C,*%
X189000000Y-123000000D03*
%TD*%
D18*
%TO.C,C1*%
X149675000Y-105100000D03*
X148125000Y-105100000D03*
%TD*%
D19*
%TO.C,R2*%
X112510000Y-105100000D03*
X111490000Y-105100000D03*
%TD*%
D20*
%TO.C,R1*%
X142600000Y-119910000D03*
X142600000Y-118890000D03*
%TD*%
D19*
%TO.C,R3*%
X162260000Y-103750000D03*
X161240000Y-103750000D03*
%TD*%
%TO.C,R4*%
X174010000Y-103750000D03*
X172990000Y-103750000D03*
%TD*%
D18*
%TO.C,C2*%
X135575000Y-97900000D03*
X134025000Y-97900000D03*
%TD*%
M02*
