<?xml version="1.0" encoding="UTF-8" standalone="no"?>
<!-- Created with Inkscape (http://www.inkscape.org/) -->

<svg
   width="943.26459mm"
   height="434.26456mm"
   viewBox="0 0 943.26459 434.26456"
   version="1.1"
   id="svg5"
   inkscape:version="1.1 (c68e22c387, 2021-05-23)"
   sodipodi:docname="msign-laser-svg.svg"
   xmlns:inkscape="http://www.inkscape.org/namespaces/inkscape"
   xmlns:sodipodi="http://sodipodi.sourceforge.net/DTD/sodipodi-0.dtd"
   xmlns="http://www.w3.org/2000/svg"
   xmlns:svg="http://www.w3.org/2000/svg">
  <sodipodi:namedview
     id="namedview7"
     pagecolor="#ffffff"
     bordercolor="#666666"
     borderopacity="1.0"
     inkscape:pageshadow="2"
     inkscape:pageopacity="0.0"
     inkscape:pagecheckerboard="0"
     inkscape:document-units="mm"
     showgrid="false"
     fit-margin-top="0"
     fit-margin-left="0"
     fit-margin-right="0"
     fit-margin-bottom="0"
     inkscape:zoom="0.27464869"
     inkscape:cx="750.0491"
     inkscape:cy="1050.4328"
     inkscape:window-width="1858"
     inkscape:window-height="1057"
     inkscape:window-x="54"
     inkscape:window-y="-8"
     inkscape:window-maximized="1"
     inkscape:current-layer="layer3" />
  <defs
     id="defs2">
    <marker
       id="DistanceX"
       orient="auto"
       refX="0"
       refY="0"
       style="overflow:visible">
      <path
         d="M 3,-3 -3,3 M 0,-5 V 5"
         style="stroke:#000000;stroke-width:0.5"
         id="path826" />
    </marker>
    <pattern
       id="Hatch"
       patternUnits="userSpaceOnUse"
       width="8"
       height="8"
       x="0"
       y="0">
      <path
         d="M8 4 l-4,4"
         stroke="#000000"
         stroke-width="0.25"
         linecap="square"
         id="path829" />
      <path
         d="M6 2 l-4,4"
         stroke="#000000"
         stroke-width="0.25"
         linecap="square"
         id="path831" />
      <path
         d="M4 0 l-4,4"
         stroke="#000000"
         stroke-width="0.25"
         linecap="square"
         id="path833" />
    </pattern>
    <symbol
       id="*MODEL_SPACE" />
    <symbol
       id="*PAPER_SPACE" />
    <marker
       style="overflow:visible"
       id="Arrow1Lstart"
       refX="0.0"
       refY="0.0"
       orient="auto"
       inkscape:stockid="Arrow1Lstart"
       inkscape:isstock="true">
      <path
         transform="scale(0.8) translate(12.5,0)"
         style="fill-rule:evenodd;fill:context-stroke;stroke:context-stroke;stroke-width:1.0pt"
         d="M 0.0,0.0 L 5.0,-5.0 L -12.5,0.0 L 5.0,5.0 L 0.0,0.0 z "
         id="path25570" />
    </marker>
    <rect
       x="33.469624"
       y="34.756917"
       width="306.37579"
       height="64.364661"
       id="rect3597" />
  </defs>
  <g
     inkscape:label="Cut"
     inkscape:groupmode="layer"
     id="layer1"
     sodipodi:insensitive="true">
    <g
       inkscape:label="0"
       id="g4446"
       transform="matrix(-0.26458333,0,0,-0.26458333,0.13228492,731.13227)"
       style="stroke:#ff0000;stroke-opacity:1">
      <path
         d="m -29.858268,2725.0394 a 7.937008,7.937008 0 1 0 -15.874015,0 7.937008,7.937008 0 1 0 15.874015,0 z"
         style="fill:none;stroke:#ff0000;stroke-opacity:1"
         id="path840" />
      <path
         d="m -29.858268,1160.315 a 7.937008,7.937008 0 1 0 -15.874015,0 7.937008,7.937008 0 1 0 15.874015,0 z"
         style="fill:none;stroke:#ff0000;stroke-opacity:1"
         id="path842" />
      <path
         d="m -1774.1102,2725.0394 a 7.93705,7.93705 0 1 0 -15.8741,0 7.93705,7.93705 0 1 0 15.8741,0 z"
         style="fill:none;stroke:#ff0000;stroke-opacity:1"
         id="path844" />
      <path
         d="m -3518.3622,2725.0394 a 7.937008,7.937008 0 1 0 -15.874,0 7.937008,7.937008 0 1 0 15.874,0 z"
         style="fill:none;stroke:#ff0000;stroke-opacity:1"
         id="path846" />
      <path
         d="m -3518.3622,1160.315 a 7.937008,7.937008 0 1 0 -15.874,0 7.937008,7.937008 0 1 0 15.874,0 z"
         style="fill:none;stroke:#ff0000;stroke-opacity:1"
         id="path848" />
      <path
         d="m -1774.1102,1160.315 a 7.93705,7.93705 0 1 0 -15.8741,0 7.93705,7.93705 0 1 0 15.8741,0 z"
         style="fill:none;stroke:#ff0000;stroke-opacity:1"
         id="path850" />
      <path
         d="M -7.559055,2309.2913 A 7.559055,7.559055 0 0 1 0,2316.8504 v 438.4252 a 7.559055,7.559055 0 0 1 -7.559055,7.559 H -3556.5354 a 7.559055,7.559055 0 0 1 -7.5591,-7.559 V 1130.0787 a 7.559055,7.559055 0 0 1 7.5591,-7.559 H -7.559055 A 7.559055,7.559055 0 0 1 0,1130.0787 v 457.3229 a 7.559055,7.559055 0 0 1 -7.559055,7.559 H -464.88189 a 7.559055,7.559055 0 0 0 -7.55905,7.5591 v 699.2126 a 7.559055,7.559055 0 0 0 7.55905,7.559 z"
         style="fill:none;stroke:#ff0000;stroke-opacity:1"
         id="path852" />
      <path
         d="m -214.76504,1438.0479 a 3.7795275,3.7795275 0 1 0 -7.55905,0 3.7795275,3.7795275 0 1 0 7.55905,0 z"
         style="fill:none;stroke:#ff0000;stroke-opacity:1"
         id="path854" />
      <path
         d="m -446.60504,1237.8879 a 3.7795275,3.7795275 0 1 0 -7.55905,0 3.7795275,3.7795275 0 1 0 7.55905,0 z"
         style="fill:none;stroke:#ff0000;stroke-opacity:1"
         id="path856" />
      <path
         d="m -174.68504,1284.4479 a 3.7795275,3.7795275 0 1 0 -7.55905,0 3.7795275,3.7795275 0 1 0 7.55905,0 z"
         style="fill:none;stroke:#ff0000;stroke-opacity:1"
         id="path858" />
      <path
         d="m -3418.5827,1918.1102 a 5.6693,5.6693 0 1 0 -11.3386,0 5.6693,5.6693 0 1 0 11.3386,0 z"
         style="fill:none;stroke:#ff0000;stroke-opacity:1"
         id="path860" />
      <path
         d="m -606.61417,1241.5748 a 5.669295,5.669295 0 1 0 -11.33859,0 5.669295,5.669295 0 1 0 11.33859,0 z"
         style="fill:none;stroke:#ff0000;stroke-opacity:1"
         id="path862" />
      <path
         d="m -1967.2441,1918.1102 a 5.6693,5.6693 0 1 0 -11.3386,0 5.6693,5.6693 0 1 0 11.3386,0 z"
         style="fill:none;stroke:#ff0000;stroke-opacity:1"
         id="path864" />
      <path
         d="m -1967.2441,2643.7795 a 5.6693,5.6693 0 1 0 -11.3386,0 5.6693,5.6693 0 1 0 11.3386,0 z"
         style="fill:none;stroke:#ff0000;stroke-opacity:1"
         id="path866" />
      <path
         d="m -2057.9528,2643.7795 a 5.6692915,5.6692915 0 1 0 -11.3385,0 5.6692915,5.6692915 0 1 0 11.3385,0 z"
         style="fill:none;stroke:#ff0000;stroke-opacity:1"
         id="path868" />
      <path
         d="m -2057.9528,1918.1102 a 5.6692915,5.6692915 0 1 0 -11.3385,0 5.6692915,5.6692915 0 1 0 11.3385,0 z"
         style="fill:none;stroke:#ff0000;stroke-opacity:1"
         id="path870" />
      <path
         d="m -1967.2441,1241.5748 a 5.6693,5.6693 0 1 0 -11.3386,0 5.6693,5.6693 0 1 0 11.3386,0 z"
         style="fill:none;stroke:#ff0000;stroke-opacity:1"
         id="path872" />
      <path
         d="m -3418.5827,1967.2441 a 5.6693,5.6693 0 1 0 -11.3386,0 5.6693,5.6693 0 1 0 11.3386,0 z"
         style="fill:none;stroke:#ff0000;stroke-opacity:1"
         id="path874" />
      <path
         d="m -3418.5827,1241.5748 a 5.6693,5.6693 0 1 0 -11.3386,0 5.6693,5.6693 0 1 0 11.3386,0 z"
         style="fill:none;stroke:#ff0000;stroke-opacity:1"
         id="path876" />
      <path
         d="m -606.61417,1912.4409 a 5.669295,5.669295 0 1 0 -11.33859,0 5.669295,5.669295 0 1 0 11.33859,0 z"
         style="fill:none;stroke:#ff0000;stroke-opacity:1"
         id="path878" />
      <path
         d="m -1967.2441,1967.2441 a 5.6693,5.6693 0 1 0 -11.3386,0 5.6693,5.6693 0 1 0 11.3386,0 z"
         style="fill:none;stroke:#ff0000;stroke-opacity:1"
         id="path880" />
      <path
         d="m -606.61417,2643.7795 a 5.669295,5.669295 0 1 0 -11.33859,0 5.669295,5.669295 0 1 0 11.33859,0 z"
         style="fill:none;stroke:#ff0000;stroke-opacity:1"
         id="path882" />
      <path
         d="m -2057.9528,1967.2441 a 5.6692915,5.6692915 0 1 0 -11.3385,0 5.6692915,5.6692915 0 1 0 11.3385,0 z"
         style="fill:none;stroke:#ff0000;stroke-opacity:1"
         id="path884" />
      <path
         d="m -606.61417,1967.2441 a 5.669295,5.669295 0 1 0 -11.33859,0 5.669295,5.669295 0 1 0 11.33859,0 z"
         style="fill:none;stroke:#ff0000;stroke-opacity:1"
         id="path886" />
      <path
         d="m -2059.383,1243.9601 a 5.6693,5.6693 0 1 0 -11.3386,0 5.6693,5.6693 0 1 0 11.3386,0 z"
         style="fill:none;stroke:#ff0000;stroke-opacity:1"
         id="path888" />
      <path
         d="m -3418.5827,2643.7795 a 5.6693,5.6693 0 1 0 -11.3386,0 5.6693,5.6693 0 1 0 11.3386,0 z"
         style="fill:none;stroke:#ff0000;stroke-opacity:1"
         id="path890" />
    </g>
  </g>
  <g
     inkscape:groupmode="layer"
     id="layer2"
     inkscape:label="Engrave"
     style="display:inline"
     sodipodi:insensitive="true">
    <g
       inkscape:label="Layer 1"
       id="layer1-1"
       transform="matrix(1.0453516,0,0,1.0473312,17.145332,13.676974)">
      <g
         transform="scale(0.26458333)"
         id="text3595"
         style="font-size:40px;line-height:1.25;font-family:'PT Sans';-inkscape-font-specification:'PT Sans';white-space:pre;shape-inside:url(#rect3597)" />
      <g
         aria-label="M Sign"
         id="text9763"
         style="font-size:25px;line-height:1.25;stroke-width:0.264583">
        <path
           d="m 22.769105,18.052291 0.375,-3.475 h -0.15 l -1.075,2.8 -3.725,6.525 h -1.1 l -3.925,-6.55 -1.1,-2.775 h -0.125 l 0.5,3.45 v 9.1 H 9.1941051 V 9.6272907 h 3.1249999 l 4.675,8.0000003 0.825,2 h 0.1 l 0.75,-2.05 4.425,-7.9500003 h 3.1 V 27.127291 h -3.425 z"
           style="font-weight:bold;font-family:'Pt Sans';-inkscape-font-specification:'Pt Sans Bold'"
           id="path91837" />
        <path
           d="m 43.069045,22.427291 q 0,-0.8 -0.6,-1.3 -0.575,-0.5 -1.475,-0.9 -0.875,-0.425 -1.925,-0.85 -1.025,-0.45 -1.925,-1.075 -0.875,-0.65 -1.475,-1.6 -0.575,-0.95 -0.575,-2.425 0,-1.275 0.425,-2.2 0.425,-0.95 1.2,-1.575 0.8,-0.6250003 1.875,-0.9250003 1.075,-0.3 2.4,-0.3 1.525,0 2.875,0.275 1.35,0.25 2.225,0.7500003 l -1.075,2.875 q -0.55,-0.35 -1.65,-0.625 -1.1,-0.3 -2.375,-0.3 -1.2,0 -1.85,0.475 -0.625,0.475 -0.625,1.275 0,0.75 0.575,1.25 0.6,0.5 1.475,0.925 0.9,0.425 1.925,0.875 1.05,0.45 1.925,1.1 0.9,0.625 1.475,1.575 0.6,0.925 0.6,2.325 0,1.4 -0.475,2.425 -0.45,1 -1.3,1.675 -0.825,0.675 -2.025,1 -1.175,0.325 -2.6,0.325 -1.875,0 -3.3,-0.35 -1.425,-0.35 -2.1,-0.7 l 1.1,-2.925 q 0.275,0.15 0.7,0.325 0.45,0.175 1,0.325 0.55,0.15 1.15,0.25 0.625,0.1 1.275,0.1 1.525,0 2.325,-0.5 0.825,-0.525 0.825,-1.575 z"
           style="font-weight:bold;font-family:'Pt Sans';-inkscape-font-specification:'Pt Sans Bold'"
           id="path91839" />
        <path
           d="m 48.969014,14.627291 h 3.25 v 12.5 h -3.25 z m -0.475,-3.525 q 0,-0.725 0.525,-1.2250003 0.55,-0.525 1.5,-0.525 0.95,0 1.525,0.525 0.6,0.5000003 0.6,1.2250003 0,0.725 -0.6,1.225 -0.575,0.475 -1.525,0.475 -0.95,0 -1.5,-0.475 -0.525,-0.5 -0.525,-1.225 z"
           style="font-weight:bold;font-family:'Pt Sans';-inkscape-font-specification:'Pt Sans Bold'"
           id="path91841" />
        <path
           d="m 65.993994,27.127291 q 0,2.725 -1.475,4 -1.475,1.3 -4.125,1.3 -1.8,0 -2.85,-0.25 -1.025,-0.25 -1.55,-0.525 l 0.675,-2.575 q 0.575,0.225 1.325,0.45 0.775,0.225 1.9,0.225 1.7,0 2.3,-0.75 0.625,-0.725 0.625,-2.05 v -0.8 h -0.1 q -0.875,1.175 -3.1,1.175 -2.425,0 -3.625,-1.5 -1.175,-1.5 -1.175,-4.7 0,-3.35 1.6,-5.075 1.6,-1.725 4.65,-1.725 1.6,0 2.85,0.225 1.275,0.225 2.075,0.525 z m -5.5,-2.4 q 0.95,0 1.45,-0.425 0.525,-0.425 0.8,-1.275 v -5.625 q -0.775,-0.325 -1.925,-0.325 -1.25,0 -1.95,0.95 -0.7,0.925 -0.7,2.975 0,1.825 0.6,2.775 0.6,0.95 1.725,0.95 z"
           style="font-weight:bold;font-family:'Pt Sans';-inkscape-font-specification:'Pt Sans Bold'"
           id="path91843" />
        <path
           d="m 76.468972,27.127291 v -7.1 q 0,-1.525 -0.45,-2.2 -0.425,-0.675 -1.475,-0.675 -0.925,0 -1.575,0.55 -0.625,0.525 -0.9,1.325 v 8.1 h -3.25 v -12.5 h 2.575 l 0.375,1.65 h 0.1 q 0.575,-0.8 1.525,-1.4 0.95,-0.6 2.45,-0.6 0.925,0 1.65,0.25 0.725,0.25 1.225,0.825 0.5,0.575 0.75,1.575 0.25,0.975 0.25,2.425 v 7.775 z"
           style="font-weight:bold;font-family:'Pt Sans';-inkscape-font-specification:'Pt Sans Bold'"
           id="path91845" />
      </g>
      <path
         style="color:#000000;fill:#000000;stroke-linejoin:round;-inkscape-stroke:none"
         d="M 4.5117187,3.4667969 A 1.5755926,1.5755926 0 0 0 2.9375,5.0410156 V 31.232422 a 1.5755926,1.5755926 0 0 0 1.5742187,1.574219 H 30.863281 a 1.5755926,1.5755926 0 0 0 1.576172,-1.574219 V 5.0410156 A 1.5755926,1.5755926 0 0 0 30.863281,3.4667969 Z M 6.0878906,6.6171875 H 29.287109 V 29.65625 H 6.0878906 Z"
         id="rect24577" />
      <g
         aria-label="designed in Canada MMXXI Matthew Mirvish"
         id="text30240"
         style="font-size:8px;line-height:1.25;stroke-width:0.264582">
        <path
           d="m 6.2543672,43.917462 v 5.936 h -0.16 v -1.264 q -0.208,0.592 -0.704,0.944 -0.496,0.344 -1.144,0.344 -0.56,0 -1.024,-0.264 -0.456,-0.272 -0.72,-0.752 -0.264,-0.48 -0.264,-1.08 0,-0.6 0.264,-1.072 0.264,-0.48 0.72,-0.744 0.464,-0.272 1.024,-0.272 0.64,0 1.136,0.352 0.504,0.344 0.712,0.928 v -3.056 z m -2.008,5.808 q 0.52,0 0.944,-0.248 0.424,-0.248 0.664,-0.688 0.24,-0.448 0.24,-1.008 0,-0.56 -0.24,-1 -0.24,-0.448 -0.664,-0.688 -0.424,-0.248 -0.944,-0.248 -0.52,0 -0.944,0.248 -0.424,0.24 -0.664,0.688 -0.24,0.44 -0.24,1 0,0.56 0.24,1.008 0.24,0.44 0.664,0.688 0.424,0.248 0.944,0.248 z"
           style="font-family:'Montserrat Thin';-inkscape-font-specification:'Montserrat Thin, '"
           id="path91765" />
        <path
           d="M 11.438363,47.781462 H 7.7583634 q 0,0.56 0.248,1.008 0.248,0.44 0.68,0.688 0.44,0.248 0.984,0.248 0.4239996,0 0.7919996,-0.16 0.376,-0.168 0.616,-0.48 l 0.112,0.112 q -0.272,0.328 -0.672,0.504 -0.4,0.176 -0.8479996,0.176 -0.592,0 -1.064,-0.264 -0.464,-0.272 -0.736,-0.752 -0.264,-0.48 -0.264,-1.08 0,-0.6 0.248,-1.072 0.248,-0.48 0.68,-0.744 0.44,-0.272 0.984,-0.272 0.5359996,0 0.9759996,0.264 0.44,0.264 0.688,0.728 0.256,0.464 0.256,1.056 z m -1.9199996,-1.936 q -0.48,0 -0.872,0.232 -0.392,0.232 -0.632,0.64 -0.232,0.408 -0.256,0.912 h 3.5279996 q -0.024,-0.504 -0.264,-0.912 -0.24,-0.408 -0.632,-0.64 -0.3919996,-0.232 -0.8719996,-0.232 z"
           style="font-family:'Montserrat Thin';-inkscape-font-specification:'Montserrat Thin, '"
           id="path91767" />
        <path
           d="m 13.742363,49.877462 q -0.496,0 -0.936,-0.16 -0.44,-0.16 -0.68,-0.408 l 0.096,-0.128 q 0.24,0.232 0.64,0.392 0.408,0.152 0.88,0.152 0.704,0 1.04,-0.24 0.336,-0.248 0.336,-0.68 0,-0.312 -0.184,-0.488 -0.176,-0.184 -0.44,-0.264 -0.256,-0.088 -0.712,-0.176 -0.488,-0.088 -0.792,-0.184 -0.296,-0.104 -0.504,-0.32 -0.2,-0.224 -0.2,-0.616 0,-0.448 0.368,-0.752 0.376,-0.312 1.096,-0.312 0.384,0 0.76,0.12 0.376,0.112 0.608,0.304 l -0.096,0.128 q -0.24,-0.192 -0.576,-0.296 -0.336,-0.104 -0.696,-0.104 -0.648,0 -0.976,0.256 -0.32,0.248 -0.32,0.656 0,0.328 0.184,0.52 0.184,0.184 0.456,0.272 0.272,0.088 0.72,0.168 0.488,0.096 0.776,0.192 0.288,0.096 0.488,0.312 0.2,0.208 0.2,0.584 0,0.488 -0.392,0.784 -0.392,0.288 -1.144,0.288 z"
           style="font-family:'Montserrat Thin';-inkscape-font-specification:'Montserrat Thin, '"
           id="path91769" />
        <path
           d="m 16.494357,45.717462 h 0.16 v 4.136 h -0.16 z m 0.08,-1.144 q -0.088,0 -0.152,-0.064 -0.056,-0.064 -0.056,-0.144 0,-0.088 0.056,-0.144 0.064,-0.064 0.152,-0.064 0.08,0 0.144,0.064 0.064,0.056 0.064,0.144 0,0.08 -0.064,0.144 -0.064,0.064 -0.144,0.064 z"
           style="font-family:'Montserrat Thin';-inkscape-font-specification:'Montserrat Thin, '"
           id="path91771" />
        <path
           d="m 22.070342,45.717462 v 3.768 q 0,0.992 -0.472,1.464 -0.472,0.48 -1.44,0.48 -0.568,0 -1.056,-0.184 -0.48,-0.184 -0.776,-0.504 l 0.112,-0.112 q 0.32,0.312 0.76,0.48 0.44,0.168 0.96,0.168 0.896,0 1.32,-0.432 0.432,-0.424 0.432,-1.336 v -1.04 q -0.216,0.568 -0.72,0.912 -0.496,0.336 -1.152,0.336 -0.576,0 -1.04,-0.256 -0.464,-0.264 -0.728,-0.72 -0.264,-0.464 -0.264,-1.04 0,-0.576 0.264,-1.032 0.264,-0.464 0.728,-0.72 0.464,-0.256 1.04,-0.256 0.656,0 1.152,0.336 0.504,0.336 0.72,0.896 v -1.208 z m -2.032,3.848 q 0.536,0 0.96,-0.232 0.432,-0.24 0.672,-0.664 0.24,-0.432 0.24,-0.968 0,-0.536 -0.24,-0.96 -0.24,-0.424 -0.672,-0.656 -0.424,-0.24 -0.96,-0.24 -0.536,0 -0.968,0.24 -0.424,0.232 -0.664,0.656 -0.24,0.424 -0.24,0.96 0,0.536 0.24,0.968 0.24,0.424 0.664,0.664 0.432,0.232 0.968,0.232 z"
           style="font-family:'Montserrat Thin';-inkscape-font-specification:'Montserrat Thin, '"
           id="path91773" />
        <path
           d="m 25.806327,45.693462 q 0.776,0 1.216,0.448 0.44,0.44 0.44,1.272 v 2.44 h -0.16 v -2.44 q 0,-0.76 -0.392,-1.16 -0.384,-0.408 -1.096,-0.408 -0.808,0 -1.28,0.488 -0.464,0.48 -0.464,1.272 v 2.248 h -0.16 v -4.136 h 0.16 v 1.104 q 0.192,-0.528 0.64,-0.824 0.448,-0.304 1.096,-0.304 z"
           style="font-family:'Montserrat Thin';-inkscape-font-specification:'Montserrat Thin, '"
           id="path91775" />
        <path
           d="m 32.598321,47.781462 h -3.68 q 0,0.56 0.248,1.008 0.248,0.44 0.68,0.688 0.44,0.248 0.984,0.248 0.424,0 0.792,-0.16 0.376,-0.168 0.616,-0.48 l 0.112,0.112 q -0.272,0.328 -0.672,0.504 -0.4,0.176 -0.848,0.176 -0.592,0 -1.064,-0.264 -0.464,-0.272 -0.736,-0.752 -0.264,-0.48 -0.264,-1.08 0,-0.6 0.248,-1.072 0.248,-0.48 0.68,-0.744 0.44,-0.272 0.984,-0.272 0.536,0 0.976,0.264 0.44,0.264 0.688,0.728 0.256,0.464 0.256,1.056 z m -1.92,-1.936 q -0.48,0 -0.872,0.232 -0.392,0.232 -0.632,0.64 -0.232,0.408 -0.256,0.912 h 3.528 q -0.024,-0.504 -0.264,-0.912 -0.24,-0.408 -0.632,-0.64 -0.392,-0.232 -0.872,-0.232 z"
           style="font-family:'Montserrat Thin';-inkscape-font-specification:'Montserrat Thin, '"
           id="path91777" />
        <path
           d="m 37.47832,43.917462 v 5.936 h -0.16 v -1.264 q -0.208,0.592 -0.704,0.944 -0.496,0.344 -1.144,0.344 -0.56,0 -1.024,-0.264 -0.456,-0.272 -0.72,-0.752 -0.264,-0.48 -0.264,-1.08 0,-0.6 0.264,-1.072 0.264,-0.48 0.72,-0.744 0.464,-0.272 1.024,-0.272 0.64,0 1.136,0.352 0.504,0.344 0.712,0.928 v -3.056 z m -2.008,5.808 q 0.52,0 0.944,-0.248 0.424,-0.248 0.664,-0.688 0.24,-0.448 0.24,-1.008 0,-0.56 -0.24,-1 -0.24,-0.448 -0.664,-0.688 -0.424,-0.248 -0.944,-0.248 -0.52,0 -0.944,0.248 -0.424,0.24 -0.664,0.688 -0.24,0.44 -0.24,1 0,0.56 0.24,1.008 0.24,0.44 0.664,0.688 0.424,0.248 0.944,0.248 z"
           style="font-family:'Montserrat Thin';-inkscape-font-specification:'Montserrat Thin, '"
           id="path91779" />
        <path
           d="m 41.318301,45.717462 h 0.16 v 4.136 h -0.16 z m 0.08,-1.144 q -0.088,0 -0.152,-0.064 -0.056,-0.064 -0.056,-0.144 0,-0.088 0.056,-0.144 0.064,-0.064 0.152,-0.064 0.08,0 0.144,0.064 0.064,0.056 0.064,0.144 0,0.08 -0.064,0.144 -0.064,0.064 -0.144,0.064 z"
           style="font-family:'Montserrat Thin';-inkscape-font-specification:'Montserrat Thin, '"
           id="path91781" />
        <path
           d="m 45.214286,45.693462 q 0.776,0 1.216,0.448 0.44,0.44 0.44,1.272 v 2.44 h -0.16 v -2.44 q 0,-0.76 -0.392,-1.16 -0.384,-0.408 -1.096,-0.408 -0.808,0 -1.28,0.488 -0.464,0.48 -0.464,1.272 v 2.248 h -0.16 v -4.136 h 0.16 v 1.104 q 0.192,-0.528 0.64,-0.824 0.448,-0.304 1.096,-0.304 z"
           style="font-family:'Montserrat Thin';-inkscape-font-specification:'Montserrat Thin, '"
           id="path91783" />
        <path
           d="m 53.086265,49.877462 q -0.808,0 -1.464,-0.368 -0.656,-0.368 -1.032,-1.008 -0.376,-0.648 -0.376,-1.448 0,-0.8 0.376,-1.44 0.376,-0.648 1.032,-1.016 0.656,-0.368 1.464,-0.368 0.568,0 1.056,0.184 0.496,0.176 0.848,0.528 l -0.096,0.112 q -0.704,-0.672 -1.808,-0.672 -0.76,0 -1.384,0.352 -0.616,0.352 -0.976,0.968 -0.352,0.608 -0.352,1.352 0,0.744 0.352,1.36 0.36,0.608 0.976,0.96 0.624,0.352 1.384,0.352 1.096,0 1.808,-0.68 l 0.096,0.112 q -0.352,0.352 -0.848,0.536 -0.496,0.184 -1.056,0.184 z"
           style="font-family:'Montserrat Thin';-inkscape-font-specification:'Montserrat Thin, '"
           id="path91785" />
        <path
           d="m 57.590251,45.693462 q 0.72,0 1.096,0.376 0.384,0.368 0.384,1.072 v 2.712 h -0.16 v -0.88 q -0.2,0.424 -0.608,0.664 -0.4,0.24 -0.968,0.24 -0.688,0 -1.08,-0.312 -0.384,-0.32 -0.384,-0.848 0,-0.496 0.344,-0.8 0.352,-0.312 1.128,-0.312 h 1.568 v -0.456 q 0,-0.648 -0.336,-0.976 -0.328,-0.328 -0.976,-0.328 -0.448,0 -0.84,0.16 -0.384,0.152 -0.664,0.416 l -0.112,-0.112 q 0.296,-0.288 0.72,-0.448 0.424,-0.168 0.888,-0.168 z m -0.256,4.032 q 1.152,0 1.576,-1.056 v -0.912 h -1.576 q -0.672,0 -0.992,0.256 -0.312,0.256 -0.312,0.696 0,0.472 0.344,0.744 0.344,0.272 0.96,0.272 z"
           style="font-family:'Montserrat Thin';-inkscape-font-specification:'Montserrat Thin, '"
           id="path91787" />
        <path
           d="m 62.758247,45.693462 q 0.776,0 1.216,0.448 0.44,0.44 0.44,1.272 v 2.44 h -0.16 v -2.44 q 0,-0.76 -0.392,-1.16 -0.384,-0.408 -1.096,-0.408 -0.808,0 -1.28,0.488 -0.464,0.48 -0.464,1.272 v 2.248 h -0.16 v -4.136 h 0.16 v 1.104 q 0.192,-0.528 0.64,-0.824 0.448,-0.304 1.096,-0.304 z"
           style="font-family:'Montserrat Thin';-inkscape-font-specification:'Montserrat Thin, '"
           id="path91789" />
        <path
           d="m 67.526241,45.693462 q 0.72,0 1.096,0.376 0.384,0.368 0.384,1.072 v 2.712 h -0.16 v -0.88 q -0.2,0.424 -0.608,0.664 -0.4,0.24 -0.968,0.24 -0.688,0 -1.08,-0.312 -0.384,-0.32 -0.384,-0.848 0,-0.496 0.344,-0.8 0.352,-0.312 1.128,-0.312 h 1.568 v -0.456 q 0,-0.648 -0.336,-0.976 -0.328,-0.328 -0.976,-0.328 -0.448,0 -0.84,0.16 -0.384,0.152 -0.664,0.416 l -0.112,-0.112 q 0.296,-0.288 0.72,-0.448 0.424,-0.168 0.888,-0.168 z m -0.256,4.032 q 1.152,0 1.576,-1.056 v -0.912 h -1.576 q -0.672,0 -0.992,0.256 -0.312,0.256 -0.312,0.696 0,0.472 0.344,0.744 0.344,0.272 0.96,0.272 z"
           style="font-family:'Montserrat Thin';-inkscape-font-specification:'Montserrat Thin, '"
           id="path91791" />
        <path
           d="m 74.326236,43.917462 v 5.936 h -0.16 v -1.264 q -0.208,0.592 -0.704,0.944 -0.496,0.344 -1.144,0.344 -0.56,0 -1.024,-0.264 -0.456,-0.272 -0.72,-0.752 -0.264,-0.48 -0.264,-1.08 0,-0.6 0.264,-1.072 0.264,-0.48 0.72,-0.744 0.464,-0.272 1.024,-0.272 0.64,0 1.136,0.352 0.504,0.344 0.712,0.928 v -3.056 z m -2.008,5.808 q 0.52,0 0.944,-0.248 0.424,-0.248 0.664,-0.688 0.24,-0.448 0.24,-1.008 0,-0.56 -0.24,-1 -0.24,-0.448 -0.664,-0.688 -0.424,-0.248 -0.944,-0.248 -0.52,0 -0.944,0.248 -0.424,0.24 -0.664,0.688 -0.24,0.44 -0.24,1 0,0.56 0.24,1.008 0.24,0.44 0.664,0.688 0.424,0.248 0.944,0.248 z"
           style="font-family:'Montserrat Thin';-inkscape-font-specification:'Montserrat Thin, '"
           id="path91793" />
        <path
           d="m 77.486232,45.693462 q 0.72,0 1.096,0.376 0.384,0.368 0.384,1.072 v 2.712 h -0.16 v -0.88 q -0.2,0.424 -0.608,0.664 -0.4,0.24 -0.968,0.24 -0.688,0 -1.08,-0.312 -0.384,-0.32 -0.384,-0.848 0,-0.496 0.344,-0.8 0.352,-0.312 1.128,-0.312 h 1.568 v -0.456 q 0,-0.648 -0.336,-0.976 -0.328,-0.328 -0.976,-0.328 -0.448,0 -0.84,0.16 -0.384,0.152 -0.664,0.416 l -0.112,-0.112 q 0.296,-0.288 0.72,-0.448 0.424,-0.168 0.888,-0.168 z m -0.256,4.032 q 1.152,0 1.576,-1.056 v -0.912 h -1.576 q -0.672,0 -0.992,0.256 -0.312,0.256 -0.312,0.696 0,0.472 0.344,0.744 0.344,0.272 0.96,0.272 z"
           style="font-family:'Montserrat Thin';-inkscape-font-specification:'Montserrat Thin, '"
           id="path91795" />
        <path
           d="m 8.3903672,54.307568 v 5.6 h -0.16 v -5.256 l -2.552,4.464 h -0.096 l -2.552,-4.448 v 5.24 h -0.16 v -5.6 h 0.136 l 2.624,4.592 2.624,-4.592 z"
           style="font-family:'Montserrat Thin';-inkscape-font-specification:'Montserrat Thin, '"
           id="path91797" />
        <path
           d="m 16.038362,54.307568 v 5.6 h -0.16 v -5.256 l -2.552,4.464 h -0.096 l -2.552,-4.448 v 5.24 h -0.16 v -5.6 h 0.136 l 2.624,4.592 2.624,-4.592 z"
           style="font-family:'Montserrat Thin';-inkscape-font-specification:'Montserrat Thin, '"
           id="path91799" />
        <path
           d="m 21.670357,59.907568 -2.088,-2.776 -2.088,2.776 h -0.192 l 2.184,-2.896 -2.024,-2.704 h 0.2 l 1.928,2.584 1.928,-2.584 h 0.192 l -2.024,2.704 2.184,2.896 z"
           style="font-family:'Montserrat Thin';-inkscape-font-specification:'Montserrat Thin, '"
           id="path91801" />
        <path
           d="m 26.398339,59.907568 -2.088,-2.776 -2.088,2.776 h -0.192 l 2.184,-2.896 -2.024,-2.704 h 0.2 l 1.928,2.584 1.928,-2.584 h 0.192 l -2.024,2.704 2.184,2.896 z"
           style="font-family:'Montserrat Thin';-inkscape-font-specification:'Montserrat Thin, '"
           id="path91803" />
        <path
           d="m 27.662314,54.307568 h 0.16 v 5.6 h -0.16 z"
           style="font-family:'Montserrat Thin';-inkscape-font-specification:'Montserrat Thin, '"
           id="path91805" />
        <path
           d="m 37.158293,59.907568 -0.008,-4.792 -2.344,4.048 h -0.2 l -2.344,-4.032 v 4.776 h -0.4 v -5.6 h 0.344 l 2.504,4.328 2.504,-4.328 h 0.336 l 0.008,5.6 z"
           style="font-weight:300;font-family:Montserrat;-inkscape-font-specification:'Montserrat Light'"
           id="path91807" />
        <path
           d="m 40.790288,55.699568 q 0.776,0 1.192,0.4 0.416,0.392 0.416,1.16 v 2.648 h -0.384 v -0.744 q -0.2,0.368 -0.584,0.576 -0.384,0.2 -0.92,0.2 -0.696,0 -1.104,-0.328 -0.4,-0.328 -0.4,-0.864 0,-0.52 0.368,-0.84 0.376,-0.328 1.192,-0.328 h 1.432 v -0.336 q 0,-0.584 -0.32,-0.888 -0.312,-0.304 -0.92,-0.304 -0.416,0 -0.8,0.144 -0.376,0.144 -0.64,0.384 l -0.2,-0.288 q 0.312,-0.28 0.752,-0.432 0.44,-0.16 0.92,-0.16 z m -0.224,3.912 q 0.52,0 0.88,-0.24 0.368,-0.24 0.552,-0.696 v -0.784 h -1.424 q -0.616,0 -0.896,0.224 -0.272,0.224 -0.272,0.616 0,0.408 0.304,0.648 0.304,0.232 0.856,0.232 z"
           style="font-weight:300;font-family:Montserrat;-inkscape-font-specification:'Montserrat Light'"
           id="path91809" />
        <path
           d="m 46.118274,59.643568 q -0.152,0.144 -0.384,0.224 -0.224,0.072 -0.472,0.072 -0.544,0 -0.84,-0.296 -0.296,-0.304 -0.296,-0.84 v -2.728 h -0.768 v -0.344 h 0.768 v -0.912 h 0.4 v 0.912 h 1.328 v 0.344 h -1.328 v 2.688 q 0,0.408 0.192,0.624 0.2,0.208 0.584,0.208 0.392,0 0.648,-0.232 z"
           style="font-weight:300;font-family:Montserrat;-inkscape-font-specification:'Montserrat Light'"
           id="path91811" />
        <path
           d="m 49.19025,59.643568 q -0.152,0.144 -0.384,0.224 -0.224,0.072 -0.472,0.072 -0.544,0 -0.84,-0.296 -0.296,-0.304 -0.296,-0.84 v -2.728 h -0.768 v -0.344 h 0.768 v -0.912 h 0.4 v 0.912 h 1.328 v 0.344 h -1.328 v 2.688 q 0,0.408 0.192,0.624 0.2,0.208 0.584,0.208 0.392,0 0.648,-0.232 z"
           style="font-weight:300;font-family:Montserrat;-inkscape-font-specification:'Montserrat Light'"
           id="path91813" />
        <path
           d="m 52.34224,55.699568 q 0.784,0 1.24,0.456 0.456,0.456 0.456,1.312 v 2.44 h -0.4 v -2.408 q 0,-0.704 -0.36,-1.072 -0.352,-0.368 -0.992,-0.368 -0.736,0 -1.16,0.44 -0.424,0.44 -0.424,1.184 v 2.224 h -0.4 v -5.936 h 0.4 v 2.632 q 0.216,-0.432 0.64,-0.664 0.424,-0.24 1,-0.24 z"
           style="font-weight:300;font-family:Montserrat;-inkscape-font-specification:'Montserrat Light'"
           id="path91815" />
        <path
           d="m 59.222223,57.915568 h -3.592 q 0.016,0.488 0.248,0.872 0.232,0.376 0.624,0.584 0.4,0.208 0.896,0.208 0.408,0 0.752,-0.144 0.352,-0.152 0.584,-0.44 l 0.232,0.264 q -0.272,0.328 -0.688,0.504 -0.408,0.176 -0.888,0.176 -0.624,0 -1.112,-0.272 -0.488,-0.272 -0.768,-0.752 -0.272,-0.48 -0.272,-1.096 0,-0.608 0.256,-1.088 0.264,-0.488 0.72,-0.76 0.456,-0.272 1.024,-0.272 0.568,0 1.016,0.272 0.456,0.264 0.712,0.744 0.264,0.48 0.264,1.088 z m -1.984,-1.864 q -0.44,0 -0.792,0.2 -0.352,0.192 -0.568,0.552 -0.208,0.352 -0.24,0.8 h 3.2 q -0.024,-0.448 -0.24,-0.8 -0.216,-0.352 -0.568,-0.552 -0.352,-0.2 -0.792,-0.2 z"
           style="font-weight:300;font-family:Montserrat;-inkscape-font-specification:'Montserrat Light'"
           id="path91817" />
        <path
           d="m 66.358207,55.731568 -1.584,4.176 h -0.376 l -1.408,-3.624 -1.416,3.624 h -0.368 l -1.584,-4.176 h 0.384 l 1.392,3.728 1.424,-3.728 h 0.344 l 1.416,3.72 1.408,-3.72 z"
           style="font-weight:300;font-family:Montserrat;-inkscape-font-specification:'Montserrat Light'"
           id="path91819" />
        <path
           d="m 74.766203,59.907568 -0.008,-4.792 -2.344,4.048 h -0.2 l -2.344,-4.032 v 4.776 h -0.4 v -5.6 h 0.344 l 2.504,4.328 2.504,-4.328 h 0.336 l 0.008,5.6 z"
           style="font-weight:300;font-family:Montserrat;-inkscape-font-specification:'Montserrat Light'"
           id="path91821" />
        <path
           d="m 76.990198,55.731568 h 0.4 v 4.176 h -0.4 z m 0.2,-1.016 q -0.136,0 -0.232,-0.088 -0.096,-0.096 -0.096,-0.232 0,-0.136 0.096,-0.232 0.096,-0.096 0.232,-0.096 0.136,0 0.232,0.096 0.096,0.088 0.096,0.224 0,0.136 -0.096,0.232 -0.096,0.096 -0.232,0.096 z"
           style="font-weight:300;font-family:Montserrat;-inkscape-font-specification:'Montserrat Light'"
           id="path91823" />
        <path
           d="m 79.462195,56.643568 q 0.192,-0.456 0.6,-0.696 0.408,-0.248 0.992,-0.248 v 0.392 l -0.096,-0.008 q -0.696,0 -1.088,0.44 -0.392,0.432 -0.392,1.208 v 2.176 h -0.4 v -4.176 h 0.384 z"
           style="font-weight:300;font-family:Montserrat;-inkscape-font-specification:'Montserrat Light'"
           id="path91825" />
        <path
           d="m 85.702183,55.731568 -1.888,4.176 h -0.408 l -1.88,-4.176 h 0.424 l 1.664,3.736 1.68,-3.736 z"
           style="font-weight:300;font-family:Montserrat;-inkscape-font-specification:'Montserrat Light'"
           id="path91827" />
        <path
           d="m 86.574182,55.731568 h 0.4 v 4.176 h -0.4 z m 0.2,-1.016 q -0.136,0 -0.232,-0.088 -0.096,-0.096 -0.096,-0.232 0,-0.136 0.096,-0.232 0.096,-0.096 0.232,-0.096 0.136,0 0.232,0.096 0.096,0.088 0.096,0.224 0,0.136 -0.096,0.232 -0.096,0.096 -0.232,0.096 z"
           style="font-weight:300;font-family:Montserrat;-inkscape-font-specification:'Montserrat Light'"
           id="path91829" />
        <path
           d="m 89.71818,59.939568 q -0.504,0 -0.96,-0.152 -0.456,-0.152 -0.712,-0.384 l 0.184,-0.32 q 0.256,0.216 0.656,0.36 0.408,0.144 0.848,0.144 0.632,0 0.928,-0.208 0.304,-0.208 0.304,-0.576 0,-0.264 -0.168,-0.416 -0.16,-0.152 -0.4,-0.224 -0.24,-0.072 -0.664,-0.152 -0.496,-0.088 -0.8,-0.192 -0.304,-0.104 -0.52,-0.336 -0.216,-0.232 -0.216,-0.64 0,-0.496 0.408,-0.816 0.416,-0.328 1.176,-0.328 0.4,0 0.792,0.112 0.392,0.112 0.64,0.296 l -0.184,0.32 q -0.256,-0.184 -0.584,-0.28 -0.328,-0.096 -0.672,-0.096 -0.584,0 -0.88,0.216 -0.296,0.216 -0.296,0.568 0,0.28 0.168,0.44 0.168,0.152 0.408,0.232 0.248,0.072 0.688,0.16 0.488,0.088 0.784,0.192 0.304,0.096 0.512,0.32 0.208,0.224 0.208,0.616 0,0.52 -0.432,0.832 -0.432,0.312 -1.216,0.312 z"
           style="font-weight:300;font-family:Montserrat;-inkscape-font-specification:'Montserrat Light'"
           id="path91831" />
        <path
           d="m 94.52617,55.699568 q 0.784,0 1.24,0.456 0.456,0.456 0.456,1.312 v 2.44 h -0.4 v -2.408 q 0,-0.704 -0.36,-1.072 -0.352,-0.368 -0.992,-0.368 -0.736,0 -1.16,0.44 -0.424,0.44 -0.424,1.184 v 2.224 h -0.4 v -5.936 h 0.4 v 2.632 q 0.216,-0.432 0.64,-0.664 0.424,-0.24 1,-0.24 z"
           style="font-weight:300;font-family:Montserrat;-inkscape-font-specification:'Montserrat Light'"
           id="path91833" />
      </g>
      <g
         aria-label="https://g.mm12.xyz/MSign"
         id="text34987"
         style="font-size:4.99999px;line-height:1.25;stroke-width:0.264583">
        <path
           d="m 19.815395,79.699252 q 0.489999,0 0.774999,0.284999 0.284999,0.285 0.284999,0.819999 v 1.524997 H 20.625394 V 80.82425 q 0,-0.44 -0.225,-0.669999 -0.219999,-0.23 -0.619999,-0.23 -0.459999,0 -0.724998,0.275 -0.265,0.274999 -0.265,0.739998 v 1.389998 h -0.249999 v -3.709993 h 0.249999 v 1.644997 q 0.135,-0.27 0.4,-0.415 0.264999,-0.149999 0.624998,-0.149999 z"
           style="font-weight:300;font-family:Montserrat;-inkscape-font-specification:'Montserrat Light'"
           id="path91716" />
        <path
           d="m 23.200381,82.164247 q -0.095,0.09 -0.24,0.14 -0.14,0.045 -0.294999,0.045 -0.34,0 -0.524999,-0.184999 -0.185,-0.19 -0.185,-0.524999 v -1.704997 h -0.479999 v -0.214999 h 0.479999 v -0.569999 h 0.25 v 0.569999 h 0.829998 v 0.214999 h -0.829998 v 1.679997 q 0,0.254999 0.119999,0.389999 0.125,0.13 0.365,0.13 0.244999,0 0.404999,-0.145 z"
           style="font-weight:300;font-family:Montserrat;-inkscape-font-specification:'Montserrat Light'"
           id="path91718" />
        <path
           d="m 25.120362,82.164247 q -0.095,0.09 -0.24,0.14 -0.14,0.045 -0.294999,0.045 -0.34,0 -0.524999,-0.184999 -0.185,-0.19 -0.185,-0.524999 v -1.704997 h -0.479999 v -0.214999 h 0.479999 v -0.569999 h 0.25 v 0.569999 h 0.829998 v 0.214999 h -0.829998 v 1.679997 q 0,0.254999 0.119999,0.389999 0.125,0.13 0.365,0.13 0.244999,0 0.404999,-0.145 z"
           style="font-weight:300;font-family:Montserrat;-inkscape-font-specification:'Montserrat Light'"
           id="path91720" />
        <path
           d="m 27.125352,79.699252 q 0.364999,0 0.659999,0.169999 0.294999,0.17 0.459999,0.47 0.169999,0.299999 0.169999,0.684998 0,0.384999 -0.169999,0.689999 -0.165,0.299999 -0.459999,0.469999 -0.295,0.164999 -0.659999,0.164999 -0.344999,0 -0.624999,-0.159999 -0.279999,-0.165 -0.434999,-0.454999 v 1.564997 h -0.249999 v -3.579993 h 0.239999 v 0.614999 q 0.155,-0.3 0.434999,-0.465 0.285,-0.169999 0.634999,-0.169999 z m -0.015,2.424995 q 0.299999,0 0.539999,-0.14 0.239999,-0.14 0.374999,-0.389999 0.14,-0.25 0.14,-0.569999 0,-0.319999 -0.14,-0.569999 -0.135,-0.249999 -0.374999,-0.389999 -0.24,-0.14 -0.539999,-0.14 -0.299999,0 -0.539999,0.14 -0.235,0.14 -0.374999,0.389999 -0.135,0.25 -0.135,0.569999 0,0.319999 0.135,0.569999 0.139999,0.249999 0.374999,0.389999 0.24,0.14 0.539999,0.14 z"
           style="font-weight:300;font-family:Montserrat;-inkscape-font-specification:'Montserrat Light'"
           id="path91722" />
        <path
           d="m 29.850343,82.349246 q -0.315,0 -0.599999,-0.095 -0.285,-0.095 -0.444999,-0.24 l 0.115,-0.199999 q 0.159999,0.134999 0.409999,0.224999 0.254999,0.09 0.529999,0.09 0.394999,0 0.579999,-0.13 0.189999,-0.13 0.189999,-0.359999 0,-0.165 -0.105,-0.26 -0.1,-0.095 -0.249999,-0.139999 -0.15,-0.045 -0.414999,-0.095 -0.31,-0.055 -0.499999,-0.12 -0.19,-0.065 -0.325,-0.209999 -0.134999,-0.145 -0.134999,-0.4 0,-0.309999 0.254999,-0.509999 0.26,-0.204999 0.734999,-0.204999 0.249999,0 0.494999,0.07 0.244999,0.07 0.399999,0.184999 l -0.115,0.2 q -0.16,-0.115 -0.364999,-0.175 -0.205,-0.06 -0.419999,-0.06 -0.365,0 -0.549999,0.135 -0.185,0.135 -0.185,0.354999 0,0.175 0.105,0.275 0.105,0.095 0.254999,0.145 0.155,0.045 0.43,0.1 0.304999,0.055 0.489999,0.12 0.189999,0.06 0.319999,0.2 0.13,0.139999 0.13,0.384999 0,0.324999 -0.27,0.519999 -0.269999,0.194999 -0.759998,0.194999 z"
           style="font-weight:300;font-family:Montserrat;-inkscape-font-specification:'Montserrat Light'"
           id="path91724" />
        <path
           d="m 31.550333,80.124251 q -0.085,0 -0.15,-0.06 -0.06,-0.065 -0.06,-0.155 0,-0.09 0.06,-0.149999 0.065,-0.06 0.15,-0.06 0.085,0 0.145,0.06 0.065,0.06 0.065,0.149999 0,0.09 -0.065,0.155 -0.06,0.06 -0.145,0.06 z m 0,2.224995 q -0.085,0 -0.15,-0.06 -0.06,-0.065 -0.06,-0.155 0,-0.09 0.06,-0.15 0.065,-0.06 0.15,-0.06 0.085,0 0.145,0.06 0.065,0.06 0.065,0.15 0,0.09 -0.065,0.155 -0.06,0.06 -0.145,0.06 z"
           style="font-weight:300;font-family:Montserrat;-inkscape-font-specification:'Montserrat Light'"
           id="path91726" />
        <path
           d="m 33.800319,78.119255 h 0.229999 l -1.649996,4.709991 h -0.23 z"
           style="font-weight:300;font-family:Montserrat;-inkscape-font-specification:'Montserrat Light'"
           id="path91728" />
        <path
           d="m 35.085307,78.119255 h 0.23 l -1.649997,4.709991 h -0.23 z"
           style="font-weight:300;font-family:Montserrat;-inkscape-font-specification:'Montserrat Light'"
           id="path91730" />
        <path
           d="m 37.6853,79.719252 v 2.329995 q 0,0.649999 -0.315,0.959998 -0.314999,0.31 -0.949998,0.31 -0.359999,0 -0.679998,-0.11 -0.32,-0.11 -0.514999,-0.305 l 0.134999,-0.189999 q 0.195,0.179999 0.469999,0.279999 0.275,0.1 0.584999,0.1 0.519999,0 0.769999,-0.25 0.249999,-0.244999 0.249999,-0.764998 v -0.439999 q -0.159999,0.284999 -0.444999,0.439999 -0.284999,0.155 -0.639999,0.155 -0.364999,0 -0.664998,-0.16 -0.295,-0.165 -0.464999,-0.454999 -0.17,-0.289999 -0.17,-0.654999 0,-0.364999 0.17,-0.654998 0.169999,-0.29 0.464999,-0.45 0.299999,-0.159999 0.664998,-0.159999 0.36,0 0.649999,0.159999 0.29,0.16 0.444999,0.45 v -0.589999 z m -1.314998,2.289995 q 0.305,0 0.549999,-0.13 0.245,-0.134999 0.379999,-0.369999 0.14,-0.239999 0.14,-0.544999 0,-0.304999 -0.14,-0.539999 -0.134999,-0.234999 -0.379999,-0.364999 -0.244999,-0.135 -0.549999,-0.135 -0.304999,0 -0.549999,0.135 -0.239999,0.13 -0.379999,0.364999 -0.135,0.235 -0.135,0.539999 0,0.305 0.135,0.544999 0.14,0.235 0.379999,0.369999 0.245,0.13 0.549999,0.13 z"
           style="font-weight:300;font-family:Montserrat;-inkscape-font-specification:'Montserrat Light'"
           id="path91732" />
        <path
           d="m 38.715293,82.349246 q -0.085,0 -0.15,-0.06 -0.06,-0.065 -0.06,-0.155 0,-0.09 0.06,-0.15 0.065,-0.06 0.15,-0.06 0.085,0 0.145,0.06 0.065,0.06 0.065,0.15 0,0.09 -0.065,0.155 -0.06,0.06 -0.145,0.06 z"
           style="font-weight:300;font-family:Montserrat;-inkscape-font-specification:'Montserrat Light'"
           id="path91734" />
        <path
           d="m 42.995279,79.699252 q 0.484999,0 0.759998,0.284999 0.28,0.285 0.28,0.819999 v 1.524997 h -0.25 V 80.82425 q 0,-0.44 -0.214999,-0.669999 -0.215,-0.23 -0.599999,-0.23 -0.439999,0 -0.699999,0.275 -0.254999,0.274999 -0.254999,0.739998 v 1.389998 h -0.25 V 80.82425 q 0,-0.44 -0.214999,-0.669999 -0.215,-0.23 -0.599999,-0.23 -0.439999,0 -0.699999,0.275 -0.254999,0.274999 -0.254999,0.739998 v 1.389998 h -0.25 v -2.609995 h 0.24 v 0.559999 q 0.129999,-0.275 0.384999,-0.425 0.259999,-0.154999 0.614999,-0.154999 0.354999,0 0.599999,0.159999 0.249999,0.16 0.354999,0.47 0.13,-0.29 0.404999,-0.46 0.279999,-0.169999 0.649999,-0.169999 z"
           style="font-weight:300;font-family:Montserrat;-inkscape-font-specification:'Montserrat Light'"
           id="path91736" />
        <path
           d="m 48.315263,79.699252 q 0.484999,0 0.759999,0.284999 0.279999,0.285 0.279999,0.819999 v 1.524997 H 49.105262 V 80.82425 q 0,-0.44 -0.215,-0.669999 -0.215,-0.23 -0.599999,-0.23 -0.439999,0 -0.699998,0.275 -0.255,0.274999 -0.255,0.739998 v 1.389998 H 47.085266 V 80.82425 q 0,-0.44 -0.215,-0.669999 -0.215,-0.23 -0.599999,-0.23 -0.439999,0 -0.699998,0.275 -0.255,0.274999 -0.255,0.739998 v 1.389998 H 45.06527 v -2.609995 h 0.239999 v 0.559999 q 0.13,-0.275 0.384999,-0.425 0.26,-0.154999 0.614999,-0.154999 0.354999,0 0.599999,0.159999 0.249999,0.16 0.354999,0.47 0.13,-0.29 0.404999,-0.46 0.28,-0.169999 0.649999,-0.169999 z"
           style="font-weight:300;font-family:Montserrat;-inkscape-font-specification:'Montserrat Light'"
           id="path91738" />
        <path
           d="m 50.890254,78.829254 v 3.499993 h -0.255 v -3.269994 h -0.854998 v -0.229999 z"
           style="font-weight:300;font-family:Montserrat;-inkscape-font-specification:'Montserrat Light'"
           id="path91740" />
        <path
           d="m 54.110239,82.099247 v 0.23 h -2.404995 v -0.18 l 1.479997,-1.469997 q 0.289999,-0.29 0.389999,-0.494999 0.105,-0.21 0.105,-0.429999 0,-0.335 -0.23,-0.524999 -0.224999,-0.19 -0.654998,-0.19 -0.33,0 -0.579999,0.1 -0.245,0.1 -0.424999,0.304999 l -0.18,-0.159999 q 0.2,-0.23 0.504999,-0.355 0.309999,-0.124999 0.699999,-0.124999 0.514998,0 0.819998,0.249999 0.304999,0.25 0.304999,0.674999 0,0.269999 -0.12,0.514999 -0.119999,0.244999 -0.449999,0.569999 l -1.289997,1.284997 z"
           style="font-weight:300;font-family:Montserrat;-inkscape-font-specification:'Montserrat Light'"
           id="path91742" />
        <path
           d="m 54.86523,82.349246 q -0.085,0 -0.15,-0.06 -0.06,-0.065 -0.06,-0.155 0,-0.09 0.06,-0.15 0.065,-0.06 0.15,-0.06 0.085,0 0.144999,0.06 0.065,0.06 0.065,0.15 0,0.09 -0.065,0.155 -0.06,0.06 -0.144999,0.06 z"
           style="font-weight:300;font-family:Montserrat;-inkscape-font-specification:'Montserrat Light'"
           id="path91744" />
        <path
           d="m 57.555219,82.329247 -0.894999,-1.164998 -0.894998,1.164998 h -0.284999 l 1.034998,-1.344998 -0.979998,-1.264997 h 0.284999 l 0.839998,1.084998 0.839999,-1.084998 h 0.279999 l -0.979998,1.264997 1.049998,1.344998 z"
           style="font-weight:300;font-family:Montserrat;-inkscape-font-specification:'Montserrat Light'"
           id="path91746" />
        <path
           d="m 60.435206,79.719252 -1.339997,2.964994 q -0.15,0.344999 -0.35,0.489999 -0.194999,0.145 -0.464999,0.145 -0.179999,0 -0.339999,-0.06 -0.155,-0.06 -0.265,-0.175 l 0.125,-0.19 q 0.2,0.205 0.484999,0.205 0.19,0 0.325,-0.105 0.134999,-0.105 0.249999,-0.359999 l 0.14,-0.314999 -1.174998,-2.599995 h 0.265 l 1.044998,2.334995 1.044997,-2.334995 z"
           style="font-weight:300;font-family:Montserrat;-inkscape-font-specification:'Montserrat Light'"
           id="path91748" />
        <path
           d="m 62.695199,82.114247 v 0.215 h -2.074996 v -0.17 L 62.3402,79.934251 h -1.694997 v -0.214999 h 2.019996 v 0.169999 l -1.724996,2.224996 z"
           style="font-weight:300;font-family:Montserrat;-inkscape-font-specification:'Montserrat Light'"
           id="path91750" />
        <path
           d="m 64.450185,78.119255 h 0.229999 l -1.649996,4.709991 h -0.23 z"
           style="font-weight:300;font-family:Montserrat;-inkscape-font-specification:'Montserrat Light'"
           id="path91752" />
        <path
           d="m 68.435178,82.329247 -0.005,-2.994994 -1.464997,2.529994 h -0.124999 l -1.464997,-2.519995 v 2.984995 h -0.25 v -3.499993 h 0.215 l 1.564997,2.704994 1.564996,-2.704994 h 0.21 l 0.005,3.499993 z"
           style="font-weight:300;font-family:Montserrat;-inkscape-font-specification:'Montserrat Light'"
           id="path91754" />
        <path
           d="m 70.825171,82.354246 q -0.385,0 -0.734999,-0.129999 -0.344999,-0.135 -0.539999,-0.345 l 0.115,-0.189999 q 0.185,0.194999 0.494999,0.319999 0.314999,0.12 0.659999,0.12 0.499999,0 0.754998,-0.19 0.255,-0.189999 0.255,-0.494999 0,-0.234999 -0.135,-0.374999 -0.135,-0.14 -0.334999,-0.215 -0.2,-0.075 -0.539999,-0.154999 -0.385,-0.095 -0.619999,-0.185 -0.23,-0.09 -0.394999,-0.274999 -0.16,-0.19 -0.16,-0.504999 0,-0.255 0.135,-0.464999 0.134999,-0.215 0.409999,-0.34 0.279999,-0.124999 0.694998,-0.124999 0.29,0 0.569999,0.085 0.28,0.085 0.484999,0.23 l -0.095,0.205 q -0.21,-0.145 -0.465,-0.22 -0.249999,-0.075 -0.494999,-0.075 -0.484999,0 -0.734998,0.195 -0.25,0.194999 -0.25,0.504999 0,0.234999 0.135,0.374999 0.135,0.14 0.334999,0.215 0.2,0.075 0.544999,0.159999 0.385,0.095 0.614999,0.185 0.23,0.09 0.389999,0.274999 0.165,0.18 0.165,0.489999 0,0.255 -0.14,0.464999 -0.134999,0.21 -0.419999,0.335 -0.284999,0.124999 -0.699998,0.124999 z"
           style="font-weight:300;font-family:Montserrat;-inkscape-font-specification:'Montserrat Light'"
           id="path91756" />
        <path
           d="m 72.870159,79.719252 h 0.25 v 2.609995 h -0.25 z m 0.125,-0.634999 q -0.085,0 -0.145,-0.055 -0.06,-0.06 -0.06,-0.145 0,-0.085 0.06,-0.144999 0.06,-0.06 0.145,-0.06 0.085,0 0.145,0.06 0.06,0.055 0.06,0.139999 0,0.085 -0.06,0.145 -0.06,0.06 -0.145,0.06 z"
           style="font-weight:300;font-family:Montserrat;-inkscape-font-specification:'Montserrat Light'"
           id="path91758" />
        <path
           d="m 76.525151,79.719252 v 2.329995 q 0,0.649999 -0.314999,0.959998 -0.315,0.31 -0.949998,0.31 -0.36,0 -0.679999,-0.11 -0.319999,-0.11 -0.514999,-0.305 l 0.135,-0.189999 q 0.194999,0.179999 0.469999,0.279999 0.274999,0.1 0.584999,0.1 0.519999,0 0.769998,-0.25 0.25,-0.244999 0.25,-0.764998 v -0.439999 q -0.16,0.284999 -0.445,0.439999 -0.284999,0.155 -0.639998,0.155 -0.365,0 -0.664999,-0.16 -0.294999,-0.165 -0.464999,-0.454999 -0.17,-0.289999 -0.17,-0.654999 0,-0.364999 0.17,-0.654998 0.17,-0.29 0.464999,-0.45 0.299999,-0.159999 0.664999,-0.159999 0.359999,0 0.649998,0.159999 0.29,0.16 0.445,0.45 v -0.589999 z m -1.314997,2.289995 q 0.304999,0 0.549999,-0.13 0.244999,-0.134999 0.379999,-0.369999 0.14,-0.239999 0.14,-0.544999 0,-0.304999 -0.14,-0.539999 -0.135,-0.234999 -0.379999,-0.364999 -0.245,-0.135 -0.549999,-0.135 -0.305,0 -0.549999,0.135 -0.24,0.13 -0.379999,0.364999 -0.135,0.235 -0.135,0.539999 0,0.305 0.135,0.544999 0.139999,0.235 0.379999,0.369999 0.244999,0.13 0.549999,0.13 z"
           style="font-weight:300;font-family:Montserrat;-inkscape-font-specification:'Montserrat Light'"
           id="path91760" />
        <path
           d="m 78.860142,79.699252 q 0.489999,0 0.774998,0.284999 0.285,0.285 0.285,0.819999 v 1.524997 h -0.25 V 80.82425 q 0,-0.44 -0.225,-0.669999 -0.219999,-0.23 -0.619998,-0.23 -0.459999,0 -0.724999,0.275 -0.264999,0.274999 -0.264999,0.739998 v 1.389998 h -0.25 v -2.609995 h 0.24 v 0.564999 q 0.134999,-0.275 0.399999,-0.43 0.269999,-0.154999 0.634999,-0.154999 z"
           style="font-weight:300;font-family:Montserrat;-inkscape-font-specification:'Montserrat Light'"
           id="path91762" />
      </g>
      <g
         aria-label="&quot;it lights up&quot; &quot;it's a sign of where my time has gone&quot;"
         id="text62963"
         style="font-size:4px;line-height:1.25;stroke-width:0.264583">
        <path
           d="m 37.686292,85.990543 h 0.184 l -0.22,1.032 h -0.156 z m 0.648,0 h 0.184 l -0.22,1.032 h -0.156 z"
           style="font-style:italic;font-weight:300;font-family:Montserrat;-inkscape-font-specification:'Montserrat Light Italic';text-align:center;text-anchor:middle"
           id="path91629" />
        <path
           d="m 39.094286,86.702543 h 0.2 l -0.416,2.088 h -0.2 z m 0.224,-0.508 q -0.064,0 -0.108,-0.044 -0.044,-0.044 -0.044,-0.104 0,-0.072 0.048,-0.124 0.052,-0.052 0.128,-0.052 0.064,0 0.108,0.044 0.048,0.044 0.048,0.104 0,0.076 -0.052,0.128 -0.052,0.048 -0.128,0.048 z"
           style="font-style:italic;font-weight:300;font-family:Montserrat;-inkscape-font-specification:'Montserrat Light Italic';text-align:center;text-anchor:middle"
           id="path91631" />
        <path
           d="m 40.086284,88.186543 q -0.016,0.076 -0.016,0.148 0,0.3 0.32,0.3 0.192,0 0.34,-0.116 l 0.06,0.148 q -0.172,0.14 -0.448,0.14 -0.224,0 -0.352,-0.116 -0.124,-0.12 -0.124,-0.328 0,-0.084 0.016,-0.16 l 0.268,-1.328 h -0.388 l 0.032,-0.172 h 0.388 l 0.092,-0.456 h 0.2 l -0.092,0.456 h 0.664 l -0.032,0.172 h -0.664 z"
           style="font-style:italic;font-weight:300;font-family:Montserrat;-inkscape-font-specification:'Montserrat Light Italic';text-align:center;text-anchor:middle"
           id="path91633" />
        <path
           d="m 42.93428,85.822543 h 0.2 l -0.592,2.968 h -0.2 z"
           style="font-style:italic;font-weight:300;font-family:Montserrat;-inkscape-font-specification:'Montserrat Light Italic';text-align:center;text-anchor:middle"
           id="path91635" />
        <path
           d="m 43.802278,86.702543 h 0.2 l -0.416,2.088 h -0.2 z m 0.224,-0.508 q -0.064,0 -0.108,-0.044 -0.044,-0.044 -0.044,-0.104 0,-0.072 0.048,-0.124 0.052,-0.052 0.128,-0.052 0.064,0 0.108,0.044 0.048,0.044 0.048,0.104 0,0.076 -0.052,0.128 -0.052,0.048 -0.128,0.048 z"
           style="font-style:italic;font-weight:300;font-family:Montserrat;-inkscape-font-specification:'Montserrat Light Italic';text-align:center;text-anchor:middle"
           id="path91637" />
        <path
           d="m 46.734277,86.702543 -0.372,1.864 q -0.104,0.532 -0.392,0.772 -0.288,0.244 -0.796,0.244 -0.288,0 -0.52,-0.088 -0.232,-0.084 -0.384,-0.24 l 0.128,-0.148 q 0.128,0.14 0.332,0.216 0.204,0.08 0.46,0.08 0.416,0 0.652,-0.196 0.236,-0.196 0.316,-0.608 l 0.064,-0.312 q -0.156,0.204 -0.388,0.316 -0.232,0.112 -0.516,0.112 -0.42,0 -0.668,-0.224 -0.244,-0.224 -0.244,-0.608 0,-0.336 0.152,-0.608 0.152,-0.276 0.424,-0.432 0.272,-0.156 0.612,-0.156 0.328,0 0.548,0.14 0.22,0.14 0.296,0.408 l 0.104,-0.532 z m -1.38,1.832 q 0.284,0 0.508,-0.128 0.224,-0.132 0.352,-0.36 0.128,-0.232 0.128,-0.52 0,-0.312 -0.2,-0.484 -0.196,-0.176 -0.548,-0.176 -0.284,0 -0.508,0.132 -0.224,0.128 -0.352,0.36 -0.128,0.228 -0.128,0.516 0,0.312 0.196,0.488 0.2,0.172 0.552,0.172 z"
           style="font-style:italic;font-weight:300;font-family:Montserrat;-inkscape-font-specification:'Montserrat Light Italic';text-align:center;text-anchor:middle"
           id="path91639" />
        <path
           d="m 48.554274,86.686543 q 0.356,0 0.548,0.18 0.192,0.176 0.192,0.488 0,0.108 -0.024,0.228 l -0.24,1.208 h -0.2 l 0.24,-1.208 q 0.02,-0.092 0.02,-0.2 0,-0.248 -0.152,-0.38 -0.148,-0.136 -0.436,-0.136 -0.36,0 -0.6,0.204 -0.24,0.2 -0.316,0.584 l -0.228,1.136 h -0.2 l 0.592,-2.968 h 0.2 l -0.252,1.268 q 0.296,-0.404 0.856,-0.404 z"
           style="font-style:italic;font-weight:300;font-family:Montserrat;-inkscape-font-specification:'Montserrat Light Italic';text-align:center;text-anchor:middle"
           id="path91641" />
        <path
           d="m 50.214268,88.186543 q -0.016,0.076 -0.016,0.148 0,0.3 0.32,0.3 0.192,0 0.34,-0.116 l 0.06,0.148 q -0.172,0.14 -0.448,0.14 -0.224,0 -0.352,-0.116 -0.124,-0.12 -0.124,-0.328 0,-0.084 0.016,-0.16 l 0.268,-1.328 h -0.388 l 0.032,-0.172 h 0.388 l 0.092,-0.456 h 0.2 l -0.092,0.456 h 0.664 l -0.032,0.172 h -0.664 z"
           style="font-style:italic;font-weight:300;font-family:Montserrat;-inkscape-font-specification:'Montserrat Light Italic';text-align:center;text-anchor:middle"
           id="path91643" />
        <path
           d="m 52.014263,88.806543 q -0.244,0 -0.468,-0.072 -0.22,-0.076 -0.344,-0.192 l 0.108,-0.156 q 0.116,0.112 0.308,0.18 0.196,0.064 0.412,0.064 0.324,0 0.5,-0.112 0.18,-0.116 0.18,-0.32 0,-0.116 -0.072,-0.184 -0.072,-0.068 -0.176,-0.1 -0.104,-0.036 -0.288,-0.076 -0.216,-0.044 -0.352,-0.092 -0.132,-0.048 -0.224,-0.148 -0.092,-0.104 -0.092,-0.28 0,-0.288 0.236,-0.46 0.24,-0.172 0.636,-0.172 0.2,0 0.388,0.056 0.188,0.052 0.3,0.148 l -0.092,0.156 q -0.116,-0.092 -0.28,-0.136 -0.16,-0.048 -0.332,-0.048 -0.304,0 -0.484,0.12 -0.176,0.12 -0.176,0.316 0,0.12 0.072,0.192 0.072,0.068 0.18,0.104 0.112,0.036 0.296,0.076 0.216,0.044 0.344,0.092 0.132,0.044 0.224,0.144 0.092,0.1 0.092,0.272 0,0.292 -0.244,0.46 -0.244,0.168 -0.652,0.168 z"
           style="font-style:italic;font-weight:300;font-family:Montserrat;-inkscape-font-specification:'Montserrat Light Italic';text-align:center;text-anchor:middle"
           id="path91645" />
        <path
           d="m 56.634258,86.702543 -0.416,2.088 h -0.196 l 0.08,-0.396 q -0.292,0.412 -0.856,0.412 -0.352,0 -0.544,-0.176 -0.188,-0.18 -0.188,-0.492 0,-0.108 0.024,-0.228 l 0.24,-1.208 h 0.2 l -0.24,1.208 q -0.02,0.088 -0.02,0.2 0,0.248 0.144,0.384 0.148,0.132 0.436,0.132 0.36,0 0.596,-0.2 0.236,-0.204 0.312,-0.588 l 0.228,-1.136 z"
           style="font-style:italic;font-weight:300;font-family:Montserrat;-inkscape-font-specification:'Montserrat Light Italic';text-align:center;text-anchor:middle"
           id="path91647" />
        <path
           d="m 58.466252,86.686543 q 0.408,0 0.656,0.236 0.248,0.232 0.248,0.632 0,0.356 -0.156,0.644 -0.152,0.284 -0.424,0.448 -0.268,0.16 -0.604,0.16 -0.324,0 -0.536,-0.136 -0.208,-0.14 -0.288,-0.4 l -0.26,1.296 h -0.2 l 0.572,-2.864 h 0.196 l -0.08,0.404 q 0.152,-0.2 0.376,-0.308 0.224,-0.112 0.5,-0.112 z m -0.276,1.94 q 0.28,0 0.5,-0.136 0.224,-0.14 0.348,-0.38 0.128,-0.24 0.128,-0.544 0,-0.332 -0.196,-0.516 -0.192,-0.184 -0.544,-0.184 -0.28,0 -0.504,0.136 -0.22,0.136 -0.348,0.38 -0.128,0.24 -0.128,0.544 0,0.332 0.196,0.516 0.196,0.184 0.548,0.184 z"
           style="font-style:italic;font-weight:300;font-family:Montserrat;-inkscape-font-specification:'Montserrat Light Italic';text-align:center;text-anchor:middle"
           id="path91649" />
        <path
           d="m 60.134244,85.990543 h 0.184 l -0.22,1.032 h -0.156 z m 0.648,0 h 0.184 l -0.22,1.032 h -0.156 z"
           style="font-style:italic;font-weight:300;font-family:Montserrat;-inkscape-font-specification:'Montserrat Light Italic';text-align:center;text-anchor:middle"
           id="path91651" />
        <path
           d="m 11.210336,91.017595 h 0.184 l -0.22,1.032 h -0.156 z m 0.648,0 h 0.184 l -0.22,1.032 h -0.156 z"
           style="font-style:italic;font-weight:300;font-family:Montserrat;-inkscape-font-specification:'Montserrat Light Italic';text-align:center;text-anchor:middle"
           id="path91653" />
        <path
           d="m 12.61833,91.729595 h 0.2 l -0.416,2.088 h -0.2 z m 0.224,-0.508 q -0.064,0 -0.108,-0.044 -0.044,-0.044 -0.044,-0.104 0,-0.072 0.048,-0.124 0.052,-0.052 0.128,-0.052 0.064,0 0.108,0.044 0.048,0.044 0.048,0.104 0,0.076 -0.052,0.128 -0.052,0.048 -0.128,0.048 z"
           style="font-style:italic;font-weight:300;font-family:Montserrat;-inkscape-font-specification:'Montserrat Light Italic';text-align:center;text-anchor:middle"
           id="path91655" />
        <path
           d="m 13.610328,93.213595 q -0.016,0.076 -0.016,0.148 0,0.3 0.32,0.3 0.192,0 0.34,-0.116 l 0.06,0.148 q -0.172,0.14 -0.448,0.14 -0.224,0 -0.352,-0.116 -0.124,-0.12 -0.124,-0.328 0,-0.084 0.016,-0.16 l 0.268,-1.328 h -0.388 l 0.032,-0.172 h 0.388 l 0.092,-0.456 h 0.2 l -0.092,0.456 h 0.664 l -0.032,0.172 h -0.664 z"
           style="font-style:italic;font-weight:300;font-family:Montserrat;-inkscape-font-specification:'Montserrat Light Italic';text-align:center;text-anchor:middle"
           id="path91657" />
        <path
           d="m 15.274324,91.017595 h 0.184 l -0.22,1.032 h -0.156 z"
           style="font-style:italic;font-weight:300;font-family:Montserrat;-inkscape-font-specification:'Montserrat Light Italic';text-align:center;text-anchor:middle"
           id="path91659" />
        <path
           d="m 16.186317,93.833595 q -0.244,0 -0.468,-0.072 -0.22,-0.076 -0.344,-0.192 l 0.108,-0.156 q 0.116,0.112 0.308,0.18 0.196,0.064 0.412,0.064 0.324,0 0.5,-0.112 0.18,-0.116 0.18,-0.32 0,-0.116 -0.072,-0.184 -0.072,-0.068 -0.176,-0.1 -0.104,-0.036 -0.288,-0.076 -0.216,-0.044 -0.352,-0.092 -0.132,-0.048 -0.224,-0.148 -0.092,-0.104 -0.092,-0.28 0,-0.288 0.236,-0.46 0.24,-0.172 0.636,-0.172 0.2,0 0.388,0.056 0.188,0.052 0.3,0.148 l -0.092,0.156 q -0.116,-0.092 -0.28,-0.136 -0.16,-0.048 -0.332,-0.048 -0.304,0 -0.484,0.12 -0.176,0.12 -0.176,0.316 0,0.12 0.072,0.192 0.072,0.068 0.18,0.104 0.112,0.036 0.296,0.076 0.216,0.044 0.344,0.092 0.132,0.044 0.224,0.144 0.092,0.1 0.092,0.272 0,0.292 -0.244,0.46 -0.244,0.168 -0.652,0.168 z"
           style="font-style:italic;font-weight:300;font-family:Montserrat;-inkscape-font-specification:'Montserrat Light Italic';text-align:center;text-anchor:middle"
           id="path91661" />
        <path
           d="m 20.830312,91.729595 -0.416,2.088 h -0.192 l 0.08,-0.408 q -0.152,0.2 -0.38,0.312 -0.224,0.112 -0.5,0.112 -0.408,0 -0.656,-0.232 -0.244,-0.236 -0.244,-0.636 0,-0.356 0.152,-0.64 0.152,-0.288 0.42,-0.448 0.272,-0.164 0.608,-0.164 0.324,0 0.536,0.14 0.212,0.14 0.288,0.396 l 0.104,-0.52 z m -1.368,1.924 q 0.28,0 0.5,-0.136 0.224,-0.136 0.352,-0.376 0.128,-0.244 0.128,-0.548 0,-0.332 -0.196,-0.516 -0.192,-0.184 -0.544,-0.184 -0.28,0 -0.504,0.14 -0.22,0.136 -0.348,0.38 -0.128,0.24 -0.128,0.54 0,0.332 0.192,0.516 0.196,0.184 0.548,0.184 z"
           style="font-style:italic;font-weight:300;font-family:Montserrat;-inkscape-font-specification:'Montserrat Light Italic';text-align:center;text-anchor:middle"
           id="path91663" />
        <path
           d="m 22.854309,93.833595 q -0.244,0 -0.468,-0.072 -0.22,-0.076 -0.344,-0.192 l 0.108,-0.156 q 0.116,0.112 0.308,0.18 0.196,0.064 0.412,0.064 0.324,0 0.5,-0.112 0.18,-0.116 0.18,-0.32 0,-0.116 -0.072,-0.184 -0.072,-0.068 -0.176,-0.1 -0.104,-0.036 -0.288,-0.076 -0.216,-0.044 -0.352,-0.092 -0.132,-0.048 -0.224,-0.148 -0.092,-0.104 -0.092,-0.28 0,-0.288 0.236,-0.46 0.24,-0.172 0.636,-0.172 0.2,0 0.388,0.056 0.188,0.052 0.3,0.148 l -0.092,0.156 q -0.116,-0.092 -0.28,-0.136 -0.16,-0.048 -0.332,-0.048 -0.304,0 -0.484,0.12 -0.176,0.12 -0.176,0.316 0,0.12 0.072,0.192 0.072,0.068 0.18,0.104 0.112,0.036 0.296,0.076 0.216,0.044 0.344,0.092 0.132,0.044 0.224,0.144 0.092,0.1 0.092,0.272 0,0.292 -0.244,0.46 -0.244,0.168 -0.652,0.168 z"
           style="font-style:italic;font-weight:300;font-family:Montserrat;-inkscape-font-specification:'Montserrat Light Italic';text-align:center;text-anchor:middle"
           id="path91665" />
        <path
           d="m 24.610304,91.729595 h 0.2 l -0.416,2.088 h -0.2 z m 0.224,-0.508 q -0.064,0 -0.108,-0.044 -0.044,-0.044 -0.044,-0.104 0,-0.072 0.048,-0.124 0.052,-0.052 0.128,-0.052 0.064,0 0.108,0.044 0.048,0.044 0.048,0.104 0,0.076 -0.052,0.128 -0.052,0.048 -0.128,0.048 z"
           style="font-style:italic;font-weight:300;font-family:Montserrat;-inkscape-font-specification:'Montserrat Light Italic';text-align:center;text-anchor:middle"
           id="path91667" />
        <path
           d="m 27.542302,91.729595 -0.372,1.864 q -0.104,0.532 -0.392,0.772 -0.288,0.244 -0.796,0.244 -0.288,0 -0.52,-0.088 -0.232,-0.084 -0.384,-0.24 l 0.128,-0.148 q 0.128,0.14 0.332,0.216 0.204,0.08 0.46,0.08 0.416,0 0.652,-0.196 0.236,-0.196 0.316,-0.608 l 0.064,-0.312 q -0.156,0.204 -0.388,0.316 -0.232,0.112 -0.516,0.112 -0.42,0 -0.668,-0.224 -0.244,-0.224 -0.244,-0.608 0,-0.336 0.152,-0.608 0.152,-0.276 0.424,-0.432 0.272,-0.156 0.612,-0.156 0.328,0 0.548,0.14 0.22,0.14 0.296,0.408 l 0.104,-0.532 z m -1.38,1.832 q 0.284,0 0.508,-0.128 0.224,-0.132 0.352,-0.36 0.128,-0.232 0.128,-0.52 0,-0.312 -0.2,-0.484 -0.196,-0.176 -0.548,-0.176 -0.284,0 -0.508,0.132 -0.224,0.128 -0.352,0.36 -0.128,0.228 -0.128,0.516 0,0.312 0.196,0.488 0.2,0.172 0.552,0.172 z"
           style="font-style:italic;font-weight:300;font-family:Montserrat;-inkscape-font-specification:'Montserrat Light Italic';text-align:center;text-anchor:middle"
           id="path91669" />
        <path
           d="m 29.362299,91.713595 q 0.356,0 0.548,0.18 0.192,0.176 0.192,0.488 0,0.108 -0.024,0.228 l -0.24,1.208 h -0.2 l 0.24,-1.208 q 0.02,-0.092 0.02,-0.2 0,-0.248 -0.152,-0.38 -0.148,-0.136 -0.436,-0.136 -0.36,0 -0.6,0.204 -0.24,0.2 -0.316,0.584 l -0.228,1.136 h -0.2 l 0.416,-2.088 h 0.196 l -0.08,0.396 q 0.148,-0.208 0.368,-0.308 0.224,-0.104 0.496,-0.104 z"
           style="font-style:italic;font-weight:300;font-family:Montserrat;-inkscape-font-specification:'Montserrat Light Italic';text-align:center;text-anchor:middle"
           id="path91671" />
        <path
           d="m 32.578293,93.833595 q -0.424,0 -0.676,-0.236 -0.248,-0.236 -0.248,-0.632 0,-0.356 0.152,-0.64 0.156,-0.284 0.428,-0.448 0.272,-0.164 0.616,-0.164 0.424,0 0.672,0.236 0.252,0.232 0.252,0.632 0,0.356 -0.156,0.644 -0.152,0.284 -0.424,0.448 -0.272,0.16 -0.616,0.16 z m 0.016,-0.18 q 0.28,0 0.5,-0.136 0.224,-0.136 0.352,-0.376 0.128,-0.244 0.128,-0.548 0,-0.332 -0.196,-0.516 -0.192,-0.184 -0.544,-0.184 -0.28,0 -0.504,0.14 -0.22,0.136 -0.348,0.38 -0.128,0.24 -0.128,0.54 0,0.332 0.192,0.516 0.196,0.184 0.548,0.184 z"
           style="font-style:italic;font-weight:300;font-family:Montserrat;-inkscape-font-specification:'Montserrat Light Italic';text-align:center;text-anchor:middle"
           id="path91673" />
        <path
           d="m 35.354288,91.005595 q -0.196,0 -0.312,0.104 -0.116,0.104 -0.16,0.332 l -0.06,0.288 h 0.668 l -0.032,0.172 h -0.668 l -0.38,1.916 h -0.2 l 0.384,-1.916 h -0.388 l 0.032,-0.172 h 0.388 l 0.064,-0.316 q 0.056,-0.284 0.224,-0.432 0.172,-0.148 0.444,-0.148 0.124,0 0.232,0.036 0.108,0.036 0.172,0.104 l -0.096,0.144 q -0.12,-0.112 -0.312,-0.112 z"
           style="font-style:italic;font-weight:300;font-family:Montserrat;-inkscape-font-specification:'Montserrat Light Italic';text-align:center;text-anchor:middle"
           id="path91675" />
        <path
           d="m 39.926285,91.729595 -1.18,2.088 h -0.192 l -0.38,-1.816 -1.04,1.816 h -0.192 l -0.416,-2.088 h 0.184 l 0.364,1.864 1.06,-1.864 h 0.172 l 0.376,1.86 1.048,-1.86 z"
           style="font-style:italic;font-weight:300;font-family:Montserrat;-inkscape-font-specification:'Montserrat Light Italic';text-align:center;text-anchor:middle"
           id="path91677" />
        <path
           d="m 41.346277,91.713595 q 0.356,0 0.548,0.18 0.192,0.176 0.192,0.488 0,0.108 -0.024,0.228 l -0.24,1.208 h -0.2 l 0.24,-1.208 q 0.02,-0.092 0.02,-0.2 0,-0.248 -0.152,-0.38 -0.148,-0.136 -0.436,-0.136 -0.36,0 -0.6,0.204 -0.24,0.2 -0.316,0.584 l -0.228,1.136 h -0.2 l 0.592,-2.968 h 0.2 l -0.252,1.268 q 0.296,-0.404 0.856,-0.404 z"
           style="font-style:italic;font-weight:300;font-family:Montserrat;-inkscape-font-specification:'Montserrat Light Italic';text-align:center;text-anchor:middle"
           id="path91679" />
        <path
           d="m 42.818269,92.817595 q -0.008,0.088 -0.008,0.132 0,0.34 0.196,0.524 0.196,0.18 0.576,0.18 0.22,0 0.404,-0.072 0.188,-0.076 0.312,-0.208 l 0.092,0.14 q -0.14,0.152 -0.36,0.236 -0.216,0.084 -0.464,0.084 -0.444,0 -0.7,-0.232 -0.252,-0.232 -0.252,-0.644 0,-0.352 0.148,-0.636 0.148,-0.284 0.408,-0.444 0.26,-0.164 0.584,-0.164 0.408,0 0.648,0.232 0.24,0.232 0.24,0.64 0,0.096 -0.024,0.232 z m 0.932,-0.932 q -0.34,0 -0.588,0.212 -0.244,0.212 -0.32,0.564 h 1.608 q 0.004,-0.036 0.004,-0.104 0,-0.316 -0.192,-0.492 -0.192,-0.18 -0.512,-0.18 z"
           style="font-style:italic;font-weight:300;font-family:Montserrat;-inkscape-font-specification:'Montserrat Light Italic';text-align:center;text-anchor:middle"
           id="path91681" />
        <path
           d="m 45.562267,92.169595 q 0.14,-0.228 0.356,-0.34 0.22,-0.116 0.532,-0.116 l -0.036,0.196 -0.064,-0.004 q -0.356,0 -0.584,0.212 -0.228,0.212 -0.312,0.628 l -0.216,1.072 h -0.2 l 0.416,-2.088 h 0.196 z"
           style="font-style:italic;font-weight:300;font-family:Montserrat;-inkscape-font-specification:'Montserrat Light Italic';text-align:center;text-anchor:middle"
           id="path91683" />
        <path
           d="m 46.730256,92.817595 q -0.008,0.088 -0.008,0.132 0,0.34 0.196,0.524 0.196,0.18 0.576,0.18 0.22,0 0.404,-0.072 0.188,-0.076 0.312,-0.208 l 0.092,0.14 q -0.14,0.152 -0.36,0.236 -0.216,0.084 -0.464,0.084 -0.444,0 -0.7,-0.232 -0.252,-0.232 -0.252,-0.644 0,-0.352 0.148,-0.636 0.148,-0.284 0.408,-0.444 0.26,-0.164 0.584,-0.164 0.408,0 0.648,0.232 0.24,0.232 0.24,0.64 0,0.096 -0.024,0.232 z m 0.932,-0.932 q -0.34,0 -0.588,0.212 -0.244,0.212 -0.32,0.564 h 1.608 q 0.004,-0.036 0.004,-0.104 0,-0.316 -0.192,-0.492 -0.192,-0.18 -0.512,-0.18 z"
           style="font-style:italic;font-weight:300;font-family:Montserrat;-inkscape-font-specification:'Montserrat Light Italic';text-align:center;text-anchor:middle"
           id="path91685" />
        <path
           d="m 52.950254,91.713595 q 0.352,0 0.54,0.176 0.188,0.172 0.188,0.484 0,0.108 -0.024,0.236 l -0.244,1.208 h -0.2 l 0.244,-1.208 q 0.02,-0.092 0.02,-0.204 0,-0.244 -0.144,-0.376 -0.144,-0.136 -0.42,-0.136 -0.344,0 -0.576,0.192 -0.228,0.188 -0.3,0.548 l -0.24,1.184 h -0.2 l 0.244,-1.208 q 0.02,-0.092 0.02,-0.204 0,-0.244 -0.144,-0.376 -0.144,-0.136 -0.42,-0.136 -0.348,0 -0.58,0.204 -0.232,0.2 -0.308,0.584 l -0.228,1.136 h -0.2 l 0.416,-2.088 h 0.196 l -0.08,0.392 q 0.148,-0.208 0.36,-0.308 0.212,-0.1 0.476,-0.1 0.288,0 0.464,0.124 0.176,0.12 0.232,0.344 0.156,-0.232 0.388,-0.348 0.232,-0.12 0.52,-0.12 z"
           style="font-style:italic;font-weight:300;font-family:Montserrat;-inkscape-font-specification:'Montserrat Light Italic';text-align:center;text-anchor:middle"
           id="path91687" />
        <path
           d="m 56.29025,91.729595 -1.56,2.396 q -0.176,0.272 -0.336,0.376 -0.156,0.108 -0.372,0.108 -0.144,0 -0.272,-0.048 -0.128,-0.048 -0.2,-0.136 l 0.116,-0.148 q 0.14,0.156 0.376,0.156 0.144,0 0.26,-0.08 0.12,-0.08 0.252,-0.28 l 0.176,-0.264 -0.528,-2.08 h 0.204 l 0.468,1.868 1.208,-1.868 z"
           style="font-style:italic;font-weight:300;font-family:Montserrat;-inkscape-font-specification:'Montserrat Light Italic';text-align:center;text-anchor:middle"
           id="path91689" />
        <path
           d="m 57.69825,93.213595 q -0.016,0.076 -0.016,0.148 0,0.3 0.32,0.3 0.192,0 0.34,-0.116 l 0.06,0.148 q -0.172,0.14 -0.448,0.14 -0.224,0 -0.352,-0.116 -0.124,-0.12 -0.124,-0.328 0,-0.084 0.016,-0.16 l 0.268,-1.328 h -0.388 l 0.032,-0.172 h 0.388 l 0.092,-0.456 h 0.2 l -0.092,0.456 h 0.664 l -0.032,0.172 h -0.664 z"
           style="font-style:italic;font-weight:300;font-family:Montserrat;-inkscape-font-specification:'Montserrat Light Italic';text-align:center;text-anchor:middle"
           id="path91691" />
        <path
           d="m 59.342245,91.729595 h 0.2 l -0.416,2.088 h -0.2 z m 0.224,-0.508 q -0.064,0 -0.108,-0.044 -0.044,-0.044 -0.044,-0.104 0,-0.072 0.048,-0.124 0.052,-0.052 0.128,-0.052 0.064,0 0.108,0.044 0.048,0.044 0.048,0.104 0,0.076 -0.052,0.128 -0.052,0.048 -0.128,0.048 z"
           style="font-style:italic;font-weight:300;font-family:Montserrat;-inkscape-font-specification:'Montserrat Light Italic';text-align:center;text-anchor:middle"
           id="path91693" />
        <path
           d="m 62.942244,91.713595 q 0.352,0 0.54,0.176 0.188,0.172 0.188,0.484 0,0.108 -0.024,0.236 l -0.244,1.208 h -0.2 l 0.244,-1.208 q 0.02,-0.092 0.02,-0.204 0,-0.244 -0.144,-0.376 -0.144,-0.136 -0.42,-0.136 -0.344,0 -0.576,0.192 -0.228,0.188 -0.3,0.548 l -0.24,1.184 h -0.2 l 0.244,-1.208 q 0.02,-0.092 0.02,-0.204 0,-0.244 -0.144,-0.376 -0.144,-0.136 -0.42,-0.136 -0.348,0 -0.58,0.204 -0.232,0.2 -0.308,0.584 l -0.228,1.136 h -0.2 l 0.416,-2.088 h 0.196 l -0.08,0.392 q 0.148,-0.208 0.36,-0.308 0.212,-0.1 0.476,-0.1 0.288,0 0.464,0.124 0.176,0.12 0.232,0.344 0.156,-0.232 0.388,-0.348 0.232,-0.12 0.52,-0.12 z"
           style="font-style:italic;font-weight:300;font-family:Montserrat;-inkscape-font-specification:'Montserrat Light Italic';text-align:center;text-anchor:middle"
           id="path91695" />
        <path
           d="m 64.402238,92.817595 q -0.008,0.088 -0.008,0.132 0,0.34 0.196,0.524 0.196,0.18 0.576,0.18 0.22,0 0.404,-0.072 0.188,-0.076 0.312,-0.208 l 0.092,0.14 q -0.14,0.152 -0.36,0.236 -0.216,0.084 -0.464,0.084 -0.444,0 -0.7,-0.232 -0.252,-0.232 -0.252,-0.644 0,-0.352 0.148,-0.636 0.148,-0.284 0.408,-0.444 0.26,-0.164 0.584,-0.164 0.408,0 0.648,0.232 0.24,0.232 0.24,0.64 0,0.096 -0.024,0.232 z m 0.932,-0.932 q -0.34,0 -0.588,0.212 -0.244,0.212 -0.32,0.564 h 1.608 q 0.004,-0.036 0.004,-0.104 0,-0.316 -0.192,-0.492 -0.192,-0.18 -0.512,-0.18 z"
           style="font-style:italic;font-weight:300;font-family:Montserrat;-inkscape-font-specification:'Montserrat Light Italic';text-align:center;text-anchor:middle"
           id="path91697" />
        <path
           d="m 69.046236,91.713595 q 0.356,0 0.548,0.18 0.192,0.176 0.192,0.488 0,0.108 -0.024,0.228 l -0.24,1.208 h -0.2 l 0.24,-1.208 q 0.02,-0.092 0.02,-0.2 0,-0.248 -0.152,-0.38 -0.148,-0.136 -0.436,-0.136 -0.36,0 -0.6,0.204 -0.24,0.2 -0.316,0.584 l -0.228,1.136 h -0.2 l 0.592,-2.968 h 0.2 l -0.252,1.268 q 0.296,-0.404 0.856,-0.404 z"
           style="font-style:italic;font-weight:300;font-family:Montserrat;-inkscape-font-specification:'Montserrat Light Italic';text-align:center;text-anchor:middle"
           id="path91699" />
        <path
           d="m 72.622228,91.729595 -0.416,2.088 h -0.192 l 0.08,-0.408 q -0.152,0.2 -0.38,0.312 -0.224,0.112 -0.5,0.112 -0.408,0 -0.656,-0.232 -0.244,-0.236 -0.244,-0.636 0,-0.356 0.152,-0.64 0.152,-0.288 0.42,-0.448 0.272,-0.164 0.608,-0.164 0.324,0 0.536,0.14 0.212,0.14 0.288,0.396 l 0.104,-0.52 z m -1.368,1.924 q 0.28,0 0.5,-0.136 0.224,-0.136 0.352,-0.376 0.128,-0.244 0.128,-0.548 0,-0.332 -0.196,-0.516 -0.192,-0.184 -0.544,-0.184 -0.28,0 -0.504,0.14 -0.22,0.136 -0.348,0.38 -0.128,0.24 -0.128,0.54 0,0.332 0.192,0.516 0.196,0.184 0.548,0.184 z"
           style="font-style:italic;font-weight:300;font-family:Montserrat;-inkscape-font-specification:'Montserrat Light Italic';text-align:center;text-anchor:middle"
           id="path91701" />
        <path
           d="m 73.618225,93.833595 q -0.244,0 -0.468,-0.072 -0.22,-0.076 -0.344,-0.192 l 0.108,-0.156 q 0.116,0.112 0.308,0.18 0.196,0.064 0.412,0.064 0.324,0 0.5,-0.112 0.18,-0.116 0.18,-0.32 0,-0.116 -0.072,-0.184 -0.072,-0.068 -0.176,-0.1 -0.104,-0.036 -0.288,-0.076 -0.216,-0.044 -0.352,-0.092 -0.132,-0.048 -0.224,-0.148 -0.092,-0.104 -0.092,-0.28 0,-0.288 0.236,-0.46 0.24,-0.172 0.636,-0.172 0.2,0 0.388,0.056 0.188,0.052 0.3,0.148 l -0.092,0.156 q -0.116,-0.092 -0.28,-0.136 -0.16,-0.048 -0.332,-0.048 -0.304,0 -0.484,0.12 -0.176,0.12 -0.176,0.316 0,0.12 0.072,0.192 0.072,0.068 0.18,0.104 0.112,0.036 0.296,0.076 0.216,0.044 0.344,0.092 0.132,0.044 0.224,0.144 0.092,0.1 0.092,0.272 0,0.292 -0.244,0.46 -0.244,0.168 -0.652,0.168 z"
           style="font-style:italic;font-weight:300;font-family:Montserrat;-inkscape-font-specification:'Montserrat Light Italic';text-align:center;text-anchor:middle"
           id="path91703" />
        <path
           d="m 78.29022,91.729595 -0.372,1.864 q -0.104,0.532 -0.392,0.772 -0.288,0.244 -0.796,0.244 -0.288,0 -0.52,-0.088 -0.232,-0.084 -0.384,-0.24 l 0.128,-0.148 q 0.128,0.14 0.332,0.216 0.204,0.08 0.46,0.08 0.416,0 0.652,-0.196 0.236,-0.196 0.316,-0.608 l 0.064,-0.312 q -0.156,0.204 -0.388,0.316 -0.232,0.112 -0.516,0.112 -0.42,0 -0.668,-0.224 -0.244,-0.224 -0.244,-0.608 0,-0.336 0.152,-0.608 0.152,-0.276 0.424,-0.432 0.272,-0.156 0.612,-0.156 0.328,0 0.548,0.14 0.22,0.14 0.296,0.408 l 0.104,-0.532 z m -1.38,1.832 q 0.284,0 0.508,-0.128 0.224,-0.132 0.352,-0.36 0.128,-0.232 0.128,-0.52 0,-0.312 -0.2,-0.484 -0.196,-0.176 -0.548,-0.176 -0.284,0 -0.508,0.132 -0.224,0.128 -0.352,0.36 -0.128,0.228 -0.128,0.516 0,0.312 0.196,0.488 0.2,0.172 0.552,0.172 z"
           style="font-style:italic;font-weight:300;font-family:Montserrat;-inkscape-font-specification:'Montserrat Light Italic';text-align:center;text-anchor:middle"
           id="path91705" />
        <path
           d="m 79.606216,93.833595 q -0.424,0 -0.676,-0.236 -0.248,-0.236 -0.248,-0.632 0,-0.356 0.152,-0.64 0.156,-0.284 0.428,-0.448 0.272,-0.164 0.616,-0.164 0.424,0 0.672,0.236 0.252,0.232 0.252,0.632 0,0.356 -0.156,0.644 -0.152,0.284 -0.424,0.448 -0.272,0.16 -0.616,0.16 z m 0.016,-0.18 q 0.28,0 0.5,-0.136 0.224,-0.136 0.352,-0.376 0.128,-0.244 0.128,-0.548 0,-0.332 -0.196,-0.516 -0.192,-0.184 -0.544,-0.184 -0.28,0 -0.504,0.14 -0.22,0.136 -0.348,0.38 -0.128,0.24 -0.128,0.54 0,0.332 0.192,0.516 0.196,0.184 0.548,0.184 z"
           style="font-style:italic;font-weight:300;font-family:Montserrat;-inkscape-font-specification:'Montserrat Light Italic';text-align:center;text-anchor:middle"
           id="path91707" />
        <path
           d="m 82.590212,91.713595 q 0.356,0 0.548,0.18 0.192,0.176 0.192,0.488 0,0.108 -0.024,0.228 l -0.24,1.208 h -0.2 l 0.24,-1.208 q 0.02,-0.092 0.02,-0.2 0,-0.248 -0.152,-0.38 -0.148,-0.136 -0.436,-0.136 -0.36,0 -0.6,0.204 -0.24,0.2 -0.316,0.584 l -0.228,1.136 h -0.2 l 0.416,-2.088 h 0.196 l -0.08,0.396 q 0.148,-0.208 0.368,-0.308 0.224,-0.104 0.496,-0.104 z"
           style="font-style:italic;font-weight:300;font-family:Montserrat;-inkscape-font-specification:'Montserrat Light Italic';text-align:center;text-anchor:middle"
           id="path91709" />
        <path
           d="m 84.062204,92.817595 q -0.008,0.088 -0.008,0.132 0,0.34 0.196,0.524 0.196,0.18 0.576,0.18 0.22,0 0.404,-0.072 0.188,-0.076 0.312,-0.208 l 0.092,0.14 q -0.14,0.152 -0.36,0.236 -0.216,0.084 -0.464,0.084 -0.444,0 -0.7,-0.232 -0.252,-0.232 -0.252,-0.644 0,-0.352 0.148,-0.636 0.148,-0.284 0.408,-0.444 0.26,-0.164 0.584,-0.164 0.408,0 0.648,0.232 0.24,0.232 0.24,0.64 0,0.096 -0.024,0.232 z m 0.932,-0.932 q -0.34,0 -0.588,0.212 -0.244,0.212 -0.32,0.564 h 1.608 q 0.004,-0.036 0.004,-0.104 0,-0.316 -0.192,-0.492 -0.192,-0.18 -0.512,-0.18 z"
           style="font-style:italic;font-weight:300;font-family:Montserrat;-inkscape-font-specification:'Montserrat Light Italic';text-align:center;text-anchor:middle"
           id="path91711" />
        <path
           d="m 86.6102,91.017595 h 0.184 l -0.22,1.032 h -0.156 z m 0.648,0 h 0.184 l -0.22,1.032 h -0.156 z"
           style="font-style:italic;font-weight:300;font-family:Montserrat;-inkscape-font-specification:'Montserrat Light Italic';text-align:center;text-anchor:middle"
           id="path91713" />
      </g>
    </g>
  </g>
  <g
     inkscape:groupmode="layer"
     id="layer3"
     inkscape:label="Reference 1&quot;x1&quot;">
    <rect
       style="fill:none;stroke:#0000ff;stroke-width:0.5;stroke-linejoin:round;stroke-miterlimit:4;stroke-dasharray:none;stroke-opacity:1"
       id="rect8154"
       width="25.4"
       height="25.4"
       x="-35.431541"
       y="188.2654" />
    <text
       xml:space="preserve"
       style="font-style:normal;font-weight:normal;font-size:10.5833px;line-height:1.25;font-family:sans-serif;fill:#0000ff;fill-opacity:1;stroke:none;stroke-width:0.264583"
       x="-31.549776"
       y="186.40857"
       id="text12594"><tspan
         sodipodi:role="line"
         id="tspan12592"
         style="fill:#0000ff;fill-opacity:1;stroke-width:0.264583"
         x="-31.549776"
         y="186.40857">1in</tspan></text>
  </g>
</svg>
